M48
; DRILL file {KiCad 7.0.7} date Fri Sep  8 08:10:02 2023
; FORMAT={-:-/ absolute / inch / decimal}
; #@! TF.CreationDate,2023-09-08T08:10:02+02:00
; #@! TF.GenerationSoftware,Kicad,Pcbnew,7.0.7
; #@! TF.FileFunction,Plated,1,2,PTH
FMAT,2
INCH
; #@! TA.AperFunction,Plated,PTH,ViaDrill
T1C0.0236
; #@! TA.AperFunction,Plated,PTH,ComponentDrill
T2C0.0315
; #@! TA.AperFunction,Plated,PTH,ComponentDrill
T3C0.0394
; #@! TA.AperFunction,Plated,PTH,ComponentDrill
T4C0.0400
; #@! TA.AperFunction,Plated,PTH,ViaDrill
T5C0.0472
%
G90
G05
T1
X4.6161Y-5.8169
X4.6161Y-5.9311
X4.8327Y-5.2559
X4.8327Y-5.4429
X5.3051Y-5.3346
X5.3051Y-5.6693
T2
X4.1406Y-5.4
X4.2126Y-4.152
X4.2126Y-4.252
X4.2126Y-4.352
X4.5406Y-5.4
X5.4496Y-5.6693
X5.4701Y-5.3248
X5.6087Y-5.1575
X5.7087Y-5.1575
X5.7701Y-5.3248
X5.8087Y-5.1575
X5.8496Y-5.6693
X5.8728Y-5.8661
X6.2728Y-5.8661
X6.3189Y-4.3472
X6.3189Y-4.7472
T3
X4.3421Y-5.1215
X4.3421Y-6.0215
X4.4421Y-5.1215
X4.4421Y-6.0215
X4.5421Y-5.1215
X4.5421Y-6.0215
X4.6421Y-5.1215
X4.6421Y-6.0215
X4.7421Y-5.1215
X4.7421Y-6.0215
X4.8421Y-5.1215
X4.8421Y-6.0215
X4.9421Y-5.1215
X4.9421Y-6.0215
X5.0421Y-5.1215
X5.0421Y-6.0215
T4
X4.1437Y-5.2528
X4.1437Y-5.6528
T5
X4.2323Y-4.7835
X4.2323Y-5.0098
T0
M30
