%TF.GenerationSoftware,KiCad,Pcbnew,7.0.7*%
%TF.CreationDate,2023-09-08T08:11:20+02:00*%
%TF.ProjectId,D1Mini_Wuerfel_aktuell,44314d69-6e69-45f5-9775-657266656c5f,rev?*%
%TF.SameCoordinates,Original*%
%TF.FileFunction,Soldermask,Top*%
%TF.FilePolarity,Negative*%
%FSLAX46Y46*%
G04 Gerber Fmt 4.6, Leading zero omitted, Abs format (unit mm)*
G04 Created by KiCad (PCBNEW 7.0.7) date 2023-09-08 08:11:20*
%MOMM*%
%LPD*%
G01*
G04 APERTURE LIST*
G04 Aperture macros list*
%AMRoundRect*
0 Rectangle with rounded corners*
0 $1 Rounding radius*
0 $2 $3 $4 $5 $6 $7 $8 $9 X,Y pos of 4 corners*
0 Add a 4 corners polygon primitive as box body*
4,1,4,$2,$3,$4,$5,$6,$7,$8,$9,$2,$3,0*
0 Add four circle primitives for the rounded corners*
1,1,$1+$1,$2,$3*
1,1,$1+$1,$4,$5*
1,1,$1+$1,$6,$7*
1,1,$1+$1,$8,$9*
0 Add four rect primitives between the rounded corners*
20,1,$1+$1,$2,$3,$4,$5,0*
20,1,$1+$1,$4,$5,$6,$7,0*
20,1,$1+$1,$6,$7,$8,$9,0*
20,1,$1+$1,$8,$9,$2,$3,0*%
%AMFreePoly0*
4,1,25,0.494643,1.132196,0.506766,1.121842,1.121842,0.506766,1.150349,0.450818,1.151600,0.434924,1.151600,-0.434924,1.132196,-0.494643,1.121842,-0.506766,0.506766,-1.121842,0.450818,-1.150349,0.434924,-1.151600,-0.434924,-1.151600,-0.494643,-1.132196,-0.506766,-1.121842,-1.121842,-0.506766,-1.150349,-0.450818,-1.151600,-0.434924,-1.151600,0.434924,-1.132196,0.494643,-1.121842,0.506766,
-0.506766,1.121842,-0.450818,1.150349,-0.434924,1.151600,0.434924,1.151600,0.494643,1.132196,0.494643,1.132196,$1*%
%AMFreePoly1*
4,1,25,0.432511,0.982196,0.444634,0.971842,0.971842,0.444634,1.000349,0.388686,1.001600,0.372792,1.001600,-0.372792,0.982196,-0.432511,0.971842,-0.444634,0.444634,-0.971842,0.388686,-1.000349,0.372792,-1.001600,-0.372792,-1.001600,-0.432511,-0.982196,-0.444634,-0.971842,-0.971842,-0.444634,-1.000349,-0.388686,-1.001600,-0.372792,-1.001600,0.372792,-0.982196,0.432511,-0.971842,0.444634,
-0.444634,0.971842,-0.388686,1.000349,-0.372792,1.001600,0.372792,1.001600,0.432511,0.982196,0.432511,0.982196,$1*%
G04 Aperture macros list end*
%ADD10RoundRect,0.191600X-1.410000X-0.360000X1.410000X-0.360000X1.410000X0.360000X-1.410000X0.360000X0*%
%ADD11RoundRect,0.101600X-0.800000X-1.000000X0.800000X-1.000000X0.800000X1.000000X-0.800000X1.000000X0*%
%ADD12RoundRect,0.250000X-0.312500X-0.625000X0.312500X-0.625000X0.312500X0.625000X-0.312500X0.625000X0*%
%ADD13RoundRect,0.101600X0.375000X0.875000X-0.375000X0.875000X-0.375000X-0.875000X0.375000X-0.875000X0*%
%ADD14RoundRect,0.101600X-0.875000X0.400000X-0.875000X-0.400000X0.875000X-0.400000X0.875000X0.400000X0*%
%ADD15RoundRect,0.101600X-0.750000X0.400000X-0.750000X-0.400000X0.750000X-0.400000X0.750000X0.400000X0*%
%ADD16RoundRect,0.101600X-0.350000X-1.050000X0.350000X-1.050000X0.350000X1.050000X-0.350000X1.050000X0*%
%ADD17FreePoly0,180.000000*%
%ADD18FreePoly0,0.000000*%
%ADD19FreePoly1,270.000000*%
%ADD20C,2.500000*%
%ADD21FreePoly1,90.000000*%
%ADD22FreePoly0,270.000000*%
%ADD23R,2.000000X2.000000*%
%ADD24O,1.600000X2.000000*%
G04 APERTURE END LIST*
D10*
%TO.C,D15*%
X150840000Y-78850000D03*
X150840000Y-82150000D03*
X155740000Y-82150000D03*
X155740000Y-78850000D03*
%TD*%
%TO.C,D18*%
X130840000Y-88850000D03*
X130840000Y-92150000D03*
X135740000Y-92150000D03*
X135740000Y-88850000D03*
%TD*%
D11*
%TO.C,S1*%
X113790000Y-106800000D03*
X118790000Y-106800000D03*
X113790000Y-121200000D03*
X118790000Y-121200000D03*
%TD*%
D10*
%TO.C,D3*%
X130840000Y-58850000D03*
X130840000Y-62150000D03*
X135740000Y-62150000D03*
X135740000Y-58850000D03*
%TD*%
%TO.C,D19*%
X140840000Y-88850000D03*
X140840000Y-92150000D03*
X145740000Y-92150000D03*
X145740000Y-88850000D03*
%TD*%
%TO.C,D16*%
X110840000Y-88850000D03*
X110840000Y-92150000D03*
X115740000Y-92150000D03*
X115740000Y-88850000D03*
%TD*%
D12*
%TO.C,R1_SMT1*%
X108825000Y-137160000D03*
X111750000Y-137160000D03*
%TD*%
D10*
%TO.C,D14*%
X140840000Y-78850000D03*
X140840000Y-82150000D03*
X145740000Y-82150000D03*
X145740000Y-78850000D03*
%TD*%
%TO.C,D2*%
X120840000Y-58850000D03*
X120840000Y-62150000D03*
X125740000Y-62150000D03*
X125740000Y-58850000D03*
%TD*%
D13*
%TO.C,T2*%
X118700000Y-133350000D03*
X116800000Y-133350000D03*
X117750000Y-135650000D03*
%TD*%
D10*
%TO.C,D24*%
X140840000Y-98850000D03*
X140840000Y-102150000D03*
X145740000Y-102150000D03*
X145740000Y-98850000D03*
%TD*%
%TO.C,D25*%
X150840000Y-98850000D03*
X150840000Y-102150000D03*
X155740000Y-102150000D03*
X155740000Y-98850000D03*
%TD*%
%TO.C,D20*%
X150840000Y-88850000D03*
X150840000Y-92150000D03*
X155740000Y-92150000D03*
X155740000Y-88850000D03*
%TD*%
%TO.C,D11*%
X110840000Y-78850000D03*
X110840000Y-82150000D03*
X115740000Y-82150000D03*
X115740000Y-78850000D03*
%TD*%
D11*
%TO.C,S3*%
X147790000Y-106800000D03*
X152790000Y-106800000D03*
X147790000Y-121200000D03*
X152790000Y-121200000D03*
%TD*%
D10*
%TO.C,D21*%
X110840000Y-98850000D03*
X110840000Y-102150000D03*
X115740000Y-102150000D03*
X115740000Y-98850000D03*
%TD*%
%TO.C,D12*%
X120840000Y-78850000D03*
X120840000Y-82150000D03*
X125740000Y-82150000D03*
X125740000Y-78850000D03*
%TD*%
%TO.C,D6*%
X110840000Y-68850000D03*
X110840000Y-72150000D03*
X115740000Y-72150000D03*
X115740000Y-68850000D03*
%TD*%
%TO.C,D13*%
X130840000Y-78850000D03*
X130840000Y-82150000D03*
X135740000Y-82150000D03*
X135740000Y-78850000D03*
%TD*%
%TO.C,D10*%
X150840000Y-68850000D03*
X150840000Y-72150000D03*
X155740000Y-72150000D03*
X155740000Y-68850000D03*
%TD*%
%TO.C,D7*%
X120840000Y-68850000D03*
X120840000Y-72150000D03*
X125740000Y-72150000D03*
X125740000Y-68850000D03*
%TD*%
%TO.C,D4*%
X140840000Y-58850000D03*
X140840000Y-62150000D03*
X145740000Y-62150000D03*
X145740000Y-58850000D03*
%TD*%
%TO.C,D9*%
X140840000Y-68850000D03*
X140840000Y-72150000D03*
X145740000Y-72150000D03*
X145740000Y-68850000D03*
%TD*%
%TO.C,D1*%
X110840000Y-58850000D03*
X110840000Y-62150000D03*
X115740000Y-62150000D03*
X115740000Y-58850000D03*
%TD*%
%TO.C,D23*%
X130840000Y-98850000D03*
X130840000Y-102150000D03*
X135740000Y-102150000D03*
X135740000Y-98850000D03*
%TD*%
%TO.C,D5*%
X150840000Y-58850000D03*
X150840000Y-62150000D03*
X155740000Y-62150000D03*
X155740000Y-58850000D03*
%TD*%
%TO.C,D8*%
X130840000Y-68850000D03*
X130840000Y-72150000D03*
X135740000Y-72150000D03*
X135740000Y-68850000D03*
%TD*%
D14*
%TO.C,T3*%
X117950000Y-142550000D03*
X117950000Y-144450000D03*
D15*
X120250000Y-143500000D03*
%TD*%
D16*
%TO.C,T1*%
X124845000Y-139200000D03*
X126115000Y-139200000D03*
X127385000Y-139200000D03*
X128655000Y-139200000D03*
X128655000Y-133800000D03*
X127385000Y-133800000D03*
X126115000Y-133800000D03*
X124845000Y-133800000D03*
%TD*%
D10*
%TO.C,D22*%
X120840000Y-98850000D03*
X120840000Y-102150000D03*
X125740000Y-102150000D03*
X125740000Y-98850000D03*
%TD*%
D11*
%TO.C,S2*%
X130790000Y-106800000D03*
X135790000Y-106800000D03*
X130790000Y-121200000D03*
X135790000Y-121200000D03*
%TD*%
D10*
%TO.C,D17*%
X120840000Y-88850000D03*
X120840000Y-92150000D03*
X125740000Y-92150000D03*
X125740000Y-88850000D03*
%TD*%
D17*
%TO.C,U2*%
X147540000Y-131000000D03*
X145000000Y-131000000D03*
X142460000Y-131000000D03*
%TD*%
%TO.C,D26*%
X146560000Y-135250000D03*
X138940000Y-135250000D03*
%TD*%
D18*
%TO.C,D28*%
X149170000Y-149000000D03*
X159330000Y-149000000D03*
%TD*%
D19*
%TO.C,BAT1*%
X105250000Y-143580000D03*
X105250000Y-133420000D03*
%TD*%
D20*
%TO.C,REF3*%
X155791100Y-142496400D03*
%TD*%
D21*
%TO.C,R2*%
X160500000Y-120580000D03*
X160500000Y-110420000D03*
%TD*%
D20*
%TO.C,REF1*%
X110791100Y-52496400D03*
%TD*%
%TO.C,REF4*%
X110791100Y-142496400D03*
%TD*%
D18*
%TO.C,R1_THT1*%
X105170000Y-137160000D03*
X115330000Y-137160000D03*
%TD*%
%TO.C,D27*%
X138420000Y-144000000D03*
X148580000Y-144000000D03*
%TD*%
D22*
%TO.C,K1*%
X107000000Y-105460000D03*
X107000000Y-108000000D03*
X107000000Y-110540000D03*
%TD*%
D23*
%TO.C,U1*%
X128070000Y-152945000D03*
D24*
X125530000Y-152945000D03*
X122990000Y-152945000D03*
X120450000Y-152945000D03*
X117910000Y-152945000D03*
X115370000Y-152945000D03*
X112830000Y-152945000D03*
X110290000Y-152945000D03*
X110290000Y-130085000D03*
X112830000Y-130085000D03*
X115370000Y-130085000D03*
X117910000Y-130085000D03*
X120450000Y-130085000D03*
X122990000Y-130085000D03*
X125530000Y-130085000D03*
X128070000Y-130085000D03*
%TD*%
D20*
%TO.C,REF2*%
X155791100Y-52496400D03*
%TD*%
M02*
