%TF.GenerationSoftware,KiCad,Pcbnew,7.0.7*%
%TF.CreationDate,2023-09-08T08:11:20+02:00*%
%TF.ProjectId,D1Mini_Wuerfel_aktuell,44314d69-6e69-45f5-9775-657266656c5f,rev?*%
%TF.SameCoordinates,Original*%
%TF.FileFunction,Legend,Top*%
%TF.FilePolarity,Positive*%
%FSLAX46Y46*%
G04 Gerber Fmt 4.6, Leading zero omitted, Abs format (unit mm)*
G04 Created by KiCad (PCBNEW 7.0.7) date 2023-09-08 08:11:20*
%MOMM*%
%LPD*%
G01*
G04 APERTURE LIST*
%ADD10C,0.400000*%
%ADD11C,1.000000*%
%ADD12C,0.056000*%
%ADD13C,0.120000*%
%ADD14C,0.150000*%
%ADD15C,0.160000*%
%ADD16C,0.300000*%
%ADD17C,0.200000*%
G04 APERTURE END LIST*
D10*
X117250000Y-147750000D02*
X117250000Y-150750000D01*
X122750000Y-138250000D02*
X122750000Y-133500000D01*
D11*
X107500000Y-121500000D02*
X107500000Y-127250000D01*
D10*
X134750000Y-135500000D02*
X134750000Y-144000000D01*
D12*
X150780175Y-77618274D02*
X150780175Y-76974274D01*
X150780175Y-76974274D02*
X150933508Y-76974274D01*
X150933508Y-76974274D02*
X151025508Y-77004941D01*
X151025508Y-77004941D02*
X151086842Y-77066274D01*
X151086842Y-77066274D02*
X151117508Y-77127608D01*
X151117508Y-77127608D02*
X151148175Y-77250274D01*
X151148175Y-77250274D02*
X151148175Y-77342274D01*
X151148175Y-77342274D02*
X151117508Y-77464941D01*
X151117508Y-77464941D02*
X151086842Y-77526274D01*
X151086842Y-77526274D02*
X151025508Y-77587608D01*
X151025508Y-77587608D02*
X150933508Y-77618274D01*
X150933508Y-77618274D02*
X150780175Y-77618274D01*
X151761508Y-77618274D02*
X151393508Y-77618274D01*
X151577508Y-77618274D02*
X151577508Y-76974274D01*
X151577508Y-76974274D02*
X151516175Y-77066274D01*
X151516175Y-77066274D02*
X151454842Y-77127608D01*
X151454842Y-77127608D02*
X151393508Y-77158274D01*
X152344175Y-76974274D02*
X152037508Y-76974274D01*
X152037508Y-76974274D02*
X152006841Y-77280941D01*
X152006841Y-77280941D02*
X152037508Y-77250274D01*
X152037508Y-77250274D02*
X152098841Y-77219608D01*
X152098841Y-77219608D02*
X152252175Y-77219608D01*
X152252175Y-77219608D02*
X152313508Y-77250274D01*
X152313508Y-77250274D02*
X152344175Y-77280941D01*
X152344175Y-77280941D02*
X152374841Y-77342274D01*
X152374841Y-77342274D02*
X152374841Y-77495608D01*
X152374841Y-77495608D02*
X152344175Y-77556941D01*
X152344175Y-77556941D02*
X152313508Y-77587608D01*
X152313508Y-77587608D02*
X152252175Y-77618274D01*
X152252175Y-77618274D02*
X152098841Y-77618274D01*
X152098841Y-77618274D02*
X152037508Y-77587608D01*
X152037508Y-77587608D02*
X152006841Y-77556941D01*
X130780175Y-87618274D02*
X130780175Y-86974274D01*
X130780175Y-86974274D02*
X130933508Y-86974274D01*
X130933508Y-86974274D02*
X131025508Y-87004941D01*
X131025508Y-87004941D02*
X131086842Y-87066274D01*
X131086842Y-87066274D02*
X131117508Y-87127608D01*
X131117508Y-87127608D02*
X131148175Y-87250274D01*
X131148175Y-87250274D02*
X131148175Y-87342274D01*
X131148175Y-87342274D02*
X131117508Y-87464941D01*
X131117508Y-87464941D02*
X131086842Y-87526274D01*
X131086842Y-87526274D02*
X131025508Y-87587608D01*
X131025508Y-87587608D02*
X130933508Y-87618274D01*
X130933508Y-87618274D02*
X130780175Y-87618274D01*
X131761508Y-87618274D02*
X131393508Y-87618274D01*
X131577508Y-87618274D02*
X131577508Y-86974274D01*
X131577508Y-86974274D02*
X131516175Y-87066274D01*
X131516175Y-87066274D02*
X131454842Y-87127608D01*
X131454842Y-87127608D02*
X131393508Y-87158274D01*
X132129508Y-87250274D02*
X132068175Y-87219608D01*
X132068175Y-87219608D02*
X132037508Y-87188941D01*
X132037508Y-87188941D02*
X132006841Y-87127608D01*
X132006841Y-87127608D02*
X132006841Y-87096941D01*
X132006841Y-87096941D02*
X132037508Y-87035608D01*
X132037508Y-87035608D02*
X132068175Y-87004941D01*
X132068175Y-87004941D02*
X132129508Y-86974274D01*
X132129508Y-86974274D02*
X132252175Y-86974274D01*
X132252175Y-86974274D02*
X132313508Y-87004941D01*
X132313508Y-87004941D02*
X132344175Y-87035608D01*
X132344175Y-87035608D02*
X132374841Y-87096941D01*
X132374841Y-87096941D02*
X132374841Y-87127608D01*
X132374841Y-87127608D02*
X132344175Y-87188941D01*
X132344175Y-87188941D02*
X132313508Y-87219608D01*
X132313508Y-87219608D02*
X132252175Y-87250274D01*
X132252175Y-87250274D02*
X132129508Y-87250274D01*
X132129508Y-87250274D02*
X132068175Y-87280941D01*
X132068175Y-87280941D02*
X132037508Y-87311608D01*
X132037508Y-87311608D02*
X132006841Y-87372941D01*
X132006841Y-87372941D02*
X132006841Y-87495608D01*
X132006841Y-87495608D02*
X132037508Y-87556941D01*
X132037508Y-87556941D02*
X132068175Y-87587608D01*
X132068175Y-87587608D02*
X132129508Y-87618274D01*
X132129508Y-87618274D02*
X132252175Y-87618274D01*
X132252175Y-87618274D02*
X132313508Y-87587608D01*
X132313508Y-87587608D02*
X132344175Y-87556941D01*
X132344175Y-87556941D02*
X132374841Y-87495608D01*
X132374841Y-87495608D02*
X132374841Y-87372941D01*
X132374841Y-87372941D02*
X132344175Y-87311608D01*
X132344175Y-87311608D02*
X132313508Y-87280941D01*
X132313508Y-87280941D02*
X132252175Y-87250274D01*
D13*
X107841804Y-119759160D02*
X108038947Y-119824874D01*
X108038947Y-119824874D02*
X108367518Y-119824874D01*
X108367518Y-119824874D02*
X108498947Y-119759160D01*
X108498947Y-119759160D02*
X108564661Y-119693445D01*
X108564661Y-119693445D02*
X108630375Y-119562017D01*
X108630375Y-119562017D02*
X108630375Y-119430588D01*
X108630375Y-119430588D02*
X108564661Y-119299160D01*
X108564661Y-119299160D02*
X108498947Y-119233445D01*
X108498947Y-119233445D02*
X108367518Y-119167731D01*
X108367518Y-119167731D02*
X108104661Y-119102017D01*
X108104661Y-119102017D02*
X107973232Y-119036302D01*
X107973232Y-119036302D02*
X107907518Y-118970588D01*
X107907518Y-118970588D02*
X107841804Y-118839160D01*
X107841804Y-118839160D02*
X107841804Y-118707731D01*
X107841804Y-118707731D02*
X107907518Y-118576302D01*
X107907518Y-118576302D02*
X107973232Y-118510588D01*
X107973232Y-118510588D02*
X108104661Y-118444874D01*
X108104661Y-118444874D02*
X108433232Y-118444874D01*
X108433232Y-118444874D02*
X108630375Y-118510588D01*
X109944661Y-119824874D02*
X109156090Y-119824874D01*
X109550375Y-119824874D02*
X109550375Y-118444874D01*
X109550375Y-118444874D02*
X109418947Y-118642017D01*
X109418947Y-118642017D02*
X109287518Y-118773445D01*
X109287518Y-118773445D02*
X109156090Y-118839160D01*
D12*
X130780175Y-57618274D02*
X130780175Y-56974274D01*
X130780175Y-56974274D02*
X130933508Y-56974274D01*
X130933508Y-56974274D02*
X131025508Y-57004941D01*
X131025508Y-57004941D02*
X131086842Y-57066274D01*
X131086842Y-57066274D02*
X131117508Y-57127608D01*
X131117508Y-57127608D02*
X131148175Y-57250274D01*
X131148175Y-57250274D02*
X131148175Y-57342274D01*
X131148175Y-57342274D02*
X131117508Y-57464941D01*
X131117508Y-57464941D02*
X131086842Y-57526274D01*
X131086842Y-57526274D02*
X131025508Y-57587608D01*
X131025508Y-57587608D02*
X130933508Y-57618274D01*
X130933508Y-57618274D02*
X130780175Y-57618274D01*
X131362842Y-56974274D02*
X131761508Y-56974274D01*
X131761508Y-56974274D02*
X131546842Y-57219608D01*
X131546842Y-57219608D02*
X131638842Y-57219608D01*
X131638842Y-57219608D02*
X131700175Y-57250274D01*
X131700175Y-57250274D02*
X131730842Y-57280941D01*
X131730842Y-57280941D02*
X131761508Y-57342274D01*
X131761508Y-57342274D02*
X131761508Y-57495608D01*
X131761508Y-57495608D02*
X131730842Y-57556941D01*
X131730842Y-57556941D02*
X131700175Y-57587608D01*
X131700175Y-57587608D02*
X131638842Y-57618274D01*
X131638842Y-57618274D02*
X131454842Y-57618274D01*
X131454842Y-57618274D02*
X131393508Y-57587608D01*
X131393508Y-57587608D02*
X131362842Y-57556941D01*
X140780175Y-87618274D02*
X140780175Y-86974274D01*
X140780175Y-86974274D02*
X140933508Y-86974274D01*
X140933508Y-86974274D02*
X141025508Y-87004941D01*
X141025508Y-87004941D02*
X141086842Y-87066274D01*
X141086842Y-87066274D02*
X141117508Y-87127608D01*
X141117508Y-87127608D02*
X141148175Y-87250274D01*
X141148175Y-87250274D02*
X141148175Y-87342274D01*
X141148175Y-87342274D02*
X141117508Y-87464941D01*
X141117508Y-87464941D02*
X141086842Y-87526274D01*
X141086842Y-87526274D02*
X141025508Y-87587608D01*
X141025508Y-87587608D02*
X140933508Y-87618274D01*
X140933508Y-87618274D02*
X140780175Y-87618274D01*
X141761508Y-87618274D02*
X141393508Y-87618274D01*
X141577508Y-87618274D02*
X141577508Y-86974274D01*
X141577508Y-86974274D02*
X141516175Y-87066274D01*
X141516175Y-87066274D02*
X141454842Y-87127608D01*
X141454842Y-87127608D02*
X141393508Y-87158274D01*
X142068175Y-87618274D02*
X142190841Y-87618274D01*
X142190841Y-87618274D02*
X142252175Y-87587608D01*
X142252175Y-87587608D02*
X142282841Y-87556941D01*
X142282841Y-87556941D02*
X142344175Y-87464941D01*
X142344175Y-87464941D02*
X142374841Y-87342274D01*
X142374841Y-87342274D02*
X142374841Y-87096941D01*
X142374841Y-87096941D02*
X142344175Y-87035608D01*
X142344175Y-87035608D02*
X142313508Y-87004941D01*
X142313508Y-87004941D02*
X142252175Y-86974274D01*
X142252175Y-86974274D02*
X142129508Y-86974274D01*
X142129508Y-86974274D02*
X142068175Y-87004941D01*
X142068175Y-87004941D02*
X142037508Y-87035608D01*
X142037508Y-87035608D02*
X142006841Y-87096941D01*
X142006841Y-87096941D02*
X142006841Y-87250274D01*
X142006841Y-87250274D02*
X142037508Y-87311608D01*
X142037508Y-87311608D02*
X142068175Y-87342274D01*
X142068175Y-87342274D02*
X142129508Y-87372941D01*
X142129508Y-87372941D02*
X142252175Y-87372941D01*
X142252175Y-87372941D02*
X142313508Y-87342274D01*
X142313508Y-87342274D02*
X142344175Y-87311608D01*
X142344175Y-87311608D02*
X142374841Y-87250274D01*
X110780175Y-87618274D02*
X110780175Y-86974274D01*
X110780175Y-86974274D02*
X110933508Y-86974274D01*
X110933508Y-86974274D02*
X111025508Y-87004941D01*
X111025508Y-87004941D02*
X111086842Y-87066274D01*
X111086842Y-87066274D02*
X111117508Y-87127608D01*
X111117508Y-87127608D02*
X111148175Y-87250274D01*
X111148175Y-87250274D02*
X111148175Y-87342274D01*
X111148175Y-87342274D02*
X111117508Y-87464941D01*
X111117508Y-87464941D02*
X111086842Y-87526274D01*
X111086842Y-87526274D02*
X111025508Y-87587608D01*
X111025508Y-87587608D02*
X110933508Y-87618274D01*
X110933508Y-87618274D02*
X110780175Y-87618274D01*
X111761508Y-87618274D02*
X111393508Y-87618274D01*
X111577508Y-87618274D02*
X111577508Y-86974274D01*
X111577508Y-86974274D02*
X111516175Y-87066274D01*
X111516175Y-87066274D02*
X111454842Y-87127608D01*
X111454842Y-87127608D02*
X111393508Y-87158274D01*
X112313508Y-86974274D02*
X112190841Y-86974274D01*
X112190841Y-86974274D02*
X112129508Y-87004941D01*
X112129508Y-87004941D02*
X112098841Y-87035608D01*
X112098841Y-87035608D02*
X112037508Y-87127608D01*
X112037508Y-87127608D02*
X112006841Y-87250274D01*
X112006841Y-87250274D02*
X112006841Y-87495608D01*
X112006841Y-87495608D02*
X112037508Y-87556941D01*
X112037508Y-87556941D02*
X112068175Y-87587608D01*
X112068175Y-87587608D02*
X112129508Y-87618274D01*
X112129508Y-87618274D02*
X112252175Y-87618274D01*
X112252175Y-87618274D02*
X112313508Y-87587608D01*
X112313508Y-87587608D02*
X112344175Y-87556941D01*
X112344175Y-87556941D02*
X112374841Y-87495608D01*
X112374841Y-87495608D02*
X112374841Y-87342274D01*
X112374841Y-87342274D02*
X112344175Y-87280941D01*
X112344175Y-87280941D02*
X112313508Y-87250274D01*
X112313508Y-87250274D02*
X112252175Y-87219608D01*
X112252175Y-87219608D02*
X112129508Y-87219608D01*
X112129508Y-87219608D02*
X112068175Y-87250274D01*
X112068175Y-87250274D02*
X112037508Y-87280941D01*
X112037508Y-87280941D02*
X112006841Y-87342274D01*
D14*
X107297618Y-135364819D02*
X106964285Y-134888628D01*
X106726190Y-135364819D02*
X106726190Y-134364819D01*
X106726190Y-134364819D02*
X107107142Y-134364819D01*
X107107142Y-134364819D02*
X107202380Y-134412438D01*
X107202380Y-134412438D02*
X107249999Y-134460057D01*
X107249999Y-134460057D02*
X107297618Y-134555295D01*
X107297618Y-134555295D02*
X107297618Y-134698152D01*
X107297618Y-134698152D02*
X107249999Y-134793390D01*
X107249999Y-134793390D02*
X107202380Y-134841009D01*
X107202380Y-134841009D02*
X107107142Y-134888628D01*
X107107142Y-134888628D02*
X106726190Y-134888628D01*
X108249999Y-135364819D02*
X107678571Y-135364819D01*
X107964285Y-135364819D02*
X107964285Y-134364819D01*
X107964285Y-134364819D02*
X107869047Y-134507676D01*
X107869047Y-134507676D02*
X107773809Y-134602914D01*
X107773809Y-134602914D02*
X107678571Y-134650533D01*
X108440476Y-135460057D02*
X109202380Y-135460057D01*
X109392857Y-135317200D02*
X109535714Y-135364819D01*
X109535714Y-135364819D02*
X109773809Y-135364819D01*
X109773809Y-135364819D02*
X109869047Y-135317200D01*
X109869047Y-135317200D02*
X109916666Y-135269580D01*
X109916666Y-135269580D02*
X109964285Y-135174342D01*
X109964285Y-135174342D02*
X109964285Y-135079104D01*
X109964285Y-135079104D02*
X109916666Y-134983866D01*
X109916666Y-134983866D02*
X109869047Y-134936247D01*
X109869047Y-134936247D02*
X109773809Y-134888628D01*
X109773809Y-134888628D02*
X109583333Y-134841009D01*
X109583333Y-134841009D02*
X109488095Y-134793390D01*
X109488095Y-134793390D02*
X109440476Y-134745771D01*
X109440476Y-134745771D02*
X109392857Y-134650533D01*
X109392857Y-134650533D02*
X109392857Y-134555295D01*
X109392857Y-134555295D02*
X109440476Y-134460057D01*
X109440476Y-134460057D02*
X109488095Y-134412438D01*
X109488095Y-134412438D02*
X109583333Y-134364819D01*
X109583333Y-134364819D02*
X109821428Y-134364819D01*
X109821428Y-134364819D02*
X109964285Y-134412438D01*
X110392857Y-135364819D02*
X110392857Y-134364819D01*
X110392857Y-134364819D02*
X110726190Y-135079104D01*
X110726190Y-135079104D02*
X111059523Y-134364819D01*
X111059523Y-134364819D02*
X111059523Y-135364819D01*
X111392857Y-134364819D02*
X111964285Y-134364819D01*
X111678571Y-135364819D02*
X111678571Y-134364819D01*
X112821428Y-135364819D02*
X112250000Y-135364819D01*
X112535714Y-135364819D02*
X112535714Y-134364819D01*
X112535714Y-134364819D02*
X112440476Y-134507676D01*
X112440476Y-134507676D02*
X112345238Y-134602914D01*
X112345238Y-134602914D02*
X112250000Y-134650533D01*
D12*
X140780175Y-77618274D02*
X140780175Y-76974274D01*
X140780175Y-76974274D02*
X140933508Y-76974274D01*
X140933508Y-76974274D02*
X141025508Y-77004941D01*
X141025508Y-77004941D02*
X141086842Y-77066274D01*
X141086842Y-77066274D02*
X141117508Y-77127608D01*
X141117508Y-77127608D02*
X141148175Y-77250274D01*
X141148175Y-77250274D02*
X141148175Y-77342274D01*
X141148175Y-77342274D02*
X141117508Y-77464941D01*
X141117508Y-77464941D02*
X141086842Y-77526274D01*
X141086842Y-77526274D02*
X141025508Y-77587608D01*
X141025508Y-77587608D02*
X140933508Y-77618274D01*
X140933508Y-77618274D02*
X140780175Y-77618274D01*
X141761508Y-77618274D02*
X141393508Y-77618274D01*
X141577508Y-77618274D02*
X141577508Y-76974274D01*
X141577508Y-76974274D02*
X141516175Y-77066274D01*
X141516175Y-77066274D02*
X141454842Y-77127608D01*
X141454842Y-77127608D02*
X141393508Y-77158274D01*
X142313508Y-77188941D02*
X142313508Y-77618274D01*
X142160175Y-76943608D02*
X142006841Y-77403608D01*
X142006841Y-77403608D02*
X142405508Y-77403608D01*
X120780175Y-57618274D02*
X120780175Y-56974274D01*
X120780175Y-56974274D02*
X120933508Y-56974274D01*
X120933508Y-56974274D02*
X121025508Y-57004941D01*
X121025508Y-57004941D02*
X121086842Y-57066274D01*
X121086842Y-57066274D02*
X121117508Y-57127608D01*
X121117508Y-57127608D02*
X121148175Y-57250274D01*
X121148175Y-57250274D02*
X121148175Y-57342274D01*
X121148175Y-57342274D02*
X121117508Y-57464941D01*
X121117508Y-57464941D02*
X121086842Y-57526274D01*
X121086842Y-57526274D02*
X121025508Y-57587608D01*
X121025508Y-57587608D02*
X120933508Y-57618274D01*
X120933508Y-57618274D02*
X120780175Y-57618274D01*
X121393508Y-57035608D02*
X121424175Y-57004941D01*
X121424175Y-57004941D02*
X121485508Y-56974274D01*
X121485508Y-56974274D02*
X121638842Y-56974274D01*
X121638842Y-56974274D02*
X121700175Y-57004941D01*
X121700175Y-57004941D02*
X121730842Y-57035608D01*
X121730842Y-57035608D02*
X121761508Y-57096941D01*
X121761508Y-57096941D02*
X121761508Y-57158274D01*
X121761508Y-57158274D02*
X121730842Y-57250274D01*
X121730842Y-57250274D02*
X121362842Y-57618274D01*
X121362842Y-57618274D02*
X121761508Y-57618274D01*
D15*
X114025689Y-133869299D02*
X114597117Y-133869299D01*
X114311403Y-134869299D02*
X114311403Y-133869299D01*
X114882832Y-133964537D02*
X114930451Y-133916918D01*
X114930451Y-133916918D02*
X115025689Y-133869299D01*
X115025689Y-133869299D02*
X115263784Y-133869299D01*
X115263784Y-133869299D02*
X115359022Y-133916918D01*
X115359022Y-133916918D02*
X115406641Y-133964537D01*
X115406641Y-133964537D02*
X115454260Y-134059775D01*
X115454260Y-134059775D02*
X115454260Y-134155013D01*
X115454260Y-134155013D02*
X115406641Y-134297870D01*
X115406641Y-134297870D02*
X114835213Y-134869299D01*
X114835213Y-134869299D02*
X115454260Y-134869299D01*
D12*
X140780175Y-97618274D02*
X140780175Y-96974274D01*
X140780175Y-96974274D02*
X140933508Y-96974274D01*
X140933508Y-96974274D02*
X141025508Y-97004941D01*
X141025508Y-97004941D02*
X141086842Y-97066274D01*
X141086842Y-97066274D02*
X141117508Y-97127608D01*
X141117508Y-97127608D02*
X141148175Y-97250274D01*
X141148175Y-97250274D02*
X141148175Y-97342274D01*
X141148175Y-97342274D02*
X141117508Y-97464941D01*
X141117508Y-97464941D02*
X141086842Y-97526274D01*
X141086842Y-97526274D02*
X141025508Y-97587608D01*
X141025508Y-97587608D02*
X140933508Y-97618274D01*
X140933508Y-97618274D02*
X140780175Y-97618274D01*
X141393508Y-97035608D02*
X141424175Y-97004941D01*
X141424175Y-97004941D02*
X141485508Y-96974274D01*
X141485508Y-96974274D02*
X141638842Y-96974274D01*
X141638842Y-96974274D02*
X141700175Y-97004941D01*
X141700175Y-97004941D02*
X141730842Y-97035608D01*
X141730842Y-97035608D02*
X141761508Y-97096941D01*
X141761508Y-97096941D02*
X141761508Y-97158274D01*
X141761508Y-97158274D02*
X141730842Y-97250274D01*
X141730842Y-97250274D02*
X141362842Y-97618274D01*
X141362842Y-97618274D02*
X141761508Y-97618274D01*
X142313508Y-97188941D02*
X142313508Y-97618274D01*
X142160175Y-96943608D02*
X142006841Y-97403608D01*
X142006841Y-97403608D02*
X142405508Y-97403608D01*
X150780175Y-97618274D02*
X150780175Y-96974274D01*
X150780175Y-96974274D02*
X150933508Y-96974274D01*
X150933508Y-96974274D02*
X151025508Y-97004941D01*
X151025508Y-97004941D02*
X151086842Y-97066274D01*
X151086842Y-97066274D02*
X151117508Y-97127608D01*
X151117508Y-97127608D02*
X151148175Y-97250274D01*
X151148175Y-97250274D02*
X151148175Y-97342274D01*
X151148175Y-97342274D02*
X151117508Y-97464941D01*
X151117508Y-97464941D02*
X151086842Y-97526274D01*
X151086842Y-97526274D02*
X151025508Y-97587608D01*
X151025508Y-97587608D02*
X150933508Y-97618274D01*
X150933508Y-97618274D02*
X150780175Y-97618274D01*
X151393508Y-97035608D02*
X151424175Y-97004941D01*
X151424175Y-97004941D02*
X151485508Y-96974274D01*
X151485508Y-96974274D02*
X151638842Y-96974274D01*
X151638842Y-96974274D02*
X151700175Y-97004941D01*
X151700175Y-97004941D02*
X151730842Y-97035608D01*
X151730842Y-97035608D02*
X151761508Y-97096941D01*
X151761508Y-97096941D02*
X151761508Y-97158274D01*
X151761508Y-97158274D02*
X151730842Y-97250274D01*
X151730842Y-97250274D02*
X151362842Y-97618274D01*
X151362842Y-97618274D02*
X151761508Y-97618274D01*
X152344175Y-96974274D02*
X152037508Y-96974274D01*
X152037508Y-96974274D02*
X152006841Y-97280941D01*
X152006841Y-97280941D02*
X152037508Y-97250274D01*
X152037508Y-97250274D02*
X152098841Y-97219608D01*
X152098841Y-97219608D02*
X152252175Y-97219608D01*
X152252175Y-97219608D02*
X152313508Y-97250274D01*
X152313508Y-97250274D02*
X152344175Y-97280941D01*
X152344175Y-97280941D02*
X152374841Y-97342274D01*
X152374841Y-97342274D02*
X152374841Y-97495608D01*
X152374841Y-97495608D02*
X152344175Y-97556941D01*
X152344175Y-97556941D02*
X152313508Y-97587608D01*
X152313508Y-97587608D02*
X152252175Y-97618274D01*
X152252175Y-97618274D02*
X152098841Y-97618274D01*
X152098841Y-97618274D02*
X152037508Y-97587608D01*
X152037508Y-97587608D02*
X152006841Y-97556941D01*
X150780175Y-87618274D02*
X150780175Y-86974274D01*
X150780175Y-86974274D02*
X150933508Y-86974274D01*
X150933508Y-86974274D02*
X151025508Y-87004941D01*
X151025508Y-87004941D02*
X151086842Y-87066274D01*
X151086842Y-87066274D02*
X151117508Y-87127608D01*
X151117508Y-87127608D02*
X151148175Y-87250274D01*
X151148175Y-87250274D02*
X151148175Y-87342274D01*
X151148175Y-87342274D02*
X151117508Y-87464941D01*
X151117508Y-87464941D02*
X151086842Y-87526274D01*
X151086842Y-87526274D02*
X151025508Y-87587608D01*
X151025508Y-87587608D02*
X150933508Y-87618274D01*
X150933508Y-87618274D02*
X150780175Y-87618274D01*
X151393508Y-87035608D02*
X151424175Y-87004941D01*
X151424175Y-87004941D02*
X151485508Y-86974274D01*
X151485508Y-86974274D02*
X151638842Y-86974274D01*
X151638842Y-86974274D02*
X151700175Y-87004941D01*
X151700175Y-87004941D02*
X151730842Y-87035608D01*
X151730842Y-87035608D02*
X151761508Y-87096941D01*
X151761508Y-87096941D02*
X151761508Y-87158274D01*
X151761508Y-87158274D02*
X151730842Y-87250274D01*
X151730842Y-87250274D02*
X151362842Y-87618274D01*
X151362842Y-87618274D02*
X151761508Y-87618274D01*
X152160175Y-86974274D02*
X152221508Y-86974274D01*
X152221508Y-86974274D02*
X152282841Y-87004941D01*
X152282841Y-87004941D02*
X152313508Y-87035608D01*
X152313508Y-87035608D02*
X152344175Y-87096941D01*
X152344175Y-87096941D02*
X152374841Y-87219608D01*
X152374841Y-87219608D02*
X152374841Y-87372941D01*
X152374841Y-87372941D02*
X152344175Y-87495608D01*
X152344175Y-87495608D02*
X152313508Y-87556941D01*
X152313508Y-87556941D02*
X152282841Y-87587608D01*
X152282841Y-87587608D02*
X152221508Y-87618274D01*
X152221508Y-87618274D02*
X152160175Y-87618274D01*
X152160175Y-87618274D02*
X152098841Y-87587608D01*
X152098841Y-87587608D02*
X152068175Y-87556941D01*
X152068175Y-87556941D02*
X152037508Y-87495608D01*
X152037508Y-87495608D02*
X152006841Y-87372941D01*
X152006841Y-87372941D02*
X152006841Y-87219608D01*
X152006841Y-87219608D02*
X152037508Y-87096941D01*
X152037508Y-87096941D02*
X152068175Y-87035608D01*
X152068175Y-87035608D02*
X152098841Y-87004941D01*
X152098841Y-87004941D02*
X152160175Y-86974274D01*
X110780175Y-77618274D02*
X110780175Y-76974274D01*
X110780175Y-76974274D02*
X110933508Y-76974274D01*
X110933508Y-76974274D02*
X111025508Y-77004941D01*
X111025508Y-77004941D02*
X111086842Y-77066274D01*
X111086842Y-77066274D02*
X111117508Y-77127608D01*
X111117508Y-77127608D02*
X111148175Y-77250274D01*
X111148175Y-77250274D02*
X111148175Y-77342274D01*
X111148175Y-77342274D02*
X111117508Y-77464941D01*
X111117508Y-77464941D02*
X111086842Y-77526274D01*
X111086842Y-77526274D02*
X111025508Y-77587608D01*
X111025508Y-77587608D02*
X110933508Y-77618274D01*
X110933508Y-77618274D02*
X110780175Y-77618274D01*
X111761508Y-77618274D02*
X111393508Y-77618274D01*
X111577508Y-77618274D02*
X111577508Y-76974274D01*
X111577508Y-76974274D02*
X111516175Y-77066274D01*
X111516175Y-77066274D02*
X111454842Y-77127608D01*
X111454842Y-77127608D02*
X111393508Y-77158274D01*
X112374841Y-77618274D02*
X112006841Y-77618274D01*
X112190841Y-77618274D02*
X112190841Y-76974274D01*
X112190841Y-76974274D02*
X112129508Y-77066274D01*
X112129508Y-77066274D02*
X112068175Y-77127608D01*
X112068175Y-77127608D02*
X112006841Y-77158274D01*
D13*
X141841804Y-119759160D02*
X142038947Y-119824874D01*
X142038947Y-119824874D02*
X142367518Y-119824874D01*
X142367518Y-119824874D02*
X142498947Y-119759160D01*
X142498947Y-119759160D02*
X142564661Y-119693445D01*
X142564661Y-119693445D02*
X142630375Y-119562017D01*
X142630375Y-119562017D02*
X142630375Y-119430588D01*
X142630375Y-119430588D02*
X142564661Y-119299160D01*
X142564661Y-119299160D02*
X142498947Y-119233445D01*
X142498947Y-119233445D02*
X142367518Y-119167731D01*
X142367518Y-119167731D02*
X142104661Y-119102017D01*
X142104661Y-119102017D02*
X141973232Y-119036302D01*
X141973232Y-119036302D02*
X141907518Y-118970588D01*
X141907518Y-118970588D02*
X141841804Y-118839160D01*
X141841804Y-118839160D02*
X141841804Y-118707731D01*
X141841804Y-118707731D02*
X141907518Y-118576302D01*
X141907518Y-118576302D02*
X141973232Y-118510588D01*
X141973232Y-118510588D02*
X142104661Y-118444874D01*
X142104661Y-118444874D02*
X142433232Y-118444874D01*
X142433232Y-118444874D02*
X142630375Y-118510588D01*
X143090375Y-118444874D02*
X143944661Y-118444874D01*
X143944661Y-118444874D02*
X143484661Y-118970588D01*
X143484661Y-118970588D02*
X143681804Y-118970588D01*
X143681804Y-118970588D02*
X143813233Y-119036302D01*
X143813233Y-119036302D02*
X143878947Y-119102017D01*
X143878947Y-119102017D02*
X143944661Y-119233445D01*
X143944661Y-119233445D02*
X143944661Y-119562017D01*
X143944661Y-119562017D02*
X143878947Y-119693445D01*
X143878947Y-119693445D02*
X143813233Y-119759160D01*
X143813233Y-119759160D02*
X143681804Y-119824874D01*
X143681804Y-119824874D02*
X143287518Y-119824874D01*
X143287518Y-119824874D02*
X143156090Y-119759160D01*
X143156090Y-119759160D02*
X143090375Y-119693445D01*
D12*
X110780175Y-97618274D02*
X110780175Y-96974274D01*
X110780175Y-96974274D02*
X110933508Y-96974274D01*
X110933508Y-96974274D02*
X111025508Y-97004941D01*
X111025508Y-97004941D02*
X111086842Y-97066274D01*
X111086842Y-97066274D02*
X111117508Y-97127608D01*
X111117508Y-97127608D02*
X111148175Y-97250274D01*
X111148175Y-97250274D02*
X111148175Y-97342274D01*
X111148175Y-97342274D02*
X111117508Y-97464941D01*
X111117508Y-97464941D02*
X111086842Y-97526274D01*
X111086842Y-97526274D02*
X111025508Y-97587608D01*
X111025508Y-97587608D02*
X110933508Y-97618274D01*
X110933508Y-97618274D02*
X110780175Y-97618274D01*
X111393508Y-97035608D02*
X111424175Y-97004941D01*
X111424175Y-97004941D02*
X111485508Y-96974274D01*
X111485508Y-96974274D02*
X111638842Y-96974274D01*
X111638842Y-96974274D02*
X111700175Y-97004941D01*
X111700175Y-97004941D02*
X111730842Y-97035608D01*
X111730842Y-97035608D02*
X111761508Y-97096941D01*
X111761508Y-97096941D02*
X111761508Y-97158274D01*
X111761508Y-97158274D02*
X111730842Y-97250274D01*
X111730842Y-97250274D02*
X111362842Y-97618274D01*
X111362842Y-97618274D02*
X111761508Y-97618274D01*
X112374841Y-97618274D02*
X112006841Y-97618274D01*
X112190841Y-97618274D02*
X112190841Y-96974274D01*
X112190841Y-96974274D02*
X112129508Y-97066274D01*
X112129508Y-97066274D02*
X112068175Y-97127608D01*
X112068175Y-97127608D02*
X112006841Y-97158274D01*
X120780175Y-77618274D02*
X120780175Y-76974274D01*
X120780175Y-76974274D02*
X120933508Y-76974274D01*
X120933508Y-76974274D02*
X121025508Y-77004941D01*
X121025508Y-77004941D02*
X121086842Y-77066274D01*
X121086842Y-77066274D02*
X121117508Y-77127608D01*
X121117508Y-77127608D02*
X121148175Y-77250274D01*
X121148175Y-77250274D02*
X121148175Y-77342274D01*
X121148175Y-77342274D02*
X121117508Y-77464941D01*
X121117508Y-77464941D02*
X121086842Y-77526274D01*
X121086842Y-77526274D02*
X121025508Y-77587608D01*
X121025508Y-77587608D02*
X120933508Y-77618274D01*
X120933508Y-77618274D02*
X120780175Y-77618274D01*
X121761508Y-77618274D02*
X121393508Y-77618274D01*
X121577508Y-77618274D02*
X121577508Y-76974274D01*
X121577508Y-76974274D02*
X121516175Y-77066274D01*
X121516175Y-77066274D02*
X121454842Y-77127608D01*
X121454842Y-77127608D02*
X121393508Y-77158274D01*
X122006841Y-77035608D02*
X122037508Y-77004941D01*
X122037508Y-77004941D02*
X122098841Y-76974274D01*
X122098841Y-76974274D02*
X122252175Y-76974274D01*
X122252175Y-76974274D02*
X122313508Y-77004941D01*
X122313508Y-77004941D02*
X122344175Y-77035608D01*
X122344175Y-77035608D02*
X122374841Y-77096941D01*
X122374841Y-77096941D02*
X122374841Y-77158274D01*
X122374841Y-77158274D02*
X122344175Y-77250274D01*
X122344175Y-77250274D02*
X121976175Y-77618274D01*
X121976175Y-77618274D02*
X122374841Y-77618274D01*
X110780175Y-67618274D02*
X110780175Y-66974274D01*
X110780175Y-66974274D02*
X110933508Y-66974274D01*
X110933508Y-66974274D02*
X111025508Y-67004941D01*
X111025508Y-67004941D02*
X111086842Y-67066274D01*
X111086842Y-67066274D02*
X111117508Y-67127608D01*
X111117508Y-67127608D02*
X111148175Y-67250274D01*
X111148175Y-67250274D02*
X111148175Y-67342274D01*
X111148175Y-67342274D02*
X111117508Y-67464941D01*
X111117508Y-67464941D02*
X111086842Y-67526274D01*
X111086842Y-67526274D02*
X111025508Y-67587608D01*
X111025508Y-67587608D02*
X110933508Y-67618274D01*
X110933508Y-67618274D02*
X110780175Y-67618274D01*
X111700175Y-66974274D02*
X111577508Y-66974274D01*
X111577508Y-66974274D02*
X111516175Y-67004941D01*
X111516175Y-67004941D02*
X111485508Y-67035608D01*
X111485508Y-67035608D02*
X111424175Y-67127608D01*
X111424175Y-67127608D02*
X111393508Y-67250274D01*
X111393508Y-67250274D02*
X111393508Y-67495608D01*
X111393508Y-67495608D02*
X111424175Y-67556941D01*
X111424175Y-67556941D02*
X111454842Y-67587608D01*
X111454842Y-67587608D02*
X111516175Y-67618274D01*
X111516175Y-67618274D02*
X111638842Y-67618274D01*
X111638842Y-67618274D02*
X111700175Y-67587608D01*
X111700175Y-67587608D02*
X111730842Y-67556941D01*
X111730842Y-67556941D02*
X111761508Y-67495608D01*
X111761508Y-67495608D02*
X111761508Y-67342274D01*
X111761508Y-67342274D02*
X111730842Y-67280941D01*
X111730842Y-67280941D02*
X111700175Y-67250274D01*
X111700175Y-67250274D02*
X111638842Y-67219608D01*
X111638842Y-67219608D02*
X111516175Y-67219608D01*
X111516175Y-67219608D02*
X111454842Y-67250274D01*
X111454842Y-67250274D02*
X111424175Y-67280941D01*
X111424175Y-67280941D02*
X111393508Y-67342274D01*
X130780175Y-77618274D02*
X130780175Y-76974274D01*
X130780175Y-76974274D02*
X130933508Y-76974274D01*
X130933508Y-76974274D02*
X131025508Y-77004941D01*
X131025508Y-77004941D02*
X131086842Y-77066274D01*
X131086842Y-77066274D02*
X131117508Y-77127608D01*
X131117508Y-77127608D02*
X131148175Y-77250274D01*
X131148175Y-77250274D02*
X131148175Y-77342274D01*
X131148175Y-77342274D02*
X131117508Y-77464941D01*
X131117508Y-77464941D02*
X131086842Y-77526274D01*
X131086842Y-77526274D02*
X131025508Y-77587608D01*
X131025508Y-77587608D02*
X130933508Y-77618274D01*
X130933508Y-77618274D02*
X130780175Y-77618274D01*
X131761508Y-77618274D02*
X131393508Y-77618274D01*
X131577508Y-77618274D02*
X131577508Y-76974274D01*
X131577508Y-76974274D02*
X131516175Y-77066274D01*
X131516175Y-77066274D02*
X131454842Y-77127608D01*
X131454842Y-77127608D02*
X131393508Y-77158274D01*
X131976175Y-76974274D02*
X132374841Y-76974274D01*
X132374841Y-76974274D02*
X132160175Y-77219608D01*
X132160175Y-77219608D02*
X132252175Y-77219608D01*
X132252175Y-77219608D02*
X132313508Y-77250274D01*
X132313508Y-77250274D02*
X132344175Y-77280941D01*
X132344175Y-77280941D02*
X132374841Y-77342274D01*
X132374841Y-77342274D02*
X132374841Y-77495608D01*
X132374841Y-77495608D02*
X132344175Y-77556941D01*
X132344175Y-77556941D02*
X132313508Y-77587608D01*
X132313508Y-77587608D02*
X132252175Y-77618274D01*
X132252175Y-77618274D02*
X132068175Y-77618274D01*
X132068175Y-77618274D02*
X132006841Y-77587608D01*
X132006841Y-77587608D02*
X131976175Y-77556941D01*
X150780175Y-67618274D02*
X150780175Y-66974274D01*
X150780175Y-66974274D02*
X150933508Y-66974274D01*
X150933508Y-66974274D02*
X151025508Y-67004941D01*
X151025508Y-67004941D02*
X151086842Y-67066274D01*
X151086842Y-67066274D02*
X151117508Y-67127608D01*
X151117508Y-67127608D02*
X151148175Y-67250274D01*
X151148175Y-67250274D02*
X151148175Y-67342274D01*
X151148175Y-67342274D02*
X151117508Y-67464941D01*
X151117508Y-67464941D02*
X151086842Y-67526274D01*
X151086842Y-67526274D02*
X151025508Y-67587608D01*
X151025508Y-67587608D02*
X150933508Y-67618274D01*
X150933508Y-67618274D02*
X150780175Y-67618274D01*
X151761508Y-67618274D02*
X151393508Y-67618274D01*
X151577508Y-67618274D02*
X151577508Y-66974274D01*
X151577508Y-66974274D02*
X151516175Y-67066274D01*
X151516175Y-67066274D02*
X151454842Y-67127608D01*
X151454842Y-67127608D02*
X151393508Y-67158274D01*
X152160175Y-66974274D02*
X152221508Y-66974274D01*
X152221508Y-66974274D02*
X152282841Y-67004941D01*
X152282841Y-67004941D02*
X152313508Y-67035608D01*
X152313508Y-67035608D02*
X152344175Y-67096941D01*
X152344175Y-67096941D02*
X152374841Y-67219608D01*
X152374841Y-67219608D02*
X152374841Y-67372941D01*
X152374841Y-67372941D02*
X152344175Y-67495608D01*
X152344175Y-67495608D02*
X152313508Y-67556941D01*
X152313508Y-67556941D02*
X152282841Y-67587608D01*
X152282841Y-67587608D02*
X152221508Y-67618274D01*
X152221508Y-67618274D02*
X152160175Y-67618274D01*
X152160175Y-67618274D02*
X152098841Y-67587608D01*
X152098841Y-67587608D02*
X152068175Y-67556941D01*
X152068175Y-67556941D02*
X152037508Y-67495608D01*
X152037508Y-67495608D02*
X152006841Y-67372941D01*
X152006841Y-67372941D02*
X152006841Y-67219608D01*
X152006841Y-67219608D02*
X152037508Y-67096941D01*
X152037508Y-67096941D02*
X152068175Y-67035608D01*
X152068175Y-67035608D02*
X152098841Y-67004941D01*
X152098841Y-67004941D02*
X152160175Y-66974274D01*
X120780175Y-67618274D02*
X120780175Y-66974274D01*
X120780175Y-66974274D02*
X120933508Y-66974274D01*
X120933508Y-66974274D02*
X121025508Y-67004941D01*
X121025508Y-67004941D02*
X121086842Y-67066274D01*
X121086842Y-67066274D02*
X121117508Y-67127608D01*
X121117508Y-67127608D02*
X121148175Y-67250274D01*
X121148175Y-67250274D02*
X121148175Y-67342274D01*
X121148175Y-67342274D02*
X121117508Y-67464941D01*
X121117508Y-67464941D02*
X121086842Y-67526274D01*
X121086842Y-67526274D02*
X121025508Y-67587608D01*
X121025508Y-67587608D02*
X120933508Y-67618274D01*
X120933508Y-67618274D02*
X120780175Y-67618274D01*
X121362842Y-66974274D02*
X121792175Y-66974274D01*
X121792175Y-66974274D02*
X121516175Y-67618274D01*
X140780175Y-57618274D02*
X140780175Y-56974274D01*
X140780175Y-56974274D02*
X140933508Y-56974274D01*
X140933508Y-56974274D02*
X141025508Y-57004941D01*
X141025508Y-57004941D02*
X141086842Y-57066274D01*
X141086842Y-57066274D02*
X141117508Y-57127608D01*
X141117508Y-57127608D02*
X141148175Y-57250274D01*
X141148175Y-57250274D02*
X141148175Y-57342274D01*
X141148175Y-57342274D02*
X141117508Y-57464941D01*
X141117508Y-57464941D02*
X141086842Y-57526274D01*
X141086842Y-57526274D02*
X141025508Y-57587608D01*
X141025508Y-57587608D02*
X140933508Y-57618274D01*
X140933508Y-57618274D02*
X140780175Y-57618274D01*
X141700175Y-57188941D02*
X141700175Y-57618274D01*
X141546842Y-56943608D02*
X141393508Y-57403608D01*
X141393508Y-57403608D02*
X141792175Y-57403608D01*
X140780175Y-67618274D02*
X140780175Y-66974274D01*
X140780175Y-66974274D02*
X140933508Y-66974274D01*
X140933508Y-66974274D02*
X141025508Y-67004941D01*
X141025508Y-67004941D02*
X141086842Y-67066274D01*
X141086842Y-67066274D02*
X141117508Y-67127608D01*
X141117508Y-67127608D02*
X141148175Y-67250274D01*
X141148175Y-67250274D02*
X141148175Y-67342274D01*
X141148175Y-67342274D02*
X141117508Y-67464941D01*
X141117508Y-67464941D02*
X141086842Y-67526274D01*
X141086842Y-67526274D02*
X141025508Y-67587608D01*
X141025508Y-67587608D02*
X140933508Y-67618274D01*
X140933508Y-67618274D02*
X140780175Y-67618274D01*
X141454842Y-67618274D02*
X141577508Y-67618274D01*
X141577508Y-67618274D02*
X141638842Y-67587608D01*
X141638842Y-67587608D02*
X141669508Y-67556941D01*
X141669508Y-67556941D02*
X141730842Y-67464941D01*
X141730842Y-67464941D02*
X141761508Y-67342274D01*
X141761508Y-67342274D02*
X141761508Y-67096941D01*
X141761508Y-67096941D02*
X141730842Y-67035608D01*
X141730842Y-67035608D02*
X141700175Y-67004941D01*
X141700175Y-67004941D02*
X141638842Y-66974274D01*
X141638842Y-66974274D02*
X141516175Y-66974274D01*
X141516175Y-66974274D02*
X141454842Y-67004941D01*
X141454842Y-67004941D02*
X141424175Y-67035608D01*
X141424175Y-67035608D02*
X141393508Y-67096941D01*
X141393508Y-67096941D02*
X141393508Y-67250274D01*
X141393508Y-67250274D02*
X141424175Y-67311608D01*
X141424175Y-67311608D02*
X141454842Y-67342274D01*
X141454842Y-67342274D02*
X141516175Y-67372941D01*
X141516175Y-67372941D02*
X141638842Y-67372941D01*
X141638842Y-67372941D02*
X141700175Y-67342274D01*
X141700175Y-67342274D02*
X141730842Y-67311608D01*
X141730842Y-67311608D02*
X141761508Y-67250274D01*
X110780175Y-57618274D02*
X110780175Y-56974274D01*
X110780175Y-56974274D02*
X110933508Y-56974274D01*
X110933508Y-56974274D02*
X111025508Y-57004941D01*
X111025508Y-57004941D02*
X111086842Y-57066274D01*
X111086842Y-57066274D02*
X111117508Y-57127608D01*
X111117508Y-57127608D02*
X111148175Y-57250274D01*
X111148175Y-57250274D02*
X111148175Y-57342274D01*
X111148175Y-57342274D02*
X111117508Y-57464941D01*
X111117508Y-57464941D02*
X111086842Y-57526274D01*
X111086842Y-57526274D02*
X111025508Y-57587608D01*
X111025508Y-57587608D02*
X110933508Y-57618274D01*
X110933508Y-57618274D02*
X110780175Y-57618274D01*
X111761508Y-57618274D02*
X111393508Y-57618274D01*
X111577508Y-57618274D02*
X111577508Y-56974274D01*
X111577508Y-56974274D02*
X111516175Y-57066274D01*
X111516175Y-57066274D02*
X111454842Y-57127608D01*
X111454842Y-57127608D02*
X111393508Y-57158274D01*
X130780175Y-97618274D02*
X130780175Y-96974274D01*
X130780175Y-96974274D02*
X130933508Y-96974274D01*
X130933508Y-96974274D02*
X131025508Y-97004941D01*
X131025508Y-97004941D02*
X131086842Y-97066274D01*
X131086842Y-97066274D02*
X131117508Y-97127608D01*
X131117508Y-97127608D02*
X131148175Y-97250274D01*
X131148175Y-97250274D02*
X131148175Y-97342274D01*
X131148175Y-97342274D02*
X131117508Y-97464941D01*
X131117508Y-97464941D02*
X131086842Y-97526274D01*
X131086842Y-97526274D02*
X131025508Y-97587608D01*
X131025508Y-97587608D02*
X130933508Y-97618274D01*
X130933508Y-97618274D02*
X130780175Y-97618274D01*
X131393508Y-97035608D02*
X131424175Y-97004941D01*
X131424175Y-97004941D02*
X131485508Y-96974274D01*
X131485508Y-96974274D02*
X131638842Y-96974274D01*
X131638842Y-96974274D02*
X131700175Y-97004941D01*
X131700175Y-97004941D02*
X131730842Y-97035608D01*
X131730842Y-97035608D02*
X131761508Y-97096941D01*
X131761508Y-97096941D02*
X131761508Y-97158274D01*
X131761508Y-97158274D02*
X131730842Y-97250274D01*
X131730842Y-97250274D02*
X131362842Y-97618274D01*
X131362842Y-97618274D02*
X131761508Y-97618274D01*
X131976175Y-96974274D02*
X132374841Y-96974274D01*
X132374841Y-96974274D02*
X132160175Y-97219608D01*
X132160175Y-97219608D02*
X132252175Y-97219608D01*
X132252175Y-97219608D02*
X132313508Y-97250274D01*
X132313508Y-97250274D02*
X132344175Y-97280941D01*
X132344175Y-97280941D02*
X132374841Y-97342274D01*
X132374841Y-97342274D02*
X132374841Y-97495608D01*
X132374841Y-97495608D02*
X132344175Y-97556941D01*
X132344175Y-97556941D02*
X132313508Y-97587608D01*
X132313508Y-97587608D02*
X132252175Y-97618274D01*
X132252175Y-97618274D02*
X132068175Y-97618274D01*
X132068175Y-97618274D02*
X132006841Y-97587608D01*
X132006841Y-97587608D02*
X131976175Y-97556941D01*
X150780175Y-57618274D02*
X150780175Y-56974274D01*
X150780175Y-56974274D02*
X150933508Y-56974274D01*
X150933508Y-56974274D02*
X151025508Y-57004941D01*
X151025508Y-57004941D02*
X151086842Y-57066274D01*
X151086842Y-57066274D02*
X151117508Y-57127608D01*
X151117508Y-57127608D02*
X151148175Y-57250274D01*
X151148175Y-57250274D02*
X151148175Y-57342274D01*
X151148175Y-57342274D02*
X151117508Y-57464941D01*
X151117508Y-57464941D02*
X151086842Y-57526274D01*
X151086842Y-57526274D02*
X151025508Y-57587608D01*
X151025508Y-57587608D02*
X150933508Y-57618274D01*
X150933508Y-57618274D02*
X150780175Y-57618274D01*
X151730842Y-56974274D02*
X151424175Y-56974274D01*
X151424175Y-56974274D02*
X151393508Y-57280941D01*
X151393508Y-57280941D02*
X151424175Y-57250274D01*
X151424175Y-57250274D02*
X151485508Y-57219608D01*
X151485508Y-57219608D02*
X151638842Y-57219608D01*
X151638842Y-57219608D02*
X151700175Y-57250274D01*
X151700175Y-57250274D02*
X151730842Y-57280941D01*
X151730842Y-57280941D02*
X151761508Y-57342274D01*
X151761508Y-57342274D02*
X151761508Y-57495608D01*
X151761508Y-57495608D02*
X151730842Y-57556941D01*
X151730842Y-57556941D02*
X151700175Y-57587608D01*
X151700175Y-57587608D02*
X151638842Y-57618274D01*
X151638842Y-57618274D02*
X151485508Y-57618274D01*
X151485508Y-57618274D02*
X151424175Y-57587608D01*
X151424175Y-57587608D02*
X151393508Y-57556941D01*
X130780175Y-67618274D02*
X130780175Y-66974274D01*
X130780175Y-66974274D02*
X130933508Y-66974274D01*
X130933508Y-66974274D02*
X131025508Y-67004941D01*
X131025508Y-67004941D02*
X131086842Y-67066274D01*
X131086842Y-67066274D02*
X131117508Y-67127608D01*
X131117508Y-67127608D02*
X131148175Y-67250274D01*
X131148175Y-67250274D02*
X131148175Y-67342274D01*
X131148175Y-67342274D02*
X131117508Y-67464941D01*
X131117508Y-67464941D02*
X131086842Y-67526274D01*
X131086842Y-67526274D02*
X131025508Y-67587608D01*
X131025508Y-67587608D02*
X130933508Y-67618274D01*
X130933508Y-67618274D02*
X130780175Y-67618274D01*
X131516175Y-67250274D02*
X131454842Y-67219608D01*
X131454842Y-67219608D02*
X131424175Y-67188941D01*
X131424175Y-67188941D02*
X131393508Y-67127608D01*
X131393508Y-67127608D02*
X131393508Y-67096941D01*
X131393508Y-67096941D02*
X131424175Y-67035608D01*
X131424175Y-67035608D02*
X131454842Y-67004941D01*
X131454842Y-67004941D02*
X131516175Y-66974274D01*
X131516175Y-66974274D02*
X131638842Y-66974274D01*
X131638842Y-66974274D02*
X131700175Y-67004941D01*
X131700175Y-67004941D02*
X131730842Y-67035608D01*
X131730842Y-67035608D02*
X131761508Y-67096941D01*
X131761508Y-67096941D02*
X131761508Y-67127608D01*
X131761508Y-67127608D02*
X131730842Y-67188941D01*
X131730842Y-67188941D02*
X131700175Y-67219608D01*
X131700175Y-67219608D02*
X131638842Y-67250274D01*
X131638842Y-67250274D02*
X131516175Y-67250274D01*
X131516175Y-67250274D02*
X131454842Y-67280941D01*
X131454842Y-67280941D02*
X131424175Y-67311608D01*
X131424175Y-67311608D02*
X131393508Y-67372941D01*
X131393508Y-67372941D02*
X131393508Y-67495608D01*
X131393508Y-67495608D02*
X131424175Y-67556941D01*
X131424175Y-67556941D02*
X131454842Y-67587608D01*
X131454842Y-67587608D02*
X131516175Y-67618274D01*
X131516175Y-67618274D02*
X131638842Y-67618274D01*
X131638842Y-67618274D02*
X131700175Y-67587608D01*
X131700175Y-67587608D02*
X131730842Y-67556941D01*
X131730842Y-67556941D02*
X131761508Y-67495608D01*
X131761508Y-67495608D02*
X131761508Y-67372941D01*
X131761508Y-67372941D02*
X131730842Y-67311608D01*
X131730842Y-67311608D02*
X131700175Y-67280941D01*
X131700175Y-67280941D02*
X131638842Y-67250274D01*
D15*
X120775689Y-141619299D02*
X121347117Y-141619299D01*
X121061403Y-142619299D02*
X121061403Y-141619299D01*
X121585213Y-141619299D02*
X122204260Y-141619299D01*
X122204260Y-141619299D02*
X121870927Y-142000251D01*
X121870927Y-142000251D02*
X122013784Y-142000251D01*
X122013784Y-142000251D02*
X122109022Y-142047870D01*
X122109022Y-142047870D02*
X122156641Y-142095489D01*
X122156641Y-142095489D02*
X122204260Y-142190727D01*
X122204260Y-142190727D02*
X122204260Y-142428822D01*
X122204260Y-142428822D02*
X122156641Y-142524060D01*
X122156641Y-142524060D02*
X122109022Y-142571680D01*
X122109022Y-142571680D02*
X122013784Y-142619299D01*
X122013784Y-142619299D02*
X121728070Y-142619299D01*
X121728070Y-142619299D02*
X121632832Y-142571680D01*
X121632832Y-142571680D02*
X121585213Y-142524060D01*
D13*
X125055375Y-131134874D02*
X125843947Y-131134874D01*
X125449661Y-132514874D02*
X125449661Y-131134874D01*
X127026804Y-132514874D02*
X126238233Y-132514874D01*
X126632518Y-132514874D02*
X126632518Y-131134874D01*
X126632518Y-131134874D02*
X126501090Y-131332017D01*
X126501090Y-131332017D02*
X126369661Y-131463445D01*
X126369661Y-131463445D02*
X126238233Y-131529160D01*
D12*
X120780175Y-97618274D02*
X120780175Y-96974274D01*
X120780175Y-96974274D02*
X120933508Y-96974274D01*
X120933508Y-96974274D02*
X121025508Y-97004941D01*
X121025508Y-97004941D02*
X121086842Y-97066274D01*
X121086842Y-97066274D02*
X121117508Y-97127608D01*
X121117508Y-97127608D02*
X121148175Y-97250274D01*
X121148175Y-97250274D02*
X121148175Y-97342274D01*
X121148175Y-97342274D02*
X121117508Y-97464941D01*
X121117508Y-97464941D02*
X121086842Y-97526274D01*
X121086842Y-97526274D02*
X121025508Y-97587608D01*
X121025508Y-97587608D02*
X120933508Y-97618274D01*
X120933508Y-97618274D02*
X120780175Y-97618274D01*
X121393508Y-97035608D02*
X121424175Y-97004941D01*
X121424175Y-97004941D02*
X121485508Y-96974274D01*
X121485508Y-96974274D02*
X121638842Y-96974274D01*
X121638842Y-96974274D02*
X121700175Y-97004941D01*
X121700175Y-97004941D02*
X121730842Y-97035608D01*
X121730842Y-97035608D02*
X121761508Y-97096941D01*
X121761508Y-97096941D02*
X121761508Y-97158274D01*
X121761508Y-97158274D02*
X121730842Y-97250274D01*
X121730842Y-97250274D02*
X121362842Y-97618274D01*
X121362842Y-97618274D02*
X121761508Y-97618274D01*
X122006841Y-97035608D02*
X122037508Y-97004941D01*
X122037508Y-97004941D02*
X122098841Y-96974274D01*
X122098841Y-96974274D02*
X122252175Y-96974274D01*
X122252175Y-96974274D02*
X122313508Y-97004941D01*
X122313508Y-97004941D02*
X122344175Y-97035608D01*
X122344175Y-97035608D02*
X122374841Y-97096941D01*
X122374841Y-97096941D02*
X122374841Y-97158274D01*
X122374841Y-97158274D02*
X122344175Y-97250274D01*
X122344175Y-97250274D02*
X121976175Y-97618274D01*
X121976175Y-97618274D02*
X122374841Y-97618274D01*
D13*
X124841804Y-119759160D02*
X125038947Y-119824874D01*
X125038947Y-119824874D02*
X125367518Y-119824874D01*
X125367518Y-119824874D02*
X125498947Y-119759160D01*
X125498947Y-119759160D02*
X125564661Y-119693445D01*
X125564661Y-119693445D02*
X125630375Y-119562017D01*
X125630375Y-119562017D02*
X125630375Y-119430588D01*
X125630375Y-119430588D02*
X125564661Y-119299160D01*
X125564661Y-119299160D02*
X125498947Y-119233445D01*
X125498947Y-119233445D02*
X125367518Y-119167731D01*
X125367518Y-119167731D02*
X125104661Y-119102017D01*
X125104661Y-119102017D02*
X124973232Y-119036302D01*
X124973232Y-119036302D02*
X124907518Y-118970588D01*
X124907518Y-118970588D02*
X124841804Y-118839160D01*
X124841804Y-118839160D02*
X124841804Y-118707731D01*
X124841804Y-118707731D02*
X124907518Y-118576302D01*
X124907518Y-118576302D02*
X124973232Y-118510588D01*
X124973232Y-118510588D02*
X125104661Y-118444874D01*
X125104661Y-118444874D02*
X125433232Y-118444874D01*
X125433232Y-118444874D02*
X125630375Y-118510588D01*
X126156090Y-118576302D02*
X126221804Y-118510588D01*
X126221804Y-118510588D02*
X126353233Y-118444874D01*
X126353233Y-118444874D02*
X126681804Y-118444874D01*
X126681804Y-118444874D02*
X126813233Y-118510588D01*
X126813233Y-118510588D02*
X126878947Y-118576302D01*
X126878947Y-118576302D02*
X126944661Y-118707731D01*
X126944661Y-118707731D02*
X126944661Y-118839160D01*
X126944661Y-118839160D02*
X126878947Y-119036302D01*
X126878947Y-119036302D02*
X126090375Y-119824874D01*
X126090375Y-119824874D02*
X126944661Y-119824874D01*
D12*
X120780175Y-87618274D02*
X120780175Y-86974274D01*
X120780175Y-86974274D02*
X120933508Y-86974274D01*
X120933508Y-86974274D02*
X121025508Y-87004941D01*
X121025508Y-87004941D02*
X121086842Y-87066274D01*
X121086842Y-87066274D02*
X121117508Y-87127608D01*
X121117508Y-87127608D02*
X121148175Y-87250274D01*
X121148175Y-87250274D02*
X121148175Y-87342274D01*
X121148175Y-87342274D02*
X121117508Y-87464941D01*
X121117508Y-87464941D02*
X121086842Y-87526274D01*
X121086842Y-87526274D02*
X121025508Y-87587608D01*
X121025508Y-87587608D02*
X120933508Y-87618274D01*
X120933508Y-87618274D02*
X120780175Y-87618274D01*
X121761508Y-87618274D02*
X121393508Y-87618274D01*
X121577508Y-87618274D02*
X121577508Y-86974274D01*
X121577508Y-86974274D02*
X121516175Y-87066274D01*
X121516175Y-87066274D02*
X121454842Y-87127608D01*
X121454842Y-87127608D02*
X121393508Y-87158274D01*
X121976175Y-86974274D02*
X122405508Y-86974274D01*
X122405508Y-86974274D02*
X122129508Y-87618274D01*
D16*
%TO.C,D15*%
X150590000Y-78000000D02*
X155990000Y-78000000D01*
X150590000Y-83000000D02*
X150590000Y-78000000D01*
X151490000Y-78400000D02*
X150590000Y-78400000D01*
X151490000Y-79300000D02*
X150590000Y-79300000D01*
X151490000Y-79300000D02*
X151490000Y-78400000D01*
X151490000Y-81700000D02*
X150590000Y-81700000D01*
X151490000Y-82600000D02*
X150590000Y-82600000D01*
X151490000Y-82600000D02*
X151490000Y-81700000D01*
X155090000Y-78400000D02*
X155990000Y-78400000D01*
X155090000Y-79300000D02*
X155090000Y-78400000D01*
X155090000Y-79300000D02*
X155990000Y-79300000D01*
X155090000Y-81700000D02*
X155990000Y-81700000D01*
X155090000Y-82600000D02*
X155090000Y-81700000D01*
X155090000Y-82600000D02*
X155990000Y-82600000D01*
X155990000Y-78000000D02*
X155990000Y-83000000D01*
X155990000Y-83000000D02*
X150590000Y-83000000D01*
X154710000Y-82405000D02*
G75*
G03*
X154710000Y-82405000I-150000J0D01*
G01*
%TO.C,D18*%
X130590000Y-88000000D02*
X135990000Y-88000000D01*
X130590000Y-93000000D02*
X130590000Y-88000000D01*
X131490000Y-88400000D02*
X130590000Y-88400000D01*
X131490000Y-89300000D02*
X130590000Y-89300000D01*
X131490000Y-89300000D02*
X131490000Y-88400000D01*
X131490000Y-91700000D02*
X130590000Y-91700000D01*
X131490000Y-92600000D02*
X130590000Y-92600000D01*
X131490000Y-92600000D02*
X131490000Y-91700000D01*
X135090000Y-88400000D02*
X135990000Y-88400000D01*
X135090000Y-89300000D02*
X135090000Y-88400000D01*
X135090000Y-89300000D02*
X135990000Y-89300000D01*
X135090000Y-91700000D02*
X135990000Y-91700000D01*
X135090000Y-92600000D02*
X135090000Y-91700000D01*
X135090000Y-92600000D02*
X135990000Y-92600000D01*
X135990000Y-88000000D02*
X135990000Y-93000000D01*
X135990000Y-93000000D02*
X130590000Y-93000000D01*
X134710000Y-92405000D02*
G75*
G03*
X134710000Y-92405000I-150000J0D01*
G01*
%TO.C,S1*%
X110290000Y-108000000D02*
X122290000Y-108000000D01*
X110290000Y-120000000D02*
X110290000Y-108000000D01*
X122290000Y-108000000D02*
X122290000Y-120000000D01*
X122290000Y-120000000D02*
X110290000Y-120000000D01*
%TO.C,D3*%
X130590000Y-58000000D02*
X135990000Y-58000000D01*
X130590000Y-63000000D02*
X130590000Y-58000000D01*
X131490000Y-58400000D02*
X130590000Y-58400000D01*
X131490000Y-59300000D02*
X130590000Y-59300000D01*
X131490000Y-59300000D02*
X131490000Y-58400000D01*
X131490000Y-61700000D02*
X130590000Y-61700000D01*
X131490000Y-62600000D02*
X130590000Y-62600000D01*
X131490000Y-62600000D02*
X131490000Y-61700000D01*
X135090000Y-58400000D02*
X135990000Y-58400000D01*
X135090000Y-59300000D02*
X135090000Y-58400000D01*
X135090000Y-59300000D02*
X135990000Y-59300000D01*
X135090000Y-61700000D02*
X135990000Y-61700000D01*
X135090000Y-62600000D02*
X135090000Y-61700000D01*
X135090000Y-62600000D02*
X135990000Y-62600000D01*
X135990000Y-58000000D02*
X135990000Y-63000000D01*
X135990000Y-63000000D02*
X130590000Y-63000000D01*
X134710000Y-62405000D02*
G75*
G03*
X134710000Y-62405000I-150000J0D01*
G01*
%TO.C,D19*%
X140590000Y-88000000D02*
X145990000Y-88000000D01*
X140590000Y-93000000D02*
X140590000Y-88000000D01*
X141490000Y-88400000D02*
X140590000Y-88400000D01*
X141490000Y-89300000D02*
X140590000Y-89300000D01*
X141490000Y-89300000D02*
X141490000Y-88400000D01*
X141490000Y-91700000D02*
X140590000Y-91700000D01*
X141490000Y-92600000D02*
X140590000Y-92600000D01*
X141490000Y-92600000D02*
X141490000Y-91700000D01*
X145090000Y-88400000D02*
X145990000Y-88400000D01*
X145090000Y-89300000D02*
X145090000Y-88400000D01*
X145090000Y-89300000D02*
X145990000Y-89300000D01*
X145090000Y-91700000D02*
X145990000Y-91700000D01*
X145090000Y-92600000D02*
X145090000Y-91700000D01*
X145090000Y-92600000D02*
X145990000Y-92600000D01*
X145990000Y-88000000D02*
X145990000Y-93000000D01*
X145990000Y-93000000D02*
X140590000Y-93000000D01*
X144710000Y-92405000D02*
G75*
G03*
X144710000Y-92405000I-150000J0D01*
G01*
%TO.C,D16*%
X110590000Y-88000000D02*
X115990000Y-88000000D01*
X110590000Y-93000000D02*
X110590000Y-88000000D01*
X111490000Y-88400000D02*
X110590000Y-88400000D01*
X111490000Y-89300000D02*
X110590000Y-89300000D01*
X111490000Y-89300000D02*
X111490000Y-88400000D01*
X111490000Y-91700000D02*
X110590000Y-91700000D01*
X111490000Y-92600000D02*
X110590000Y-92600000D01*
X111490000Y-92600000D02*
X111490000Y-91700000D01*
X115090000Y-88400000D02*
X115990000Y-88400000D01*
X115090000Y-89300000D02*
X115090000Y-88400000D01*
X115090000Y-89300000D02*
X115990000Y-89300000D01*
X115090000Y-91700000D02*
X115990000Y-91700000D01*
X115090000Y-92600000D02*
X115090000Y-91700000D01*
X115090000Y-92600000D02*
X115990000Y-92600000D01*
X115990000Y-88000000D02*
X115990000Y-93000000D01*
X115990000Y-93000000D02*
X110590000Y-93000000D01*
X114710000Y-92405000D02*
G75*
G03*
X114710000Y-92405000I-150000J0D01*
G01*
D13*
%TO.C,R1_SMT1*%
X109560436Y-136250000D02*
X111014564Y-136250000D01*
X109560436Y-138070000D02*
X111014564Y-138070000D01*
D16*
%TO.C,D14*%
X140590000Y-78000000D02*
X145990000Y-78000000D01*
X140590000Y-83000000D02*
X140590000Y-78000000D01*
X141490000Y-78400000D02*
X140590000Y-78400000D01*
X141490000Y-79300000D02*
X140590000Y-79300000D01*
X141490000Y-79300000D02*
X141490000Y-78400000D01*
X141490000Y-81700000D02*
X140590000Y-81700000D01*
X141490000Y-82600000D02*
X140590000Y-82600000D01*
X141490000Y-82600000D02*
X141490000Y-81700000D01*
X145090000Y-78400000D02*
X145990000Y-78400000D01*
X145090000Y-79300000D02*
X145090000Y-78400000D01*
X145090000Y-79300000D02*
X145990000Y-79300000D01*
X145090000Y-81700000D02*
X145990000Y-81700000D01*
X145090000Y-82600000D02*
X145090000Y-81700000D01*
X145090000Y-82600000D02*
X145990000Y-82600000D01*
X145990000Y-78000000D02*
X145990000Y-83000000D01*
X145990000Y-83000000D02*
X140590000Y-83000000D01*
X144710000Y-82405000D02*
G75*
G03*
X144710000Y-82405000I-150000J0D01*
G01*
%TO.C,D2*%
X120590000Y-58000000D02*
X125990000Y-58000000D01*
X120590000Y-63000000D02*
X120590000Y-58000000D01*
X121490000Y-58400000D02*
X120590000Y-58400000D01*
X121490000Y-59300000D02*
X120590000Y-59300000D01*
X121490000Y-59300000D02*
X121490000Y-58400000D01*
X121490000Y-61700000D02*
X120590000Y-61700000D01*
X121490000Y-62600000D02*
X120590000Y-62600000D01*
X121490000Y-62600000D02*
X121490000Y-61700000D01*
X125090000Y-58400000D02*
X125990000Y-58400000D01*
X125090000Y-59300000D02*
X125090000Y-58400000D01*
X125090000Y-59300000D02*
X125990000Y-59300000D01*
X125090000Y-61700000D02*
X125990000Y-61700000D01*
X125090000Y-62600000D02*
X125090000Y-61700000D01*
X125090000Y-62600000D02*
X125990000Y-62600000D01*
X125990000Y-58000000D02*
X125990000Y-63000000D01*
X125990000Y-63000000D02*
X120590000Y-63000000D01*
X124710000Y-62405000D02*
G75*
G03*
X124710000Y-62405000I-150000J0D01*
G01*
%TO.C,T2*%
X119350000Y-135200000D02*
X118500000Y-135200000D01*
X119350000Y-133800000D02*
X119350000Y-135200000D01*
X117000000Y-135200000D02*
X116150000Y-135200000D01*
X116150000Y-135200000D02*
X116150000Y-133800000D01*
%TO.C,D24*%
X140590000Y-98000000D02*
X145990000Y-98000000D01*
X140590000Y-103000000D02*
X140590000Y-98000000D01*
X141490000Y-98400000D02*
X140590000Y-98400000D01*
X141490000Y-99300000D02*
X140590000Y-99300000D01*
X141490000Y-99300000D02*
X141490000Y-98400000D01*
X141490000Y-101700000D02*
X140590000Y-101700000D01*
X141490000Y-102600000D02*
X140590000Y-102600000D01*
X141490000Y-102600000D02*
X141490000Y-101700000D01*
X145090000Y-98400000D02*
X145990000Y-98400000D01*
X145090000Y-99300000D02*
X145090000Y-98400000D01*
X145090000Y-99300000D02*
X145990000Y-99300000D01*
X145090000Y-101700000D02*
X145990000Y-101700000D01*
X145090000Y-102600000D02*
X145090000Y-101700000D01*
X145090000Y-102600000D02*
X145990000Y-102600000D01*
X145990000Y-98000000D02*
X145990000Y-103000000D01*
X145990000Y-103000000D02*
X140590000Y-103000000D01*
X144710000Y-102405000D02*
G75*
G03*
X144710000Y-102405000I-150000J0D01*
G01*
%TO.C,D25*%
X150590000Y-98000000D02*
X155990000Y-98000000D01*
X150590000Y-103000000D02*
X150590000Y-98000000D01*
X151490000Y-98400000D02*
X150590000Y-98400000D01*
X151490000Y-99300000D02*
X150590000Y-99300000D01*
X151490000Y-99300000D02*
X151490000Y-98400000D01*
X151490000Y-101700000D02*
X150590000Y-101700000D01*
X151490000Y-102600000D02*
X150590000Y-102600000D01*
X151490000Y-102600000D02*
X151490000Y-101700000D01*
X155090000Y-98400000D02*
X155990000Y-98400000D01*
X155090000Y-99300000D02*
X155090000Y-98400000D01*
X155090000Y-99300000D02*
X155990000Y-99300000D01*
X155090000Y-101700000D02*
X155990000Y-101700000D01*
X155090000Y-102600000D02*
X155090000Y-101700000D01*
X155090000Y-102600000D02*
X155990000Y-102600000D01*
X155990000Y-98000000D02*
X155990000Y-103000000D01*
X155990000Y-103000000D02*
X150590000Y-103000000D01*
X154710000Y-102405000D02*
G75*
G03*
X154710000Y-102405000I-150000J0D01*
G01*
%TO.C,D20*%
X150590000Y-88000000D02*
X155990000Y-88000000D01*
X150590000Y-93000000D02*
X150590000Y-88000000D01*
X151490000Y-88400000D02*
X150590000Y-88400000D01*
X151490000Y-89300000D02*
X150590000Y-89300000D01*
X151490000Y-89300000D02*
X151490000Y-88400000D01*
X151490000Y-91700000D02*
X150590000Y-91700000D01*
X151490000Y-92600000D02*
X150590000Y-92600000D01*
X151490000Y-92600000D02*
X151490000Y-91700000D01*
X155090000Y-88400000D02*
X155990000Y-88400000D01*
X155090000Y-89300000D02*
X155090000Y-88400000D01*
X155090000Y-89300000D02*
X155990000Y-89300000D01*
X155090000Y-91700000D02*
X155990000Y-91700000D01*
X155090000Y-92600000D02*
X155090000Y-91700000D01*
X155090000Y-92600000D02*
X155990000Y-92600000D01*
X155990000Y-88000000D02*
X155990000Y-93000000D01*
X155990000Y-93000000D02*
X150590000Y-93000000D01*
X154710000Y-92405000D02*
G75*
G03*
X154710000Y-92405000I-150000J0D01*
G01*
%TO.C,D11*%
X110590000Y-78000000D02*
X115990000Y-78000000D01*
X110590000Y-83000000D02*
X110590000Y-78000000D01*
X111490000Y-78400000D02*
X110590000Y-78400000D01*
X111490000Y-79300000D02*
X110590000Y-79300000D01*
X111490000Y-79300000D02*
X111490000Y-78400000D01*
X111490000Y-81700000D02*
X110590000Y-81700000D01*
X111490000Y-82600000D02*
X110590000Y-82600000D01*
X111490000Y-82600000D02*
X111490000Y-81700000D01*
X115090000Y-78400000D02*
X115990000Y-78400000D01*
X115090000Y-79300000D02*
X115090000Y-78400000D01*
X115090000Y-79300000D02*
X115990000Y-79300000D01*
X115090000Y-81700000D02*
X115990000Y-81700000D01*
X115090000Y-82600000D02*
X115090000Y-81700000D01*
X115090000Y-82600000D02*
X115990000Y-82600000D01*
X115990000Y-78000000D02*
X115990000Y-83000000D01*
X115990000Y-83000000D02*
X110590000Y-83000000D01*
X114710000Y-82405000D02*
G75*
G03*
X114710000Y-82405000I-150000J0D01*
G01*
%TO.C,S3*%
X144290000Y-108000000D02*
X156290000Y-108000000D01*
X144290000Y-120000000D02*
X144290000Y-108000000D01*
X156290000Y-108000000D02*
X156290000Y-120000000D01*
X156290000Y-120000000D02*
X144290000Y-120000000D01*
%TO.C,D21*%
X110590000Y-98000000D02*
X115990000Y-98000000D01*
X110590000Y-103000000D02*
X110590000Y-98000000D01*
X111490000Y-98400000D02*
X110590000Y-98400000D01*
X111490000Y-99300000D02*
X110590000Y-99300000D01*
X111490000Y-99300000D02*
X111490000Y-98400000D01*
X111490000Y-101700000D02*
X110590000Y-101700000D01*
X111490000Y-102600000D02*
X110590000Y-102600000D01*
X111490000Y-102600000D02*
X111490000Y-101700000D01*
X115090000Y-98400000D02*
X115990000Y-98400000D01*
X115090000Y-99300000D02*
X115090000Y-98400000D01*
X115090000Y-99300000D02*
X115990000Y-99300000D01*
X115090000Y-101700000D02*
X115990000Y-101700000D01*
X115090000Y-102600000D02*
X115090000Y-101700000D01*
X115090000Y-102600000D02*
X115990000Y-102600000D01*
X115990000Y-98000000D02*
X115990000Y-103000000D01*
X115990000Y-103000000D02*
X110590000Y-103000000D01*
X114710000Y-102405000D02*
G75*
G03*
X114710000Y-102405000I-150000J0D01*
G01*
%TO.C,D12*%
X120590000Y-78000000D02*
X125990000Y-78000000D01*
X120590000Y-83000000D02*
X120590000Y-78000000D01*
X121490000Y-78400000D02*
X120590000Y-78400000D01*
X121490000Y-79300000D02*
X120590000Y-79300000D01*
X121490000Y-79300000D02*
X121490000Y-78400000D01*
X121490000Y-81700000D02*
X120590000Y-81700000D01*
X121490000Y-82600000D02*
X120590000Y-82600000D01*
X121490000Y-82600000D02*
X121490000Y-81700000D01*
X125090000Y-78400000D02*
X125990000Y-78400000D01*
X125090000Y-79300000D02*
X125090000Y-78400000D01*
X125090000Y-79300000D02*
X125990000Y-79300000D01*
X125090000Y-81700000D02*
X125990000Y-81700000D01*
X125090000Y-82600000D02*
X125090000Y-81700000D01*
X125090000Y-82600000D02*
X125990000Y-82600000D01*
X125990000Y-78000000D02*
X125990000Y-83000000D01*
X125990000Y-83000000D02*
X120590000Y-83000000D01*
X124710000Y-82405000D02*
G75*
G03*
X124710000Y-82405000I-150000J0D01*
G01*
%TO.C,D6*%
X110590000Y-68000000D02*
X115990000Y-68000000D01*
X110590000Y-73000000D02*
X110590000Y-68000000D01*
X111490000Y-68400000D02*
X110590000Y-68400000D01*
X111490000Y-69300000D02*
X110590000Y-69300000D01*
X111490000Y-69300000D02*
X111490000Y-68400000D01*
X111490000Y-71700000D02*
X110590000Y-71700000D01*
X111490000Y-72600000D02*
X110590000Y-72600000D01*
X111490000Y-72600000D02*
X111490000Y-71700000D01*
X115090000Y-68400000D02*
X115990000Y-68400000D01*
X115090000Y-69300000D02*
X115090000Y-68400000D01*
X115090000Y-69300000D02*
X115990000Y-69300000D01*
X115090000Y-71700000D02*
X115990000Y-71700000D01*
X115090000Y-72600000D02*
X115090000Y-71700000D01*
X115090000Y-72600000D02*
X115990000Y-72600000D01*
X115990000Y-68000000D02*
X115990000Y-73000000D01*
X115990000Y-73000000D02*
X110590000Y-73000000D01*
X114710000Y-72405000D02*
G75*
G03*
X114710000Y-72405000I-150000J0D01*
G01*
%TO.C,D13*%
X130590000Y-78000000D02*
X135990000Y-78000000D01*
X130590000Y-83000000D02*
X130590000Y-78000000D01*
X131490000Y-78400000D02*
X130590000Y-78400000D01*
X131490000Y-79300000D02*
X130590000Y-79300000D01*
X131490000Y-79300000D02*
X131490000Y-78400000D01*
X131490000Y-81700000D02*
X130590000Y-81700000D01*
X131490000Y-82600000D02*
X130590000Y-82600000D01*
X131490000Y-82600000D02*
X131490000Y-81700000D01*
X135090000Y-78400000D02*
X135990000Y-78400000D01*
X135090000Y-79300000D02*
X135090000Y-78400000D01*
X135090000Y-79300000D02*
X135990000Y-79300000D01*
X135090000Y-81700000D02*
X135990000Y-81700000D01*
X135090000Y-82600000D02*
X135090000Y-81700000D01*
X135090000Y-82600000D02*
X135990000Y-82600000D01*
X135990000Y-78000000D02*
X135990000Y-83000000D01*
X135990000Y-83000000D02*
X130590000Y-83000000D01*
X134710000Y-82405000D02*
G75*
G03*
X134710000Y-82405000I-150000J0D01*
G01*
%TO.C,D10*%
X150590000Y-68000000D02*
X155990000Y-68000000D01*
X150590000Y-73000000D02*
X150590000Y-68000000D01*
X151490000Y-68400000D02*
X150590000Y-68400000D01*
X151490000Y-69300000D02*
X150590000Y-69300000D01*
X151490000Y-69300000D02*
X151490000Y-68400000D01*
X151490000Y-71700000D02*
X150590000Y-71700000D01*
X151490000Y-72600000D02*
X150590000Y-72600000D01*
X151490000Y-72600000D02*
X151490000Y-71700000D01*
X155090000Y-68400000D02*
X155990000Y-68400000D01*
X155090000Y-69300000D02*
X155090000Y-68400000D01*
X155090000Y-69300000D02*
X155990000Y-69300000D01*
X155090000Y-71700000D02*
X155990000Y-71700000D01*
X155090000Y-72600000D02*
X155090000Y-71700000D01*
X155090000Y-72600000D02*
X155990000Y-72600000D01*
X155990000Y-68000000D02*
X155990000Y-73000000D01*
X155990000Y-73000000D02*
X150590000Y-73000000D01*
X154710000Y-72405000D02*
G75*
G03*
X154710000Y-72405000I-150000J0D01*
G01*
%TO.C,D7*%
X120590000Y-68000000D02*
X125990000Y-68000000D01*
X120590000Y-73000000D02*
X120590000Y-68000000D01*
X121490000Y-68400000D02*
X120590000Y-68400000D01*
X121490000Y-69300000D02*
X120590000Y-69300000D01*
X121490000Y-69300000D02*
X121490000Y-68400000D01*
X121490000Y-71700000D02*
X120590000Y-71700000D01*
X121490000Y-72600000D02*
X120590000Y-72600000D01*
X121490000Y-72600000D02*
X121490000Y-71700000D01*
X125090000Y-68400000D02*
X125990000Y-68400000D01*
X125090000Y-69300000D02*
X125090000Y-68400000D01*
X125090000Y-69300000D02*
X125990000Y-69300000D01*
X125090000Y-71700000D02*
X125990000Y-71700000D01*
X125090000Y-72600000D02*
X125090000Y-71700000D01*
X125090000Y-72600000D02*
X125990000Y-72600000D01*
X125990000Y-68000000D02*
X125990000Y-73000000D01*
X125990000Y-73000000D02*
X120590000Y-73000000D01*
X124710000Y-72405000D02*
G75*
G03*
X124710000Y-72405000I-150000J0D01*
G01*
%TO.C,D4*%
X140590000Y-58000000D02*
X145990000Y-58000000D01*
X140590000Y-63000000D02*
X140590000Y-58000000D01*
X141490000Y-58400000D02*
X140590000Y-58400000D01*
X141490000Y-59300000D02*
X140590000Y-59300000D01*
X141490000Y-59300000D02*
X141490000Y-58400000D01*
X141490000Y-61700000D02*
X140590000Y-61700000D01*
X141490000Y-62600000D02*
X140590000Y-62600000D01*
X141490000Y-62600000D02*
X141490000Y-61700000D01*
X145090000Y-58400000D02*
X145990000Y-58400000D01*
X145090000Y-59300000D02*
X145090000Y-58400000D01*
X145090000Y-59300000D02*
X145990000Y-59300000D01*
X145090000Y-61700000D02*
X145990000Y-61700000D01*
X145090000Y-62600000D02*
X145090000Y-61700000D01*
X145090000Y-62600000D02*
X145990000Y-62600000D01*
X145990000Y-58000000D02*
X145990000Y-63000000D01*
X145990000Y-63000000D02*
X140590000Y-63000000D01*
X144710000Y-62405000D02*
G75*
G03*
X144710000Y-62405000I-150000J0D01*
G01*
%TO.C,D9*%
X140590000Y-68000000D02*
X145990000Y-68000000D01*
X140590000Y-73000000D02*
X140590000Y-68000000D01*
X141490000Y-68400000D02*
X140590000Y-68400000D01*
X141490000Y-69300000D02*
X140590000Y-69300000D01*
X141490000Y-69300000D02*
X141490000Y-68400000D01*
X141490000Y-71700000D02*
X140590000Y-71700000D01*
X141490000Y-72600000D02*
X140590000Y-72600000D01*
X141490000Y-72600000D02*
X141490000Y-71700000D01*
X145090000Y-68400000D02*
X145990000Y-68400000D01*
X145090000Y-69300000D02*
X145090000Y-68400000D01*
X145090000Y-69300000D02*
X145990000Y-69300000D01*
X145090000Y-71700000D02*
X145990000Y-71700000D01*
X145090000Y-72600000D02*
X145090000Y-71700000D01*
X145090000Y-72600000D02*
X145990000Y-72600000D01*
X145990000Y-68000000D02*
X145990000Y-73000000D01*
X145990000Y-73000000D02*
X140590000Y-73000000D01*
X144710000Y-72405000D02*
G75*
G03*
X144710000Y-72405000I-150000J0D01*
G01*
%TO.C,D1*%
X110590000Y-58000000D02*
X115990000Y-58000000D01*
X110590000Y-63000000D02*
X110590000Y-58000000D01*
X111490000Y-58400000D02*
X110590000Y-58400000D01*
X111490000Y-59300000D02*
X110590000Y-59300000D01*
X111490000Y-59300000D02*
X111490000Y-58400000D01*
X111490000Y-61700000D02*
X110590000Y-61700000D01*
X111490000Y-62600000D02*
X110590000Y-62600000D01*
X111490000Y-62600000D02*
X111490000Y-61700000D01*
X115090000Y-58400000D02*
X115990000Y-58400000D01*
X115090000Y-59300000D02*
X115090000Y-58400000D01*
X115090000Y-59300000D02*
X115990000Y-59300000D01*
X115090000Y-61700000D02*
X115990000Y-61700000D01*
X115090000Y-62600000D02*
X115090000Y-61700000D01*
X115090000Y-62600000D02*
X115990000Y-62600000D01*
X115990000Y-58000000D02*
X115990000Y-63000000D01*
X115990000Y-63000000D02*
X110590000Y-63000000D01*
X114710000Y-62405000D02*
G75*
G03*
X114710000Y-62405000I-150000J0D01*
G01*
%TO.C,D23*%
X130590000Y-98000000D02*
X135990000Y-98000000D01*
X130590000Y-103000000D02*
X130590000Y-98000000D01*
X131490000Y-98400000D02*
X130590000Y-98400000D01*
X131490000Y-99300000D02*
X130590000Y-99300000D01*
X131490000Y-99300000D02*
X131490000Y-98400000D01*
X131490000Y-101700000D02*
X130590000Y-101700000D01*
X131490000Y-102600000D02*
X130590000Y-102600000D01*
X131490000Y-102600000D02*
X131490000Y-101700000D01*
X135090000Y-98400000D02*
X135990000Y-98400000D01*
X135090000Y-99300000D02*
X135090000Y-98400000D01*
X135090000Y-99300000D02*
X135990000Y-99300000D01*
X135090000Y-101700000D02*
X135990000Y-101700000D01*
X135090000Y-102600000D02*
X135090000Y-101700000D01*
X135090000Y-102600000D02*
X135990000Y-102600000D01*
X135990000Y-98000000D02*
X135990000Y-103000000D01*
X135990000Y-103000000D02*
X130590000Y-103000000D01*
X134710000Y-102405000D02*
G75*
G03*
X134710000Y-102405000I-150000J0D01*
G01*
%TO.C,D5*%
X150590000Y-58000000D02*
X155990000Y-58000000D01*
X150590000Y-63000000D02*
X150590000Y-58000000D01*
X151490000Y-58400000D02*
X150590000Y-58400000D01*
X151490000Y-59300000D02*
X150590000Y-59300000D01*
X151490000Y-59300000D02*
X151490000Y-58400000D01*
X151490000Y-61700000D02*
X150590000Y-61700000D01*
X151490000Y-62600000D02*
X150590000Y-62600000D01*
X151490000Y-62600000D02*
X151490000Y-61700000D01*
X155090000Y-58400000D02*
X155990000Y-58400000D01*
X155090000Y-59300000D02*
X155090000Y-58400000D01*
X155090000Y-59300000D02*
X155990000Y-59300000D01*
X155090000Y-61700000D02*
X155990000Y-61700000D01*
X155090000Y-62600000D02*
X155090000Y-61700000D01*
X155090000Y-62600000D02*
X155990000Y-62600000D01*
X155990000Y-58000000D02*
X155990000Y-63000000D01*
X155990000Y-63000000D02*
X150590000Y-63000000D01*
X154710000Y-62405000D02*
G75*
G03*
X154710000Y-62405000I-150000J0D01*
G01*
%TO.C,D8*%
X130590000Y-68000000D02*
X135990000Y-68000000D01*
X130590000Y-73000000D02*
X130590000Y-68000000D01*
X131490000Y-68400000D02*
X130590000Y-68400000D01*
X131490000Y-69300000D02*
X130590000Y-69300000D01*
X131490000Y-69300000D02*
X131490000Y-68400000D01*
X131490000Y-71700000D02*
X130590000Y-71700000D01*
X131490000Y-72600000D02*
X130590000Y-72600000D01*
X131490000Y-72600000D02*
X131490000Y-71700000D01*
X135090000Y-68400000D02*
X135990000Y-68400000D01*
X135090000Y-69300000D02*
X135090000Y-68400000D01*
X135090000Y-69300000D02*
X135990000Y-69300000D01*
X135090000Y-71700000D02*
X135990000Y-71700000D01*
X135090000Y-72600000D02*
X135090000Y-71700000D01*
X135090000Y-72600000D02*
X135990000Y-72600000D01*
X135990000Y-68000000D02*
X135990000Y-73000000D01*
X135990000Y-73000000D02*
X130590000Y-73000000D01*
X134710000Y-72405000D02*
G75*
G03*
X134710000Y-72405000I-150000J0D01*
G01*
%TO.C,T3*%
X119800000Y-141900000D02*
X119800000Y-142750000D01*
X118400000Y-141900000D02*
X119800000Y-141900000D01*
X119800000Y-144250000D02*
X119800000Y-145100000D01*
X119800000Y-145100000D02*
X118400000Y-145100000D01*
D17*
%TO.C,T1*%
X124250000Y-134500000D02*
X124250000Y-138500000D01*
X124250000Y-138000000D02*
X129250000Y-138000000D01*
X124250000Y-138500000D02*
X129250000Y-138500000D01*
X129250000Y-134500000D02*
X124250000Y-134500000D01*
X129250000Y-138500000D02*
X129250000Y-134500000D01*
X124786250Y-137611250D02*
G75*
G03*
X124786250Y-137611250I-100000J0D01*
G01*
D16*
%TO.C,D22*%
X120590000Y-98000000D02*
X125990000Y-98000000D01*
X120590000Y-103000000D02*
X120590000Y-98000000D01*
X121490000Y-98400000D02*
X120590000Y-98400000D01*
X121490000Y-99300000D02*
X120590000Y-99300000D01*
X121490000Y-99300000D02*
X121490000Y-98400000D01*
X121490000Y-101700000D02*
X120590000Y-101700000D01*
X121490000Y-102600000D02*
X120590000Y-102600000D01*
X121490000Y-102600000D02*
X121490000Y-101700000D01*
X125090000Y-98400000D02*
X125990000Y-98400000D01*
X125090000Y-99300000D02*
X125090000Y-98400000D01*
X125090000Y-99300000D02*
X125990000Y-99300000D01*
X125090000Y-101700000D02*
X125990000Y-101700000D01*
X125090000Y-102600000D02*
X125090000Y-101700000D01*
X125090000Y-102600000D02*
X125990000Y-102600000D01*
X125990000Y-98000000D02*
X125990000Y-103000000D01*
X125990000Y-103000000D02*
X120590000Y-103000000D01*
X124710000Y-102405000D02*
G75*
G03*
X124710000Y-102405000I-150000J0D01*
G01*
%TO.C,S2*%
X127290000Y-108000000D02*
X139290000Y-108000000D01*
X127290000Y-120000000D02*
X127290000Y-108000000D01*
X139290000Y-108000000D02*
X139290000Y-120000000D01*
X139290000Y-120000000D02*
X127290000Y-120000000D01*
%TO.C,D17*%
X120590000Y-88000000D02*
X125990000Y-88000000D01*
X120590000Y-93000000D02*
X120590000Y-88000000D01*
X121490000Y-88400000D02*
X120590000Y-88400000D01*
X121490000Y-89300000D02*
X120590000Y-89300000D01*
X121490000Y-89300000D02*
X121490000Y-88400000D01*
X121490000Y-91700000D02*
X120590000Y-91700000D01*
X121490000Y-92600000D02*
X120590000Y-92600000D01*
X121490000Y-92600000D02*
X121490000Y-91700000D01*
X125090000Y-88400000D02*
X125990000Y-88400000D01*
X125090000Y-89300000D02*
X125090000Y-88400000D01*
X125090000Y-89300000D02*
X125990000Y-89300000D01*
X125090000Y-91700000D02*
X125990000Y-91700000D01*
X125090000Y-92600000D02*
X125090000Y-91700000D01*
X125090000Y-92600000D02*
X125990000Y-92600000D01*
X125990000Y-88000000D02*
X125990000Y-93000000D01*
X125990000Y-93000000D02*
X120590000Y-93000000D01*
X124710000Y-92405000D02*
G75*
G03*
X124710000Y-92405000I-150000J0D01*
G01*
%TD*%
M02*
