%TF.GenerationSoftware,KiCad,Pcbnew,7.0.7*%
%TF.CreationDate,2023-09-08T08:11:20+02:00*%
%TF.ProjectId,D1Mini_Wuerfel_aktuell,44314d69-6e69-45f5-9775-657266656c5f,rev?*%
%TF.SameCoordinates,Original*%
%TF.FileFunction,Legend,Bot*%
%TF.FilePolarity,Positive*%
%FSLAX46Y46*%
G04 Gerber Fmt 4.6, Leading zero omitted, Abs format (unit mm)*
G04 Created by KiCad (PCBNEW 7.0.7) date 2023-09-08 08:11:20*
%MOMM*%
%LPD*%
G01*
G04 APERTURE LIST*
%ADD10C,0.160000*%
%ADD11C,0.120000*%
%ADD12C,0.250000*%
%ADD13C,0.150000*%
%ADD14C,0.300000*%
G04 APERTURE END LIST*
D10*
X149956641Y-122926499D02*
X149956641Y-124416022D01*
X149956641Y-124416022D02*
X149869022Y-124591260D01*
X149869022Y-124591260D02*
X149781403Y-124678880D01*
X149781403Y-124678880D02*
X149606165Y-124766499D01*
X149606165Y-124766499D02*
X149255689Y-124766499D01*
X149255689Y-124766499D02*
X149080451Y-124678880D01*
X149080451Y-124678880D02*
X148992832Y-124591260D01*
X148992832Y-124591260D02*
X148905213Y-124416022D01*
X148905213Y-124416022D02*
X148905213Y-122926499D01*
X148116641Y-123101737D02*
X148029022Y-123014118D01*
X148029022Y-123014118D02*
X147853784Y-122926499D01*
X147853784Y-122926499D02*
X147415689Y-122926499D01*
X147415689Y-122926499D02*
X147240451Y-123014118D01*
X147240451Y-123014118D02*
X147152832Y-123101737D01*
X147152832Y-123101737D02*
X147065213Y-123276975D01*
X147065213Y-123276975D02*
X147065213Y-123452213D01*
X147065213Y-123452213D02*
X147152832Y-123715070D01*
X147152832Y-123715070D02*
X148204260Y-124766499D01*
X148204260Y-124766499D02*
X147065213Y-124766499D01*
X144406641Y-133119299D02*
X144406641Y-132119299D01*
X144406641Y-132119299D02*
X144168546Y-132119299D01*
X144168546Y-132119299D02*
X144025689Y-132166918D01*
X144025689Y-132166918D02*
X143930451Y-132262156D01*
X143930451Y-132262156D02*
X143882832Y-132357394D01*
X143882832Y-132357394D02*
X143835213Y-132547870D01*
X143835213Y-132547870D02*
X143835213Y-132690727D01*
X143835213Y-132690727D02*
X143882832Y-132881203D01*
X143882832Y-132881203D02*
X143930451Y-132976441D01*
X143930451Y-132976441D02*
X144025689Y-133071680D01*
X144025689Y-133071680D02*
X144168546Y-133119299D01*
X144168546Y-133119299D02*
X144406641Y-133119299D01*
X143454260Y-132214537D02*
X143406641Y-132166918D01*
X143406641Y-132166918D02*
X143311403Y-132119299D01*
X143311403Y-132119299D02*
X143073308Y-132119299D01*
X143073308Y-132119299D02*
X142978070Y-132166918D01*
X142978070Y-132166918D02*
X142930451Y-132214537D01*
X142930451Y-132214537D02*
X142882832Y-132309775D01*
X142882832Y-132309775D02*
X142882832Y-132405013D01*
X142882832Y-132405013D02*
X142930451Y-132547870D01*
X142930451Y-132547870D02*
X143501879Y-133119299D01*
X143501879Y-133119299D02*
X142882832Y-133119299D01*
X142025689Y-132119299D02*
X142216165Y-132119299D01*
X142216165Y-132119299D02*
X142311403Y-132166918D01*
X142311403Y-132166918D02*
X142359022Y-132214537D01*
X142359022Y-132214537D02*
X142454260Y-132357394D01*
X142454260Y-132357394D02*
X142501879Y-132547870D01*
X142501879Y-132547870D02*
X142501879Y-132928822D01*
X142501879Y-132928822D02*
X142454260Y-133024060D01*
X142454260Y-133024060D02*
X142406641Y-133071680D01*
X142406641Y-133071680D02*
X142311403Y-133119299D01*
X142311403Y-133119299D02*
X142120927Y-133119299D01*
X142120927Y-133119299D02*
X142025689Y-133071680D01*
X142025689Y-133071680D02*
X141978070Y-133024060D01*
X141978070Y-133024060D02*
X141930451Y-132928822D01*
X141930451Y-132928822D02*
X141930451Y-132690727D01*
X141930451Y-132690727D02*
X141978070Y-132595489D01*
X141978070Y-132595489D02*
X142025689Y-132547870D01*
X142025689Y-132547870D02*
X142120927Y-132500251D01*
X142120927Y-132500251D02*
X142311403Y-132500251D01*
X142311403Y-132500251D02*
X142406641Y-132547870D01*
X142406641Y-132547870D02*
X142454260Y-132595489D01*
X142454260Y-132595489D02*
X142501879Y-132690727D01*
X154271929Y-151869299D02*
X154271929Y-150869299D01*
X154271929Y-150869299D02*
X154033834Y-150869299D01*
X154033834Y-150869299D02*
X153890977Y-150916918D01*
X153890977Y-150916918D02*
X153795739Y-151012156D01*
X153795739Y-151012156D02*
X153748120Y-151107394D01*
X153748120Y-151107394D02*
X153700501Y-151297870D01*
X153700501Y-151297870D02*
X153700501Y-151440727D01*
X153700501Y-151440727D02*
X153748120Y-151631203D01*
X153748120Y-151631203D02*
X153795739Y-151726441D01*
X153795739Y-151726441D02*
X153890977Y-151821680D01*
X153890977Y-151821680D02*
X154033834Y-151869299D01*
X154033834Y-151869299D02*
X154271929Y-151869299D01*
X153319548Y-150964537D02*
X153271929Y-150916918D01*
X153271929Y-150916918D02*
X153176691Y-150869299D01*
X153176691Y-150869299D02*
X152938596Y-150869299D01*
X152938596Y-150869299D02*
X152843358Y-150916918D01*
X152843358Y-150916918D02*
X152795739Y-150964537D01*
X152795739Y-150964537D02*
X152748120Y-151059775D01*
X152748120Y-151059775D02*
X152748120Y-151155013D01*
X152748120Y-151155013D02*
X152795739Y-151297870D01*
X152795739Y-151297870D02*
X153367167Y-151869299D01*
X153367167Y-151869299D02*
X152748120Y-151869299D01*
X152176691Y-151297870D02*
X152271929Y-151250251D01*
X152271929Y-151250251D02*
X152319548Y-151202632D01*
X152319548Y-151202632D02*
X152367167Y-151107394D01*
X152367167Y-151107394D02*
X152367167Y-151059775D01*
X152367167Y-151059775D02*
X152319548Y-150964537D01*
X152319548Y-150964537D02*
X152271929Y-150916918D01*
X152271929Y-150916918D02*
X152176691Y-150869299D01*
X152176691Y-150869299D02*
X151986215Y-150869299D01*
X151986215Y-150869299D02*
X151890977Y-150916918D01*
X151890977Y-150916918D02*
X151843358Y-150964537D01*
X151843358Y-150964537D02*
X151795739Y-151059775D01*
X151795739Y-151059775D02*
X151795739Y-151107394D01*
X151795739Y-151107394D02*
X151843358Y-151202632D01*
X151843358Y-151202632D02*
X151890977Y-151250251D01*
X151890977Y-151250251D02*
X151986215Y-151297870D01*
X151986215Y-151297870D02*
X152176691Y-151297870D01*
X152176691Y-151297870D02*
X152271929Y-151345489D01*
X152271929Y-151345489D02*
X152319548Y-151393108D01*
X152319548Y-151393108D02*
X152367167Y-151488346D01*
X152367167Y-151488346D02*
X152367167Y-151678822D01*
X152367167Y-151678822D02*
X152319548Y-151774060D01*
X152319548Y-151774060D02*
X152271929Y-151821680D01*
X152271929Y-151821680D02*
X152176691Y-151869299D01*
X152176691Y-151869299D02*
X151986215Y-151869299D01*
X151986215Y-151869299D02*
X151890977Y-151821680D01*
X151890977Y-151821680D02*
X151843358Y-151774060D01*
X151843358Y-151774060D02*
X151795739Y-151678822D01*
X151795739Y-151678822D02*
X151795739Y-151488346D01*
X151795739Y-151488346D02*
X151843358Y-151393108D01*
X151843358Y-151393108D02*
X151890977Y-151345489D01*
X151890977Y-151345489D02*
X151986215Y-151297870D01*
D11*
X103102017Y-136617518D02*
X103167731Y-136814661D01*
X103167731Y-136814661D02*
X103233445Y-136880375D01*
X103233445Y-136880375D02*
X103364874Y-136946089D01*
X103364874Y-136946089D02*
X103562017Y-136946089D01*
X103562017Y-136946089D02*
X103693445Y-136880375D01*
X103693445Y-136880375D02*
X103759160Y-136814661D01*
X103759160Y-136814661D02*
X103824874Y-136683232D01*
X103824874Y-136683232D02*
X103824874Y-136157518D01*
X103824874Y-136157518D02*
X102444874Y-136157518D01*
X102444874Y-136157518D02*
X102444874Y-136617518D01*
X102444874Y-136617518D02*
X102510588Y-136748947D01*
X102510588Y-136748947D02*
X102576302Y-136814661D01*
X102576302Y-136814661D02*
X102707731Y-136880375D01*
X102707731Y-136880375D02*
X102839160Y-136880375D01*
X102839160Y-136880375D02*
X102970588Y-136814661D01*
X102970588Y-136814661D02*
X103036302Y-136748947D01*
X103036302Y-136748947D02*
X103102017Y-136617518D01*
X103102017Y-136617518D02*
X103102017Y-136157518D01*
X103430588Y-137471804D02*
X103430588Y-138128947D01*
X103824874Y-137340375D02*
X102444874Y-137800375D01*
X102444874Y-137800375D02*
X103824874Y-138260375D01*
X102444874Y-138523232D02*
X102444874Y-139311804D01*
X103824874Y-138917518D02*
X102444874Y-138917518D01*
X103824874Y-140494661D02*
X103824874Y-139706090D01*
X103824874Y-140100375D02*
X102444874Y-140100375D01*
X102444874Y-140100375D02*
X102642017Y-139968947D01*
X102642017Y-139968947D02*
X102773445Y-139837518D01*
X102773445Y-139837518D02*
X102839160Y-139706090D01*
D12*
X103152568Y-131516333D02*
X103914473Y-131516333D01*
X103733666Y-141402568D02*
X103733666Y-142164473D01*
X104114619Y-141783520D02*
X103352714Y-141783520D01*
D13*
X156838719Y-139451219D02*
X157172052Y-138975028D01*
X157410147Y-139451219D02*
X157410147Y-138451219D01*
X157410147Y-138451219D02*
X157029195Y-138451219D01*
X157029195Y-138451219D02*
X156933957Y-138498838D01*
X156933957Y-138498838D02*
X156886338Y-138546457D01*
X156886338Y-138546457D02*
X156838719Y-138641695D01*
X156838719Y-138641695D02*
X156838719Y-138784552D01*
X156838719Y-138784552D02*
X156886338Y-138879790D01*
X156886338Y-138879790D02*
X156933957Y-138927409D01*
X156933957Y-138927409D02*
X157029195Y-138975028D01*
X157029195Y-138975028D02*
X157410147Y-138975028D01*
X156410147Y-138927409D02*
X156076814Y-138927409D01*
X155933957Y-139451219D02*
X156410147Y-139451219D01*
X156410147Y-139451219D02*
X156410147Y-138451219D01*
X156410147Y-138451219D02*
X155933957Y-138451219D01*
X155172052Y-138927409D02*
X155505385Y-138927409D01*
X155505385Y-139451219D02*
X155505385Y-138451219D01*
X155505385Y-138451219D02*
X155029195Y-138451219D01*
X154743480Y-138451219D02*
X154124433Y-138451219D01*
X154124433Y-138451219D02*
X154457766Y-138832171D01*
X154457766Y-138832171D02*
X154314909Y-138832171D01*
X154314909Y-138832171D02*
X154219671Y-138879790D01*
X154219671Y-138879790D02*
X154172052Y-138927409D01*
X154172052Y-138927409D02*
X154124433Y-139022647D01*
X154124433Y-139022647D02*
X154124433Y-139260742D01*
X154124433Y-139260742D02*
X154172052Y-139355980D01*
X154172052Y-139355980D02*
X154219671Y-139403600D01*
X154219671Y-139403600D02*
X154314909Y-139451219D01*
X154314909Y-139451219D02*
X154600623Y-139451219D01*
X154600623Y-139451219D02*
X154695861Y-139403600D01*
X154695861Y-139403600D02*
X154743480Y-139355980D01*
D10*
X163369299Y-112251879D02*
X162893108Y-111918546D01*
X163369299Y-111680451D02*
X162369299Y-111680451D01*
X162369299Y-111680451D02*
X162369299Y-112061403D01*
X162369299Y-112061403D02*
X162416918Y-112156641D01*
X162416918Y-112156641D02*
X162464537Y-112204260D01*
X162464537Y-112204260D02*
X162559775Y-112251879D01*
X162559775Y-112251879D02*
X162702632Y-112251879D01*
X162702632Y-112251879D02*
X162797870Y-112204260D01*
X162797870Y-112204260D02*
X162845489Y-112156641D01*
X162845489Y-112156641D02*
X162893108Y-112061403D01*
X162893108Y-112061403D02*
X162893108Y-111680451D01*
X162464537Y-112632832D02*
X162416918Y-112680451D01*
X162416918Y-112680451D02*
X162369299Y-112775689D01*
X162369299Y-112775689D02*
X162369299Y-113013784D01*
X162369299Y-113013784D02*
X162416918Y-113109022D01*
X162416918Y-113109022D02*
X162464537Y-113156641D01*
X162464537Y-113156641D02*
X162559775Y-113204260D01*
X162559775Y-113204260D02*
X162655013Y-113204260D01*
X162655013Y-113204260D02*
X162797870Y-113156641D01*
X162797870Y-113156641D02*
X163369299Y-112585213D01*
X163369299Y-112585213D02*
X163369299Y-113204260D01*
D13*
X111838719Y-49451219D02*
X112172052Y-48975028D01*
X112410147Y-49451219D02*
X112410147Y-48451219D01*
X112410147Y-48451219D02*
X112029195Y-48451219D01*
X112029195Y-48451219D02*
X111933957Y-48498838D01*
X111933957Y-48498838D02*
X111886338Y-48546457D01*
X111886338Y-48546457D02*
X111838719Y-48641695D01*
X111838719Y-48641695D02*
X111838719Y-48784552D01*
X111838719Y-48784552D02*
X111886338Y-48879790D01*
X111886338Y-48879790D02*
X111933957Y-48927409D01*
X111933957Y-48927409D02*
X112029195Y-48975028D01*
X112029195Y-48975028D02*
X112410147Y-48975028D01*
X111410147Y-48927409D02*
X111076814Y-48927409D01*
X110933957Y-49451219D02*
X111410147Y-49451219D01*
X111410147Y-49451219D02*
X111410147Y-48451219D01*
X111410147Y-48451219D02*
X110933957Y-48451219D01*
X110172052Y-48927409D02*
X110505385Y-48927409D01*
X110505385Y-49451219D02*
X110505385Y-48451219D01*
X110505385Y-48451219D02*
X110029195Y-48451219D01*
X109124433Y-49451219D02*
X109695861Y-49451219D01*
X109410147Y-49451219D02*
X109410147Y-48451219D01*
X109410147Y-48451219D02*
X109505385Y-48594076D01*
X109505385Y-48594076D02*
X109600623Y-48689314D01*
X109600623Y-48689314D02*
X109695861Y-48736933D01*
X111838719Y-146704819D02*
X112172052Y-146228628D01*
X112410147Y-146704819D02*
X112410147Y-145704819D01*
X112410147Y-145704819D02*
X112029195Y-145704819D01*
X112029195Y-145704819D02*
X111933957Y-145752438D01*
X111933957Y-145752438D02*
X111886338Y-145800057D01*
X111886338Y-145800057D02*
X111838719Y-145895295D01*
X111838719Y-145895295D02*
X111838719Y-146038152D01*
X111838719Y-146038152D02*
X111886338Y-146133390D01*
X111886338Y-146133390D02*
X111933957Y-146181009D01*
X111933957Y-146181009D02*
X112029195Y-146228628D01*
X112029195Y-146228628D02*
X112410147Y-146228628D01*
X111410147Y-146181009D02*
X111076814Y-146181009D01*
X110933957Y-146704819D02*
X111410147Y-146704819D01*
X111410147Y-146704819D02*
X111410147Y-145704819D01*
X111410147Y-145704819D02*
X110933957Y-145704819D01*
X110172052Y-146181009D02*
X110505385Y-146181009D01*
X110505385Y-146704819D02*
X110505385Y-145704819D01*
X110505385Y-145704819D02*
X110029195Y-145704819D01*
X109219671Y-146038152D02*
X109219671Y-146704819D01*
X109457766Y-145657200D02*
X109695861Y-146371485D01*
X109695861Y-146371485D02*
X109076814Y-146371485D01*
D10*
X117198120Y-139553775D02*
X117464787Y-139172822D01*
X117655263Y-139553775D02*
X117655263Y-138753775D01*
X117655263Y-138753775D02*
X117350501Y-138753775D01*
X117350501Y-138753775D02*
X117274311Y-138791870D01*
X117274311Y-138791870D02*
X117236216Y-138829965D01*
X117236216Y-138829965D02*
X117198120Y-138906156D01*
X117198120Y-138906156D02*
X117198120Y-139020441D01*
X117198120Y-139020441D02*
X117236216Y-139096632D01*
X117236216Y-139096632D02*
X117274311Y-139134727D01*
X117274311Y-139134727D02*
X117350501Y-139172822D01*
X117350501Y-139172822D02*
X117655263Y-139172822D01*
X116436216Y-139553775D02*
X116893359Y-139553775D01*
X116664787Y-139553775D02*
X116664787Y-138753775D01*
X116664787Y-138753775D02*
X116740978Y-138868060D01*
X116740978Y-138868060D02*
X116817168Y-138944251D01*
X116817168Y-138944251D02*
X116893359Y-138982346D01*
X116283835Y-139629965D02*
X115674311Y-139629965D01*
X115598120Y-138753775D02*
X115140977Y-138753775D01*
X115369549Y-139553775D02*
X115369549Y-138753775D01*
X114874310Y-139553775D02*
X114874310Y-138753775D01*
X114874310Y-139134727D02*
X114417167Y-139134727D01*
X114417167Y-139553775D02*
X114417167Y-138753775D01*
X114150501Y-138753775D02*
X113693358Y-138753775D01*
X113921930Y-139553775D02*
X113921930Y-138753775D01*
X113007644Y-139553775D02*
X113464787Y-139553775D01*
X113236215Y-139553775D02*
X113236215Y-138753775D01*
X113236215Y-138753775D02*
X113312406Y-138868060D01*
X113312406Y-138868060D02*
X113388596Y-138944251D01*
X113388596Y-138944251D02*
X113464787Y-138982346D01*
X146271929Y-146869299D02*
X146271929Y-145869299D01*
X146271929Y-145869299D02*
X146033834Y-145869299D01*
X146033834Y-145869299D02*
X145890977Y-145916918D01*
X145890977Y-145916918D02*
X145795739Y-146012156D01*
X145795739Y-146012156D02*
X145748120Y-146107394D01*
X145748120Y-146107394D02*
X145700501Y-146297870D01*
X145700501Y-146297870D02*
X145700501Y-146440727D01*
X145700501Y-146440727D02*
X145748120Y-146631203D01*
X145748120Y-146631203D02*
X145795739Y-146726441D01*
X145795739Y-146726441D02*
X145890977Y-146821680D01*
X145890977Y-146821680D02*
X146033834Y-146869299D01*
X146033834Y-146869299D02*
X146271929Y-146869299D01*
X145319548Y-145964537D02*
X145271929Y-145916918D01*
X145271929Y-145916918D02*
X145176691Y-145869299D01*
X145176691Y-145869299D02*
X144938596Y-145869299D01*
X144938596Y-145869299D02*
X144843358Y-145916918D01*
X144843358Y-145916918D02*
X144795739Y-145964537D01*
X144795739Y-145964537D02*
X144748120Y-146059775D01*
X144748120Y-146059775D02*
X144748120Y-146155013D01*
X144748120Y-146155013D02*
X144795739Y-146297870D01*
X144795739Y-146297870D02*
X145367167Y-146869299D01*
X145367167Y-146869299D02*
X144748120Y-146869299D01*
X144414786Y-145869299D02*
X143748120Y-145869299D01*
X143748120Y-145869299D02*
X144176691Y-146869299D01*
D13*
X102494819Y-129183095D02*
X103304342Y-129183095D01*
X103304342Y-129183095D02*
X103399580Y-129230714D01*
X103399580Y-129230714D02*
X103447200Y-129278333D01*
X103447200Y-129278333D02*
X103494819Y-129373571D01*
X103494819Y-129373571D02*
X103494819Y-129564047D01*
X103494819Y-129564047D02*
X103447200Y-129659285D01*
X103447200Y-129659285D02*
X103399580Y-129706904D01*
X103399580Y-129706904D02*
X103304342Y-129754523D01*
X103304342Y-129754523D02*
X102494819Y-129754523D01*
X103494819Y-130754523D02*
X103494819Y-130183095D01*
X103494819Y-130468809D02*
X102494819Y-130468809D01*
X102494819Y-130468809D02*
X102637676Y-130373571D01*
X102637676Y-130373571D02*
X102732914Y-130278333D01*
X102732914Y-130278333D02*
X102780533Y-130183095D01*
X156838719Y-49451219D02*
X157172052Y-48975028D01*
X157410147Y-49451219D02*
X157410147Y-48451219D01*
X157410147Y-48451219D02*
X157029195Y-48451219D01*
X157029195Y-48451219D02*
X156933957Y-48498838D01*
X156933957Y-48498838D02*
X156886338Y-48546457D01*
X156886338Y-48546457D02*
X156838719Y-48641695D01*
X156838719Y-48641695D02*
X156838719Y-48784552D01*
X156838719Y-48784552D02*
X156886338Y-48879790D01*
X156886338Y-48879790D02*
X156933957Y-48927409D01*
X156933957Y-48927409D02*
X157029195Y-48975028D01*
X157029195Y-48975028D02*
X157410147Y-48975028D01*
X156410147Y-48927409D02*
X156076814Y-48927409D01*
X155933957Y-49451219D02*
X156410147Y-49451219D01*
X156410147Y-49451219D02*
X156410147Y-48451219D01*
X156410147Y-48451219D02*
X155933957Y-48451219D01*
X155172052Y-48927409D02*
X155505385Y-48927409D01*
X155505385Y-49451219D02*
X155505385Y-48451219D01*
X155505385Y-48451219D02*
X155029195Y-48451219D01*
X154695861Y-48546457D02*
X154648242Y-48498838D01*
X154648242Y-48498838D02*
X154553004Y-48451219D01*
X154553004Y-48451219D02*
X154314909Y-48451219D01*
X154314909Y-48451219D02*
X154219671Y-48498838D01*
X154219671Y-48498838D02*
X154172052Y-48546457D01*
X154172052Y-48546457D02*
X154124433Y-48641695D01*
X154124433Y-48641695D02*
X154124433Y-48736933D01*
X154124433Y-48736933D02*
X154172052Y-48879790D01*
X154172052Y-48879790D02*
X154743480Y-49451219D01*
X154743480Y-49451219D02*
X154124433Y-49451219D01*
D14*
%TO.C,U2*%
X150850000Y-133000000D02*
X150850000Y-125400000D01*
X150850000Y-133000000D02*
X139150000Y-133000000D01*
X150850000Y-125400000D02*
X139150000Y-125400000D01*
X139150000Y-125400000D02*
X139150000Y-133000000D01*
%TO.C,D26*%
X146560000Y-135250000D02*
X144950000Y-135250000D01*
X144950000Y-136200000D02*
X140550000Y-136200000D01*
X144950000Y-134300000D02*
X144950000Y-136200000D01*
X141360000Y-136200000D02*
X141360000Y-134300000D01*
X140550000Y-136200000D02*
X140550000Y-134300000D01*
X140550000Y-134300000D02*
X144950000Y-134300000D01*
X138940000Y-135250000D02*
X140550000Y-135250000D01*
%TO.C,D28*%
X149170000Y-149000000D02*
X151700000Y-149000000D01*
X151700000Y-147600000D02*
X151700000Y-150400000D01*
X151700000Y-147600000D02*
X156800000Y-147600000D01*
X151700000Y-150400000D02*
X156800000Y-150400000D01*
X155585000Y-150350000D02*
X155585000Y-147650000D01*
X156800000Y-149000000D02*
X159330000Y-149000000D01*
X156800000Y-150400000D02*
X156800000Y-147600000D01*
%TO.C,R2*%
X160500000Y-120580000D02*
X160500000Y-119310000D01*
X159230000Y-119310000D02*
X161770000Y-119310000D01*
X161770000Y-119310000D02*
X161770000Y-111690000D01*
X159230000Y-111690000D02*
X159230000Y-119310000D01*
X160500000Y-111690000D02*
X160500000Y-110420000D01*
X161770000Y-111690000D02*
X159230000Y-111690000D01*
%TO.C,R1_THT1*%
X105170000Y-137160000D02*
X106440000Y-137160000D01*
X106440000Y-135890000D02*
X106440000Y-138430000D01*
X106440000Y-138430000D02*
X114060000Y-138430000D01*
X114060000Y-135890000D02*
X106440000Y-135890000D01*
X114060000Y-137160000D02*
X115330000Y-137160000D01*
X114060000Y-138430000D02*
X114060000Y-135890000D01*
%TO.C,D27*%
X138420000Y-144000000D02*
X140950000Y-144000000D01*
X140950000Y-142600000D02*
X140950000Y-145400000D01*
X140950000Y-142600000D02*
X146050000Y-142600000D01*
X140950000Y-145400000D02*
X146050000Y-145400000D01*
X144835000Y-145350000D02*
X144835000Y-142650000D01*
X146050000Y-144000000D02*
X148580000Y-144000000D01*
X146050000Y-145400000D02*
X146050000Y-142600000D01*
%TO.C,K1*%
X108270000Y-103940000D02*
X108270000Y-112060000D01*
X105730000Y-103940000D02*
X108270000Y-103940000D01*
X108270000Y-112060000D02*
X105730000Y-112060000D01*
X105730000Y-112060000D02*
X105730000Y-103940000D01*
D11*
%TO.C,U1*%
X108850000Y-154445000D02*
X134280000Y-154445000D01*
X108850000Y-154445000D02*
X108850000Y-151905000D01*
X101950000Y-151905000D02*
X101950000Y-128585000D01*
X108850000Y-151905000D02*
X101950000Y-151905000D01*
X136410000Y-130705000D02*
X136410000Y-152315000D01*
X101950000Y-128585000D02*
X134280000Y-128585000D01*
X134280000Y-154445000D02*
G75*
G03*
X136410000Y-152315000I-2J2130002D01*
G01*
X136410000Y-130715000D02*
G75*
G03*
X134280000Y-128585000I-2130000J0D01*
G01*
D13*
X128705000Y-155485000D02*
X127435000Y-155485000D01*
X128070000Y-154850000D01*
X128705000Y-155485000D01*
G36*
X128705000Y-155485000D02*
G01*
X127435000Y-155485000D01*
X128070000Y-154850000D01*
X128705000Y-155485000D01*
G37*
%TD*%
M02*
