%TF.GenerationSoftware,KiCad,Pcbnew,7.0.7*%
%TF.CreationDate,2023-09-14T14:46:07+02:00*%
%TF.ProjectId,WebW_rfel,57656257-fc72-4666-956c-2e6b69636164,rev?*%
%TF.SameCoordinates,Original*%
%TF.FileFunction,Copper,L1,Top*%
%TF.FilePolarity,Positive*%
%FSLAX46Y46*%
G04 Gerber Fmt 4.6, Leading zero omitted, Abs format (unit mm)*
G04 Created by KiCad (PCBNEW 7.0.7) date 2023-09-14 14:46:07*
%MOMM*%
%LPD*%
G01*
G04 APERTURE LIST*
G04 Aperture macros list*
%AMRoundRect*
0 Rectangle with rounded corners*
0 $1 Rounding radius*
0 $2 $3 $4 $5 $6 $7 $8 $9 X,Y pos of 4 corners*
0 Add a 4 corners polygon primitive as box body*
4,1,4,$2,$3,$4,$5,$6,$7,$8,$9,$2,$3,0*
0 Add four circle primitives for the rounded corners*
1,1,$1+$1,$2,$3*
1,1,$1+$1,$4,$5*
1,1,$1+$1,$6,$7*
1,1,$1+$1,$8,$9*
0 Add four rect primitives between the rounded corners*
20,1,$1+$1,$2,$3,$4,$5,0*
20,1,$1+$1,$4,$5,$6,$7,0*
20,1,$1+$1,$6,$7,$8,$9,0*
20,1,$1+$1,$8,$9,$2,$3,0*%
%AMOutline5P*
0 Free polygon, 5 corners , with rotation*
0 The origin of the aperture is its center*
0 number of corners: always 5*
0 $1 to $10 corner X, Y*
0 $11 Rotation angle, in degrees counterclockwise*
0 create outline with 5 corners*
4,1,5,$1,$2,$3,$4,$5,$6,$7,$8,$9,$10,$1,$2,$11*%
%AMOutline6P*
0 Free polygon, 6 corners , with rotation*
0 The origin of the aperture is its center*
0 number of corners: always 6*
0 $1 to $12 corner X, Y*
0 $13 Rotation angle, in degrees counterclockwise*
0 create outline with 6 corners*
4,1,6,$1,$2,$3,$4,$5,$6,$7,$8,$9,$10,$11,$12,$1,$2,$13*%
%AMOutline7P*
0 Free polygon, 7 corners , with rotation*
0 The origin of the aperture is its center*
0 number of corners: always 7*
0 $1 to $14 corner X, Y*
0 $15 Rotation angle, in degrees counterclockwise*
0 create outline with 7 corners*
4,1,7,$1,$2,$3,$4,$5,$6,$7,$8,$9,$10,$11,$12,$13,$14,$1,$2,$15*%
%AMOutline8P*
0 Free polygon, 8 corners , with rotation*
0 The origin of the aperture is its center*
0 number of corners: always 8*
0 $1 to $16 corner X, Y*
0 $17 Rotation angle, in degrees counterclockwise*
0 create outline with 8 corners*
4,1,8,$1,$2,$3,$4,$5,$6,$7,$8,$9,$10,$11,$12,$13,$14,$15,$16,$1,$2,$17*%
G04 Aperture macros list end*
%TA.AperFunction,SMDPad,CuDef*%
%ADD10RoundRect,0.090000X-1.410000X-0.360000X1.410000X-0.360000X1.410000X0.360000X-1.410000X0.360000X0*%
%TD*%
%TA.AperFunction,SMDPad,CuDef*%
%ADD11R,1.600000X2.000000*%
%TD*%
%TA.AperFunction,SMDPad,CuDef*%
%ADD12RoundRect,0.250000X-0.312500X-0.625000X0.312500X-0.625000X0.312500X0.625000X-0.312500X0.625000X0*%
%TD*%
%TA.AperFunction,SMDPad,CuDef*%
%ADD13R,0.750000X1.750000*%
%TD*%
%TA.AperFunction,SMDPad,CuDef*%
%ADD14R,1.750000X0.800000*%
%TD*%
%TA.AperFunction,SMDPad,CuDef*%
%ADD15R,1.500000X0.800000*%
%TD*%
%TA.AperFunction,SMDPad,CuDef*%
%ADD16R,0.700000X2.100000*%
%TD*%
%TA.AperFunction,ComponentPad*%
%ADD17Outline8P,-1.050000X0.434924X-0.434924X1.050000X0.434924X1.050000X1.050000X0.434924X1.050000X-0.434924X0.434924X-1.050000X-0.434924X-1.050000X-1.050000X-0.434924X180.000000*%
%TD*%
%TA.AperFunction,ComponentPad*%
%ADD18Outline8P,-1.050000X0.434924X-0.434924X1.050000X0.434924X1.050000X1.050000X0.434924X1.050000X-0.434924X0.434924X-1.050000X-0.434924X-1.050000X-1.050000X-0.434924X0.000000*%
%TD*%
%TA.AperFunction,ComponentPad*%
%ADD19Outline8P,-0.900000X0.372792X-0.372792X0.900000X0.372792X0.900000X0.900000X0.372792X0.900000X-0.372792X0.372792X-0.900000X-0.372792X-0.900000X-0.900000X-0.372792X270.000000*%
%TD*%
%TA.AperFunction,ComponentPad*%
%ADD20Outline8P,-0.900000X0.372792X-0.372792X0.900000X0.372792X0.900000X0.900000X0.372792X0.900000X-0.372792X0.372792X-0.900000X-0.372792X-0.900000X-0.900000X-0.372792X90.000000*%
%TD*%
%TA.AperFunction,ComponentPad*%
%ADD21Outline8P,-1.050000X0.434924X-0.434924X1.050000X0.434924X1.050000X1.050000X0.434924X1.050000X-0.434924X0.434924X-1.050000X-0.434924X-1.050000X-1.050000X-0.434924X270.000000*%
%TD*%
%TA.AperFunction,ComponentPad*%
%ADD22R,2.000000X2.000000*%
%TD*%
%TA.AperFunction,ComponentPad*%
%ADD23O,1.600000X2.000000*%
%TD*%
%TA.AperFunction,ViaPad*%
%ADD24C,2.000000*%
%TD*%
%TA.AperFunction,ViaPad*%
%ADD25C,1.200000*%
%TD*%
%TA.AperFunction,Conductor*%
%ADD26C,2.000000*%
%TD*%
%TA.AperFunction,Conductor*%
%ADD27C,0.300000*%
%TD*%
%TA.AperFunction,Conductor*%
%ADD28C,0.700000*%
%TD*%
%TA.AperFunction,Conductor*%
%ADD29C,0.500000*%
%TD*%
%TA.AperFunction,Conductor*%
%ADD30C,1.000000*%
%TD*%
G04 APERTURE END LIST*
D10*
%TO.P,D15,1,VDD*%
%TO.N,+5V*%
X150840000Y-78850000D03*
%TO.P,D15,2,DOUT*%
%TO.N,Net-(D14-DIN)*%
X150840000Y-82150000D03*
%TO.P,D15,3,VSS*%
%TO.N,GND*%
X155740000Y-82150000D03*
%TO.P,D15,4,DIN*%
%TO.N,Net-(D15-DIN)*%
X155740000Y-78850000D03*
%TD*%
%TO.P,D18,1,VDD*%
%TO.N,+5V*%
X130840000Y-88850000D03*
%TO.P,D18,2,DOUT*%
%TO.N,Net-(D17-DIN)*%
X130840000Y-92150000D03*
%TO.P,D18,3,VSS*%
%TO.N,GND*%
X135740000Y-92150000D03*
%TO.P,D18,4,DIN*%
%TO.N,Net-(D18-DIN)*%
X135740000Y-88850000D03*
%TD*%
D11*
%TO.P,S1,1,1*%
%TO.N,GND*%
X113790000Y-106800000D03*
%TO.P,S1,2,2*%
%TO.N,Net-(D27-Pad2)*%
X118790000Y-106800000D03*
%TO.P,S1,3*%
%TO.N,N/C*%
X113790000Y-121200000D03*
%TO.P,S1,NC*%
X118790000Y-121200000D03*
%TD*%
D10*
%TO.P,D3,1,VDD*%
%TO.N,+5V*%
X130840000Y-58850000D03*
%TO.P,D3,2,DOUT*%
%TO.N,Net-(D2-DIN)*%
X130840000Y-62150000D03*
%TO.P,D3,3,VSS*%
%TO.N,GND*%
X135740000Y-62150000D03*
%TO.P,D3,4,DIN*%
%TO.N,Net-(D3-DIN)*%
X135740000Y-58850000D03*
%TD*%
%TO.P,D19,1,VDD*%
%TO.N,+5V*%
X140840000Y-88850000D03*
%TO.P,D19,2,DOUT*%
%TO.N,Net-(D18-DIN)*%
X140840000Y-92150000D03*
%TO.P,D19,3,VSS*%
%TO.N,GND*%
X145740000Y-92150000D03*
%TO.P,D19,4,DIN*%
%TO.N,Net-(D19-DIN)*%
X145740000Y-88850000D03*
%TD*%
%TO.P,D16,1,VDD*%
%TO.N,+5V*%
X110840000Y-88850000D03*
%TO.P,D16,2,DOUT*%
%TO.N,Net-(D16-DOUT)*%
X110840000Y-92150000D03*
%TO.P,D16,3,VSS*%
%TO.N,GND*%
X115740000Y-92150000D03*
%TO.P,D16,4,DIN*%
%TO.N,Net-(D16-DIN)*%
X115740000Y-88850000D03*
%TD*%
D12*
%TO.P,R1_SMT1,1*%
%TO.N,+9V*%
X108825000Y-137160000D03*
%TO.P,R1_SMT1,2*%
%TO.N,XFET*%
X111750000Y-137160000D03*
%TD*%
D10*
%TO.P,D14,1,VDD*%
%TO.N,+5V*%
X140840000Y-78850000D03*
%TO.P,D14,2,DOUT*%
%TO.N,Net-(D13-DIN)*%
X140840000Y-82150000D03*
%TO.P,D14,3,VSS*%
%TO.N,GND*%
X145740000Y-82150000D03*
%TO.P,D14,4,DIN*%
%TO.N,Net-(D14-DIN)*%
X145740000Y-78850000D03*
%TD*%
%TO.P,D2,1,VDD*%
%TO.N,+5V*%
X120840000Y-58850000D03*
%TO.P,D2,2,DOUT*%
%TO.N,Net-(D1-DIN)*%
X120840000Y-62150000D03*
%TO.P,D2,3,VSS*%
%TO.N,GND*%
X125740000Y-62150000D03*
%TO.P,D2,4,DIN*%
%TO.N,Net-(D2-DIN)*%
X125740000Y-58850000D03*
%TD*%
D13*
%TO.P,T2,1,1*%
%TO.N,D1*%
X118700000Y-133350000D03*
%TO.P,T2,2,2*%
%TO.N,GND*%
X116800000Y-133350000D03*
%TO.P,T2,3,3*%
%TO.N,XFET*%
X117750000Y-135650000D03*
%TD*%
D10*
%TO.P,D24,1,VDD*%
%TO.N,+5V*%
X140840000Y-98850000D03*
%TO.P,D24,2,DOUT*%
%TO.N,Net-(D23-DIN)*%
X140840000Y-102150000D03*
%TO.P,D24,3,VSS*%
%TO.N,GND*%
X145740000Y-102150000D03*
%TO.P,D24,4,DIN*%
%TO.N,Net-(D24-DIN)*%
X145740000Y-98850000D03*
%TD*%
%TO.P,D25,1,VDD*%
%TO.N,+5V*%
X150840000Y-98850000D03*
%TO.P,D25,2,DOUT*%
%TO.N,Net-(D24-DIN)*%
X150840000Y-102150000D03*
%TO.P,D25,3,VSS*%
%TO.N,GND*%
X155740000Y-102150000D03*
%TO.P,D25,4,DIN*%
%TO.N,Net-(D16-DOUT)*%
X155740000Y-98850000D03*
%TD*%
%TO.P,D20,1,VDD*%
%TO.N,+5V*%
X150840000Y-88850000D03*
%TO.P,D20,2,DOUT*%
%TO.N,Net-(D19-DIN)*%
X150840000Y-92150000D03*
%TO.P,D20,3,VSS*%
%TO.N,GND*%
X155740000Y-92150000D03*
%TO.P,D20,4,DIN*%
%TO.N,Net-(D11-DOUT)*%
X155740000Y-88850000D03*
%TD*%
%TO.P,D11,1,VDD*%
%TO.N,+5V*%
X110840000Y-78850000D03*
%TO.P,D11,2,DOUT*%
%TO.N,Net-(D11-DOUT)*%
X110840000Y-82150000D03*
%TO.P,D11,3,VSS*%
%TO.N,GND*%
X115740000Y-82150000D03*
%TO.P,D11,4,DIN*%
%TO.N,Net-(D11-DIN)*%
X115740000Y-78850000D03*
%TD*%
D11*
%TO.P,S3,1,1*%
%TO.N,GND*%
X147790000Y-106800000D03*
%TO.P,S3,2,2*%
%TO.N,/D5*%
X152790000Y-106800000D03*
%TO.P,S3,3*%
%TO.N,N/C*%
X147790000Y-121200000D03*
%TO.P,S3,NC*%
X152790000Y-121200000D03*
%TD*%
D10*
%TO.P,D21,1,VDD*%
%TO.N,+5V*%
X110840000Y-98850000D03*
%TO.P,D21,2,DOUT*%
%TO.N,Net-(D21-DOUT)*%
X110840000Y-102150000D03*
%TO.P,D21,3,VSS*%
%TO.N,GND*%
X115740000Y-102150000D03*
%TO.P,D21,4,DIN*%
%TO.N,Net-(D21-DIN)*%
X115740000Y-98850000D03*
%TD*%
%TO.P,D12,1,VDD*%
%TO.N,+5V*%
X120840000Y-78850000D03*
%TO.P,D12,2,DOUT*%
%TO.N,Net-(D11-DIN)*%
X120840000Y-82150000D03*
%TO.P,D12,3,VSS*%
%TO.N,GND*%
X125740000Y-82150000D03*
%TO.P,D12,4,DIN*%
%TO.N,Net-(D12-DIN)*%
X125740000Y-78850000D03*
%TD*%
%TO.P,D6,1,VDD*%
%TO.N,+5V*%
X110840000Y-68850000D03*
%TO.P,D6,2,DOUT*%
%TO.N,Net-(D15-DIN)*%
X110840000Y-72150000D03*
%TO.P,D6,3,VSS*%
%TO.N,GND*%
X115740000Y-72150000D03*
%TO.P,D6,4,DIN*%
%TO.N,Net-(D6-DIN)*%
X115740000Y-68850000D03*
%TD*%
%TO.P,D13,1,VDD*%
%TO.N,+5V*%
X130840000Y-78850000D03*
%TO.P,D13,2,DOUT*%
%TO.N,Net-(D12-DIN)*%
X130840000Y-82150000D03*
%TO.P,D13,3,VSS*%
%TO.N,GND*%
X135740000Y-82150000D03*
%TO.P,D13,4,DIN*%
%TO.N,Net-(D13-DIN)*%
X135740000Y-78850000D03*
%TD*%
%TO.P,D10,1,VDD*%
%TO.N,+5V*%
X150840000Y-68850000D03*
%TO.P,D10,2,DOUT*%
%TO.N,Net-(D10-DOUT)*%
X150840000Y-72150000D03*
%TO.P,D10,3,VSS*%
%TO.N,GND*%
X155740000Y-72150000D03*
%TO.P,D10,4,DIN*%
%TO.N,Net-(D1-DOUT)*%
X155740000Y-68850000D03*
%TD*%
%TO.P,D7,1,VDD*%
%TO.N,+5V*%
X120840000Y-68850000D03*
%TO.P,D7,2,DOUT*%
%TO.N,Net-(D6-DIN)*%
X120840000Y-72150000D03*
%TO.P,D7,3,VSS*%
%TO.N,GND*%
X125740000Y-72150000D03*
%TO.P,D7,4,DIN*%
%TO.N,Net-(D7-DIN)*%
X125740000Y-68850000D03*
%TD*%
%TO.P,D4,1,VDD*%
%TO.N,+5V*%
X140840000Y-58850000D03*
%TO.P,D4,2,DOUT*%
%TO.N,Net-(D3-DIN)*%
X140840000Y-62150000D03*
%TO.P,D4,3,VSS*%
%TO.N,GND*%
X145740000Y-62150000D03*
%TO.P,D4,4,DIN*%
%TO.N,Net-(D4-DIN)*%
X145740000Y-58850000D03*
%TD*%
%TO.P,D9,1,VDD*%
%TO.N,+5V*%
X140840000Y-68850000D03*
%TO.P,D9,2,DOUT*%
%TO.N,Net-(D8-DIN)*%
X140840000Y-72150000D03*
%TO.P,D9,3,VSS*%
%TO.N,GND*%
X145740000Y-72150000D03*
%TO.P,D9,4,DIN*%
%TO.N,Net-(D10-DOUT)*%
X145740000Y-68850000D03*
%TD*%
%TO.P,D1,1,VDD*%
%TO.N,+5V*%
X110840000Y-58850000D03*
%TO.P,D1,2,DOUT*%
%TO.N,Net-(D1-DOUT)*%
X110840000Y-62150000D03*
%TO.P,D1,3,VSS*%
%TO.N,GND*%
X115740000Y-62150000D03*
%TO.P,D1,4,DIN*%
%TO.N,Net-(D1-DIN)*%
X115740000Y-58850000D03*
%TD*%
%TO.P,D23,1,VDD*%
%TO.N,+5V*%
X130840000Y-98850000D03*
%TO.P,D23,2,DOUT*%
%TO.N,Net-(D22-DIN)*%
X130840000Y-102150000D03*
%TO.P,D23,3,VSS*%
%TO.N,GND*%
X135740000Y-102150000D03*
%TO.P,D23,4,DIN*%
%TO.N,Net-(D23-DIN)*%
X135740000Y-98850000D03*
%TD*%
%TO.P,D5,1,VDD*%
%TO.N,+5V*%
X150840000Y-58850000D03*
%TO.P,D5,2,DOUT*%
%TO.N,Net-(D4-DIN)*%
X150840000Y-62150000D03*
%TO.P,D5,3,VSS*%
%TO.N,GND*%
X155740000Y-62150000D03*
%TO.P,D5,4,DIN*%
%TO.N,Net-(D5-DIN)*%
X155740000Y-58850000D03*
%TD*%
%TO.P,D8,1,VDD*%
%TO.N,+5V*%
X130840000Y-68850000D03*
%TO.P,D8,2,DOUT*%
%TO.N,Net-(D7-DIN)*%
X130840000Y-72150000D03*
%TO.P,D8,3,VSS*%
%TO.N,GND*%
X135740000Y-72150000D03*
%TO.P,D8,4,DIN*%
%TO.N,Net-(D8-DIN)*%
X135740000Y-68850000D03*
%TD*%
D14*
%TO.P,T3,1,1*%
%TO.N,XFET*%
X117950000Y-142550000D03*
%TO.P,T3,2,2*%
%TO.N,+9V*%
X117950000Y-144450000D03*
D15*
%TO.P,T3,3,3*%
%TO.N,U2_VIN*%
X120250000Y-143500000D03*
%TD*%
D16*
%TO.P,T1,1,1*%
%TO.N,GND*%
X124845000Y-139200000D03*
%TO.P,T1,2,2*%
%TO.N,D1*%
X126115000Y-139200000D03*
%TO.P,T1,3,3*%
%TO.N,+9V*%
X127385000Y-139200000D03*
%TO.P,T1,4,4*%
%TO.N,XFET*%
X128655000Y-139200000D03*
%TO.P,T1,5,5*%
%TO.N,U2_VIN*%
X128655000Y-133800000D03*
%TO.P,T1,6,6*%
X127385000Y-133800000D03*
%TO.P,T1,7,7*%
%TO.N,XFET*%
X126115000Y-133800000D03*
%TO.P,T1,8,8*%
X124845000Y-133800000D03*
%TD*%
D10*
%TO.P,D22,1,VDD*%
%TO.N,+5V*%
X120840000Y-98850000D03*
%TO.P,D22,2,DOUT*%
%TO.N,Net-(D21-DIN)*%
X120840000Y-102150000D03*
%TO.P,D22,3,VSS*%
%TO.N,GND*%
X125740000Y-102150000D03*
%TO.P,D22,4,DIN*%
%TO.N,Net-(D22-DIN)*%
X125740000Y-98850000D03*
%TD*%
D11*
%TO.P,S2,1,1*%
%TO.N,GND*%
X130790000Y-106800000D03*
%TO.P,S2,2,2*%
%TO.N,/D6*%
X135790000Y-106800000D03*
%TO.P,S2,3*%
%TO.N,N/C*%
X130790000Y-121200000D03*
%TO.P,S2,NC*%
X135790000Y-121200000D03*
%TD*%
D10*
%TO.P,D17,1,VDD*%
%TO.N,+5V*%
X120840000Y-88850000D03*
%TO.P,D17,2,DOUT*%
%TO.N,Net-(D16-DIN)*%
X120840000Y-92150000D03*
%TO.P,D17,3,VSS*%
%TO.N,GND*%
X125740000Y-92150000D03*
%TO.P,D17,4,DIN*%
%TO.N,Net-(D17-DIN)*%
X125740000Y-88850000D03*
%TD*%
D17*
%TO.P,U2,1,+VIN*%
%TO.N,U2_VIN*%
X147540000Y-131000000D03*
%TO.P,U2,2,GND*%
%TO.N,GND*%
X145000000Y-131000000D03*
%TO.P,U2,3,+VOUT*%
%TO.N,+5V*%
X142460000Y-131000000D03*
%TD*%
%TO.P,D26,1,1*%
%TO.N,+5V*%
X146560000Y-135250000D03*
%TO.P,D26,2,2*%
%TO.N,+5VD*%
X138940000Y-135250000D03*
%TD*%
D18*
%TO.P,D28,1,1*%
%TO.N,/D7*%
X149170000Y-149000000D03*
%TO.P,D28,2,2*%
%TO.N,Net-(D27-Pad2)*%
X159330000Y-149000000D03*
%TD*%
D19*
%TO.P,BAT1,1,1*%
%TO.N,+9V*%
X105250000Y-143580000D03*
%TO.P,BAT1,2,2*%
%TO.N,GND*%
X105250000Y-133420000D03*
%TD*%
D20*
%TO.P,R2,1,1*%
%TO.N,/D8*%
X160500000Y-120580000D03*
%TO.P,R2,2,2*%
%TO.N,Net-(D5-DIN)*%
X160500000Y-110420000D03*
%TD*%
D18*
%TO.P,R1_THT1,1,1*%
%TO.N,+9V*%
X105170000Y-137160000D03*
%TO.P,R1_THT1,2,2*%
%TO.N,XFET*%
X115330000Y-137160000D03*
%TD*%
%TO.P,D27,1,1*%
%TO.N,XFET*%
X138420000Y-144000000D03*
%TO.P,D27,2,2*%
%TO.N,Net-(D27-Pad2)*%
X148580000Y-144000000D03*
%TD*%
D21*
%TO.P,K1,1,1*%
%TO.N,+5V*%
X107000000Y-105460000D03*
%TO.P,K1,2,2*%
%TO.N,Net-(D21-DOUT)*%
X107000000Y-108000000D03*
%TO.P,K1,3,3*%
%TO.N,GND*%
X107000000Y-110540000D03*
%TD*%
D22*
%TO.P,U1,1,~{RST}*%
%TO.N,unconnected-(U1-~{RST}-Pad1)*%
X128070000Y-152945000D03*
D23*
%TO.P,U1,2,A0*%
%TO.N,unconnected-(U1-A0-Pad2)*%
X125530000Y-152945000D03*
%TO.P,U1,3,D0*%
%TO.N,unconnected-(U1-D0-Pad3)*%
X122990000Y-152945000D03*
%TO.P,U1,4,SCK/D5*%
%TO.N,/D5*%
X120450000Y-152945000D03*
%TO.P,U1,5,MISO/D6*%
%TO.N,/D6*%
X117910000Y-152945000D03*
%TO.P,U1,6,MOSI/D7*%
%TO.N,/D7*%
X115370000Y-152945000D03*
%TO.P,U1,7,CS/D8*%
%TO.N,/D8*%
X112830000Y-152945000D03*
%TO.P,U1,8,3V3*%
%TO.N,unconnected-(U1-3V3-Pad8)*%
X110290000Y-152945000D03*
%TO.P,U1,9,5V*%
%TO.N,+5VD*%
X110290000Y-130085000D03*
%TO.P,U1,10,GND*%
%TO.N,GND*%
X112830000Y-130085000D03*
%TO.P,U1,11,D4*%
%TO.N,unconnected-(U1-D4-Pad11)*%
X115370000Y-130085000D03*
%TO.P,U1,12,D3*%
%TO.N,unconnected-(U1-D3-Pad12)*%
X117910000Y-130085000D03*
%TO.P,U1,13,SDA/D2*%
%TO.N,unconnected-(U1-SDA{slash}D2-Pad13)*%
X120450000Y-130085000D03*
%TO.P,U1,14,SCL/D1*%
%TO.N,D1*%
X122990000Y-130085000D03*
%TO.P,U1,15,RX*%
%TO.N,unconnected-(U1-RX-Pad15)*%
X125530000Y-130085000D03*
%TO.P,U1,16,TX*%
%TO.N,unconnected-(U1-TX-Pad16)*%
X128070000Y-130085000D03*
%TD*%
D24*
%TO.N,GND*%
X107500000Y-127250000D03*
X107500000Y-121500000D03*
D25*
%TO.N,XFET*%
X134750000Y-135500000D03*
X134750000Y-144000000D03*
%TO.N,/D7*%
X117250000Y-150649500D03*
X117250000Y-147750000D03*
%TO.N,D1*%
X122750000Y-138250000D03*
X122750000Y-133500000D03*
%TD*%
D26*
%TO.N,GND*%
X108458000Y-112014000D02*
X108458000Y-111998000D01*
D27*
X124845000Y-137770000D02*
X125365000Y-137250000D01*
X128250000Y-137250000D02*
X128750000Y-136750000D01*
X125365000Y-137250000D02*
X128250000Y-137250000D01*
D26*
X107000000Y-110540000D02*
X108458000Y-111998000D01*
D27*
X124845000Y-139200000D02*
X124845000Y-137770000D01*
D28*
%TO.N,+9V*%
X127385000Y-142365000D02*
X127385000Y-139200000D01*
X105170000Y-138000000D02*
X105170000Y-143500000D01*
X123450000Y-146300000D02*
X127385000Y-142365000D01*
X116100000Y-146300000D02*
X117950000Y-144450000D01*
X107970000Y-146300000D02*
X116100000Y-146300000D01*
D27*
X105170000Y-137160000D02*
X108825000Y-137160000D01*
D28*
X105170000Y-143500000D02*
X105250000Y-143580000D01*
X105250000Y-143580000D02*
X107970000Y-146300000D01*
X116100000Y-146300000D02*
X123450000Y-146300000D01*
D29*
%TO.N,+5V*%
X110840000Y-86410000D02*
X111000000Y-86250000D01*
D30*
X107000000Y-66250000D02*
X110900000Y-66250000D01*
D29*
X110840000Y-66310000D02*
X110900000Y-66250000D01*
D30*
X120700000Y-56000000D02*
X110800000Y-56000000D01*
D26*
X104250000Y-105500000D02*
X104250000Y-123750000D01*
D29*
X110800000Y-86250000D02*
X110840000Y-86290000D01*
D30*
X110900000Y-66250000D02*
X120900000Y-66250000D01*
X143750000Y-135250000D02*
X142460000Y-133960000D01*
X130800000Y-56000000D02*
X140800000Y-56000000D01*
D29*
X140840000Y-78850000D02*
X140840000Y-76510000D01*
X150840000Y-56340000D02*
X150500000Y-56000000D01*
X130840000Y-96410000D02*
X131000000Y-96250000D01*
X120840000Y-96290000D02*
X120800000Y-96250000D01*
X110840000Y-58850000D02*
X110840000Y-56040000D01*
D30*
X107000000Y-96250000D02*
X111100000Y-96250000D01*
D26*
X107000000Y-105460000D02*
X104290000Y-105460000D01*
D30*
X146560000Y-135250000D02*
X143750000Y-135250000D01*
X141100000Y-76250000D02*
X150375000Y-76250000D01*
D29*
X140840000Y-98850000D02*
X140840000Y-96290000D01*
X150840000Y-96715000D02*
X150375000Y-96250000D01*
X140840000Y-86310000D02*
X140900000Y-86250000D01*
D30*
X107000000Y-76250000D02*
X111000000Y-76250000D01*
D26*
X104290000Y-105460000D02*
X104250000Y-105500000D01*
D29*
X130840000Y-98850000D02*
X130840000Y-96410000D01*
D30*
X120700000Y-56000000D02*
X130800000Y-56000000D01*
D29*
X140840000Y-96290000D02*
X140800000Y-96250000D01*
X120840000Y-58850000D02*
X120840000Y-56140000D01*
D30*
X140800000Y-96250000D02*
X150375000Y-96250000D01*
D29*
X130840000Y-56040000D02*
X130800000Y-56000000D01*
X140840000Y-68850000D02*
X140840000Y-66310000D01*
X130840000Y-66410000D02*
X131000000Y-66250000D01*
D30*
X121000000Y-86250000D02*
X131000000Y-86250000D01*
D29*
X150840000Y-66715000D02*
X150375000Y-66250000D01*
X110840000Y-98850000D02*
X110840000Y-96510000D01*
X107000000Y-86250000D02*
X110800000Y-86250000D01*
X110840000Y-68850000D02*
X110840000Y-66310000D01*
X130840000Y-76610000D02*
X131200000Y-76250000D01*
X150840000Y-76715000D02*
X150375000Y-76250000D01*
X130840000Y-88850000D02*
X130840000Y-86410000D01*
X140840000Y-66310000D02*
X140900000Y-66250000D01*
X120840000Y-78850000D02*
X120840000Y-76510000D01*
D30*
X111000000Y-76250000D02*
X121100000Y-76250000D01*
D29*
X130840000Y-78850000D02*
X130840000Y-76610000D01*
D30*
X142460000Y-133960000D02*
X142460000Y-131000000D01*
X140900000Y-86250000D02*
X150375000Y-86250000D01*
X110800000Y-56000000D02*
X106900000Y-56000000D01*
D29*
X110840000Y-96510000D02*
X111100000Y-96250000D01*
X120840000Y-56140000D02*
X120700000Y-56000000D01*
X130840000Y-68850000D02*
X130840000Y-66410000D01*
X120840000Y-76510000D02*
X121100000Y-76250000D01*
X150840000Y-78850000D02*
X150840000Y-76715000D01*
D30*
X120900000Y-66250000D02*
X131000000Y-66250000D01*
D29*
X150840000Y-86715000D02*
X150375000Y-86250000D01*
X150840000Y-88850000D02*
X150840000Y-86715000D01*
D30*
X121100000Y-76250000D02*
X131200000Y-76250000D01*
X131200000Y-76250000D02*
X141100000Y-76250000D01*
D29*
X140840000Y-88850000D02*
X140840000Y-86310000D01*
X140840000Y-58850000D02*
X140840000Y-56040000D01*
D30*
X131000000Y-96250000D02*
X140800000Y-96250000D01*
D26*
X104250000Y-123750000D02*
X105000000Y-124500000D01*
D29*
X120840000Y-66310000D02*
X120900000Y-66250000D01*
D30*
X107000000Y-86250000D02*
X111000000Y-86250000D01*
D29*
X140840000Y-56040000D02*
X140800000Y-56000000D01*
D30*
X140800000Y-56000000D02*
X150500000Y-56000000D01*
D29*
X110840000Y-56040000D02*
X110800000Y-56000000D01*
X120840000Y-88850000D02*
X120840000Y-86410000D01*
D30*
X131000000Y-86250000D02*
X140900000Y-86250000D01*
D29*
X150840000Y-58850000D02*
X150840000Y-56340000D01*
X110840000Y-88850000D02*
X110840000Y-86410000D01*
X110840000Y-76410000D02*
X111000000Y-76250000D01*
X140840000Y-76510000D02*
X141100000Y-76250000D01*
X110840000Y-78850000D02*
X110840000Y-76410000D01*
D30*
X140900000Y-66250000D02*
X150375000Y-66250000D01*
D29*
X130840000Y-58850000D02*
X130840000Y-56040000D01*
X150840000Y-98850000D02*
X150840000Y-96715000D01*
D30*
X111000000Y-86250000D02*
X121000000Y-86250000D01*
D29*
X120840000Y-98850000D02*
X120840000Y-96290000D01*
D26*
X105000000Y-124500000D02*
X135960000Y-124500000D01*
D30*
X111100000Y-96250000D02*
X120800000Y-96250000D01*
D29*
X150840000Y-68850000D02*
X150840000Y-66715000D01*
X120840000Y-68850000D02*
X120840000Y-66310000D01*
D26*
X135960000Y-124500000D02*
X142460000Y-131000000D01*
D29*
X130840000Y-86410000D02*
X131000000Y-86250000D01*
D30*
X131000000Y-66250000D02*
X140900000Y-66250000D01*
D26*
X107000000Y-105460000D02*
X107000000Y-56600000D01*
D29*
X120840000Y-86410000D02*
X121000000Y-86250000D01*
D30*
X120800000Y-96250000D02*
X131000000Y-96250000D01*
D27*
%TO.N,Net-(D1-DOUT)*%
X110840000Y-62150000D02*
X113690000Y-65000000D01*
X113690000Y-65000000D02*
X151890000Y-65000000D01*
X151890000Y-65000000D02*
X155740000Y-68850000D01*
%TO.N,Net-(D1-DIN)*%
X120840000Y-62150000D02*
X119900000Y-62150000D01*
X119900000Y-62150000D02*
X116600000Y-58850000D01*
X116600000Y-58850000D02*
X115740000Y-58850000D01*
%TO.N,Net-(D2-DIN)*%
X126600000Y-58850000D02*
X125740000Y-58850000D01*
X129900000Y-62150000D02*
X126600000Y-58850000D01*
X130840000Y-62150000D02*
X129900000Y-62150000D01*
%TO.N,Net-(D3-DIN)*%
X140840000Y-62150000D02*
X139947500Y-62150000D01*
X139947500Y-62150000D02*
X136647500Y-58850000D01*
X136647500Y-58850000D02*
X135740000Y-58850000D01*
%TO.N,Net-(D4-DIN)*%
X146600000Y-58850000D02*
X145740000Y-58850000D01*
X149900000Y-62150000D02*
X146600000Y-58850000D01*
X150840000Y-62150000D02*
X149900000Y-62150000D01*
D29*
%TO.N,Net-(D5-DIN)*%
X159350000Y-58850000D02*
X155740000Y-58850000D01*
X160500000Y-60000000D02*
X159350000Y-58850000D01*
X160500000Y-110420000D02*
X160500000Y-60000000D01*
D27*
%TO.N,Net-(D15-DIN)*%
X151890000Y-75000000D02*
X155740000Y-78850000D01*
X110840000Y-72150000D02*
X113690000Y-75000000D01*
X113690000Y-75000000D02*
X151890000Y-75000000D01*
%TO.N,Net-(D6-DIN)*%
X116600000Y-68850000D02*
X115740000Y-68850000D01*
X120840000Y-72150000D02*
X119900000Y-72150000D01*
X119900000Y-72150000D02*
X116600000Y-68850000D01*
%TO.N,Net-(D7-DIN)*%
X126647500Y-68850000D02*
X125740000Y-68850000D01*
X129947500Y-72150000D02*
X126647500Y-68850000D01*
X130840000Y-72150000D02*
X129947500Y-72150000D01*
%TO.N,Net-(D8-DIN)*%
X136600000Y-68850000D02*
X135740000Y-68850000D01*
X139900000Y-72150000D02*
X136600000Y-68850000D01*
X140840000Y-72150000D02*
X139900000Y-72150000D01*
%TO.N,Net-(D10-DOUT)*%
X146711250Y-68850000D02*
X145740000Y-68850000D01*
X150840000Y-72150000D02*
X150011250Y-72150000D01*
X150011250Y-72150000D02*
X146711250Y-68850000D01*
%TO.N,Net-(D11-DOUT)*%
X151890000Y-85000000D02*
X155740000Y-88850000D01*
X113690000Y-85000000D02*
X151890000Y-85000000D01*
X110840000Y-82150000D02*
X113690000Y-85000000D01*
%TO.N,Net-(D11-DIN)*%
X120840000Y-82150000D02*
X119900000Y-82150000D01*
X116600000Y-78850000D02*
X115740000Y-78850000D01*
X119900000Y-82150000D02*
X116600000Y-78850000D01*
%TO.N,Net-(D12-DIN)*%
X126600000Y-78850000D02*
X125740000Y-78850000D01*
X130840000Y-82150000D02*
X129900000Y-82150000D01*
X129900000Y-82150000D02*
X126600000Y-78850000D01*
%TO.N,Net-(D13-DIN)*%
X136850000Y-78850000D02*
X135740000Y-78850000D01*
X140840000Y-82150000D02*
X140150000Y-82150000D01*
X140150000Y-82150000D02*
X136850000Y-78850000D01*
%TO.N,Net-(D14-DIN)*%
X146850000Y-78850000D02*
X145740000Y-78850000D01*
X149900000Y-82150000D02*
X146600000Y-78850000D01*
X146600000Y-78850000D02*
X145740000Y-78850000D01*
X150840000Y-82150000D02*
X149900000Y-82150000D01*
%TO.N,Net-(D16-DOUT)*%
X151890000Y-95000000D02*
X155740000Y-98850000D01*
X110840000Y-92150000D02*
X113690000Y-95000000D01*
X113690000Y-95000000D02*
X151890000Y-95000000D01*
%TO.N,Net-(D16-DIN)*%
X119900000Y-92150000D02*
X116600000Y-88850000D01*
X116600000Y-88850000D02*
X115740000Y-88850000D01*
X120840000Y-92150000D02*
X119900000Y-92150000D01*
%TO.N,Net-(D17-DIN)*%
X130840000Y-92150000D02*
X129900000Y-92150000D01*
X129900000Y-92150000D02*
X126600000Y-88850000D01*
X126600000Y-88850000D02*
X125740000Y-88850000D01*
%TO.N,Net-(D18-DIN)*%
X136600000Y-88850000D02*
X135740000Y-88850000D01*
X140840000Y-92150000D02*
X139900000Y-92150000D01*
X139900000Y-92150000D02*
X136600000Y-88850000D01*
%TO.N,Net-(D19-DIN)*%
X150840000Y-92150000D02*
X149900000Y-92150000D01*
X149900000Y-92150000D02*
X146600000Y-88850000D01*
X146600000Y-88850000D02*
X145740000Y-88850000D01*
%TO.N,Net-(D21-DOUT)*%
X106290000Y-108000000D02*
X108000000Y-108000000D01*
X108000000Y-108000000D02*
X110840000Y-105160000D01*
X110840000Y-105160000D02*
X110840000Y-102150000D01*
%TO.N,Net-(D21-DIN)*%
X119900000Y-102150000D02*
X116600000Y-98850000D01*
X120840000Y-102150000D02*
X119900000Y-102150000D01*
X116600000Y-98850000D02*
X115740000Y-98850000D01*
%TO.N,Net-(D22-DIN)*%
X129900000Y-102150000D02*
X126600000Y-98850000D01*
X130840000Y-102150000D02*
X129900000Y-102150000D01*
X126600000Y-98850000D02*
X125740000Y-98850000D01*
%TO.N,Net-(D23-DIN)*%
X140840000Y-102150000D02*
X139900000Y-102150000D01*
X136600000Y-98850000D02*
X135740000Y-98850000D01*
X139900000Y-102150000D02*
X136600000Y-98850000D01*
%TO.N,Net-(D24-DIN)*%
X149900000Y-102150000D02*
X146600000Y-98850000D01*
X150840000Y-102150000D02*
X149900000Y-102150000D01*
X146600000Y-98850000D02*
X145740000Y-98850000D01*
D30*
%TO.N,+5VD*%
X111500000Y-127000000D02*
X110290000Y-128210000D01*
X110290000Y-128210000D02*
X110290000Y-130085000D01*
X134500000Y-127000000D02*
X111500000Y-127000000D01*
X134500000Y-127000000D02*
X138940000Y-131440000D01*
X138940000Y-131440000D02*
X138940000Y-135250000D01*
D27*
%TO.N,XFET*%
X126115000Y-133800000D02*
X126115000Y-132370000D01*
X115330000Y-137160000D02*
X115330000Y-137460000D01*
X111750000Y-137160000D02*
X115330000Y-137160000D01*
X129950000Y-139200000D02*
X128655000Y-139200000D01*
X117080000Y-135650000D02*
X115570000Y-137160000D01*
X138420000Y-144000000D02*
X134750000Y-144000000D01*
X117750000Y-135650000D02*
X118150000Y-135250000D01*
X115330000Y-137460000D02*
X117950000Y-140080000D01*
X124000000Y-135250000D02*
X124845000Y-134405000D01*
X134750000Y-144000000D02*
X129950000Y-139200000D01*
X117950000Y-140080000D02*
X117950000Y-142550000D01*
X124845000Y-134405000D02*
X124845000Y-133800000D01*
X131250000Y-132000000D02*
X134750000Y-135500000D01*
X117750000Y-135650000D02*
X117080000Y-135650000D01*
X124845000Y-133800000D02*
X126115000Y-133800000D01*
X115570000Y-137160000D02*
X115330000Y-137160000D01*
X126485000Y-132000000D02*
X131250000Y-132000000D01*
X126115000Y-132370000D02*
X126485000Y-132000000D01*
X118150000Y-135250000D02*
X124000000Y-135250000D01*
%TO.N,Net-(D27-Pad2)*%
X158000000Y-114272740D02*
X158000000Y-121000000D01*
X124790000Y-112800000D02*
X156527260Y-112800000D01*
X161900000Y-124900000D02*
X161900000Y-146430000D01*
X156527260Y-112800000D02*
X158000000Y-114272740D01*
X153580000Y-149000000D02*
X159330000Y-149000000D01*
X148580000Y-144000000D02*
X153580000Y-149000000D01*
X158000000Y-121000000D02*
X161900000Y-124900000D01*
X161900000Y-146430000D02*
X159330000Y-149000000D01*
X118790000Y-106800000D02*
X124790000Y-112800000D01*
%TO.N,/D7*%
X143600000Y-149000000D02*
X149170000Y-149000000D01*
X117250000Y-147750000D02*
X142350000Y-147750000D01*
X142350000Y-147750000D02*
X143600000Y-149000000D01*
X115370000Y-152529500D02*
X115370000Y-152945000D01*
X117250000Y-150649500D02*
X115370000Y-152529500D01*
D29*
%TO.N,/D8*%
X116475000Y-149300000D02*
X112830000Y-152945000D01*
X162800000Y-122880000D02*
X162800000Y-151200000D01*
X161700000Y-152300000D02*
X141204162Y-152300000D01*
X160500000Y-120580000D02*
X162800000Y-122880000D01*
X162800000Y-151200000D02*
X161700000Y-152300000D01*
X138204163Y-149300000D02*
X116475000Y-149300000D01*
X141204162Y-152300000D02*
X138204163Y-149300000D01*
D27*
%TO.N,/D6*%
X141000000Y-112000000D02*
X156858630Y-112000000D01*
X162168630Y-153200000D02*
X140831370Y-153200000D01*
X120655000Y-150200000D02*
X117910000Y-152945000D01*
X140831370Y-153200000D02*
X137831371Y-150200000D01*
X163700000Y-151668630D02*
X162168630Y-153200000D01*
X137831371Y-150200000D02*
X120655000Y-150200000D01*
X135800000Y-106800000D02*
X141000000Y-112000000D01*
X163700000Y-118841370D02*
X163700000Y-151668630D01*
X156858630Y-112000000D02*
X163700000Y-118841370D01*
X135790000Y-106800000D02*
X135800000Y-106800000D01*
%TO.N,/D5*%
X164500000Y-118510000D02*
X164500000Y-152000000D01*
X164500000Y-152000000D02*
X162500000Y-154000000D01*
X152790000Y-106800000D02*
X164500000Y-118510000D01*
X140500000Y-154000000D02*
X137500000Y-151000000D01*
X137500000Y-151000000D02*
X122395000Y-151000000D01*
X122395000Y-151000000D02*
X120450000Y-152945000D01*
X162500000Y-154000000D02*
X140500000Y-154000000D01*
%TO.N,D1*%
X126115000Y-139200000D02*
X126115000Y-140885000D01*
X122750000Y-141000000D02*
X122750000Y-138250000D01*
X126115000Y-140885000D02*
X125500000Y-141500000D01*
X125500000Y-141500000D02*
X123250000Y-141500000D01*
X122990000Y-130260000D02*
X122990000Y-130085000D01*
X123250000Y-141500000D02*
X122750000Y-141000000D01*
X119900000Y-133350000D02*
X122990000Y-130260000D01*
X122750000Y-133500000D02*
X122600000Y-133350000D01*
X122600000Y-133350000D02*
X118700000Y-133350000D01*
X118700000Y-133350000D02*
X119900000Y-133350000D01*
D28*
%TO.N,U2_VIN*%
X127385000Y-135630000D02*
X127385000Y-133800000D01*
X147500000Y-138000000D02*
X134000000Y-138000000D01*
X134000000Y-138000000D02*
X129800000Y-133800000D01*
X126765000Y-136250000D02*
X127385000Y-135630000D01*
X149000000Y-136500000D02*
X147500000Y-138000000D01*
X120250000Y-138000000D02*
X122000000Y-136250000D01*
X129800000Y-133800000D02*
X127385000Y-133800000D01*
X147540000Y-131000000D02*
X149000000Y-132460000D01*
X122000000Y-136250000D02*
X126765000Y-136250000D01*
X120250000Y-143500000D02*
X120250000Y-138000000D01*
X149000000Y-132460000D02*
X149000000Y-136500000D01*
%TD*%
%TA.AperFunction,Conductor*%
%TO.N,GND*%
G36*
X158950000Y-104013000D02*
G01*
X114250000Y-104000000D01*
X114250000Y-103094558D01*
X114291329Y-103100000D01*
X114436447Y-103100000D01*
X114436447Y-103099999D01*
X115143552Y-103099999D01*
X115143553Y-103100000D01*
X116336447Y-103100000D01*
X116336447Y-103099999D01*
X115739999Y-102503553D01*
X115739998Y-102503553D01*
X115143552Y-103099999D01*
X114436447Y-103099999D01*
X115652319Y-101884128D01*
X115713642Y-101850643D01*
X115783334Y-101855627D01*
X115827681Y-101884128D01*
X117043553Y-103100000D01*
X117188671Y-103100000D01*
X117304019Y-103084814D01*
X117304024Y-103084812D01*
X117447541Y-103025366D01*
X117447542Y-103025366D01*
X117570792Y-102930792D01*
X117665366Y-102807542D01*
X117665366Y-102807541D01*
X117724812Y-102664024D01*
X117724814Y-102664019D01*
X117740000Y-102548670D01*
X117740000Y-101751329D01*
X117739825Y-101750000D01*
X118580055Y-101750000D01*
X118803181Y-101973126D01*
X118836666Y-102034449D01*
X118839500Y-102060807D01*
X118839500Y-102548703D01*
X118854696Y-102664142D01*
X118854699Y-102664151D01*
X118914093Y-102807541D01*
X118914200Y-102807798D01*
X119008851Y-102931149D01*
X119132202Y-103025800D01*
X119275849Y-103085301D01*
X119391299Y-103100500D01*
X122288700Y-103100499D01*
X122288703Y-103100499D01*
X122404142Y-103085303D01*
X122404146Y-103085301D01*
X122404151Y-103085301D01*
X122547798Y-103025800D01*
X122671149Y-102931149D01*
X122765800Y-102807798D01*
X122825301Y-102664151D01*
X122840500Y-102548701D01*
X122840499Y-101751300D01*
X122840328Y-101750000D01*
X123740175Y-101750000D01*
X123740000Y-101751329D01*
X123740000Y-102548670D01*
X123755185Y-102664019D01*
X123755187Y-102664024D01*
X123814633Y-102807541D01*
X123814633Y-102807542D01*
X123909207Y-102930792D01*
X124032458Y-103025366D01*
X124175975Y-103084812D01*
X124175980Y-103084814D01*
X124291329Y-103100000D01*
X124436447Y-103100000D01*
X124436447Y-103099999D01*
X125143552Y-103099999D01*
X125143553Y-103100000D01*
X126336447Y-103100000D01*
X126336447Y-103099999D01*
X125739999Y-102503553D01*
X125739998Y-102503553D01*
X125143552Y-103099999D01*
X124436447Y-103099999D01*
X125652319Y-101884128D01*
X125713642Y-101850643D01*
X125783334Y-101855627D01*
X125827681Y-101884128D01*
X127043553Y-103100000D01*
X127188671Y-103100000D01*
X127304019Y-103084814D01*
X127304024Y-103084812D01*
X127447541Y-103025366D01*
X127447542Y-103025366D01*
X127570792Y-102930792D01*
X127665366Y-102807542D01*
X127665366Y-102807541D01*
X127724812Y-102664024D01*
X127724814Y-102664019D01*
X127740000Y-102548670D01*
X127740000Y-101751329D01*
X127739825Y-101750000D01*
X128580055Y-101750000D01*
X128803181Y-101973126D01*
X128836666Y-102034449D01*
X128839500Y-102060807D01*
X128839500Y-102548703D01*
X128854696Y-102664142D01*
X128854699Y-102664151D01*
X128914093Y-102807541D01*
X128914200Y-102807798D01*
X129008851Y-102931149D01*
X129132202Y-103025800D01*
X129275849Y-103085301D01*
X129391299Y-103100500D01*
X132288700Y-103100499D01*
X132288703Y-103100499D01*
X132404142Y-103085303D01*
X132404146Y-103085301D01*
X132404151Y-103085301D01*
X132547798Y-103025800D01*
X132671149Y-102931149D01*
X132765800Y-102807798D01*
X132825301Y-102664151D01*
X132840500Y-102548701D01*
X132840499Y-101751300D01*
X132840328Y-101750000D01*
X133740175Y-101750000D01*
X133740000Y-101751329D01*
X133740000Y-102548670D01*
X133755185Y-102664019D01*
X133755187Y-102664024D01*
X133814633Y-102807541D01*
X133814633Y-102807542D01*
X133909207Y-102930792D01*
X134032458Y-103025366D01*
X134175975Y-103084812D01*
X134175980Y-103084814D01*
X134291329Y-103100000D01*
X134436447Y-103100000D01*
X134436447Y-103099999D01*
X135143552Y-103099999D01*
X135143553Y-103100000D01*
X136336447Y-103100000D01*
X136336447Y-103099999D01*
X135740000Y-102503553D01*
X135143552Y-103099999D01*
X134436447Y-103099999D01*
X135652319Y-101884128D01*
X135713642Y-101850643D01*
X135783334Y-101855627D01*
X135827681Y-101884128D01*
X137043553Y-103100000D01*
X137188671Y-103100000D01*
X137304019Y-103084814D01*
X137304024Y-103084812D01*
X137447541Y-103025366D01*
X137447542Y-103025366D01*
X137570792Y-102930792D01*
X137665366Y-102807542D01*
X137665366Y-102807541D01*
X137724812Y-102664024D01*
X137724814Y-102664019D01*
X137740000Y-102548670D01*
X137740000Y-101751329D01*
X137739825Y-101750000D01*
X138580055Y-101750000D01*
X138803181Y-101973126D01*
X138836666Y-102034449D01*
X138839500Y-102060807D01*
X138839500Y-102548703D01*
X138854696Y-102664142D01*
X138854699Y-102664151D01*
X138914093Y-102807541D01*
X138914200Y-102807798D01*
X139008851Y-102931149D01*
X139132202Y-103025800D01*
X139275849Y-103085301D01*
X139391299Y-103100500D01*
X142288700Y-103100499D01*
X142288703Y-103100499D01*
X142404142Y-103085303D01*
X142404146Y-103085301D01*
X142404151Y-103085301D01*
X142547798Y-103025800D01*
X142671149Y-102931149D01*
X142765800Y-102807798D01*
X142825301Y-102664151D01*
X142840500Y-102548701D01*
X142840499Y-101751300D01*
X142840328Y-101750000D01*
X143740175Y-101750000D01*
X143740000Y-101751329D01*
X143740000Y-102548670D01*
X143755185Y-102664019D01*
X143755187Y-102664024D01*
X143814633Y-102807541D01*
X143814633Y-102807542D01*
X143909207Y-102930792D01*
X144032458Y-103025366D01*
X144175975Y-103084812D01*
X144175980Y-103084814D01*
X144291329Y-103100000D01*
X144436447Y-103100000D01*
X144436447Y-103099999D01*
X145143552Y-103099999D01*
X145143553Y-103100000D01*
X146336447Y-103100000D01*
X146336447Y-103099999D01*
X145740001Y-102503552D01*
X145739999Y-102503552D01*
X145143552Y-103099999D01*
X144436447Y-103099999D01*
X145652319Y-101884128D01*
X145713642Y-101850643D01*
X145783334Y-101855627D01*
X145827681Y-101884128D01*
X147043553Y-103100000D01*
X147188671Y-103100000D01*
X147304019Y-103084814D01*
X147304024Y-103084812D01*
X147447541Y-103025366D01*
X147447542Y-103025366D01*
X147570792Y-102930792D01*
X147665366Y-102807542D01*
X147665366Y-102807541D01*
X147724812Y-102664024D01*
X147724814Y-102664019D01*
X147740000Y-102548670D01*
X147740000Y-101751329D01*
X147739825Y-101750000D01*
X148580055Y-101750000D01*
X148803181Y-101973126D01*
X148836666Y-102034449D01*
X148839500Y-102060807D01*
X148839500Y-102548703D01*
X148854696Y-102664142D01*
X148854699Y-102664151D01*
X148914093Y-102807541D01*
X148914200Y-102807798D01*
X149008851Y-102931149D01*
X149132202Y-103025800D01*
X149275849Y-103085301D01*
X149391299Y-103100500D01*
X152288700Y-103100499D01*
X152288703Y-103100499D01*
X152404142Y-103085303D01*
X152404146Y-103085301D01*
X152404151Y-103085301D01*
X152547798Y-103025800D01*
X152671149Y-102931149D01*
X152765800Y-102807798D01*
X152825301Y-102664151D01*
X152840500Y-102548701D01*
X152840499Y-101751300D01*
X152840328Y-101750000D01*
X153740175Y-101750000D01*
X153740000Y-101751329D01*
X153740000Y-102548670D01*
X153755185Y-102664019D01*
X153755187Y-102664024D01*
X153814633Y-102807541D01*
X153814633Y-102807542D01*
X153909207Y-102930792D01*
X154032458Y-103025366D01*
X154175975Y-103084812D01*
X154175980Y-103084814D01*
X154291329Y-103100000D01*
X154436447Y-103100000D01*
X154436447Y-103099999D01*
X155143552Y-103099999D01*
X155143553Y-103100000D01*
X156336447Y-103100000D01*
X156336447Y-103099999D01*
X155740001Y-102503552D01*
X155739999Y-102503552D01*
X155143552Y-103099999D01*
X154436447Y-103099999D01*
X155652319Y-101884128D01*
X155713642Y-101850643D01*
X155783334Y-101855627D01*
X155827681Y-101884128D01*
X157043553Y-103100000D01*
X157188671Y-103100000D01*
X157304019Y-103084814D01*
X157304024Y-103084812D01*
X157447541Y-103025366D01*
X157447542Y-103025366D01*
X157570792Y-102930792D01*
X157665366Y-102807542D01*
X157665366Y-102807541D01*
X157724812Y-102664024D01*
X157724814Y-102664019D01*
X157740000Y-102548670D01*
X157740000Y-101751329D01*
X157724814Y-101635980D01*
X157724812Y-101635975D01*
X157665366Y-101492458D01*
X157665366Y-101492457D01*
X157570792Y-101369207D01*
X157447541Y-101274633D01*
X157304024Y-101215187D01*
X157304019Y-101215185D01*
X157250000Y-101208073D01*
X157250000Y-99792430D01*
X157304142Y-99785303D01*
X157304146Y-99785301D01*
X157304151Y-99785301D01*
X157447798Y-99725800D01*
X157571149Y-99631149D01*
X157665800Y-99507798D01*
X157725301Y-99364151D01*
X157740500Y-99248701D01*
X157740499Y-98451300D01*
X157740499Y-98451299D01*
X157740499Y-98451296D01*
X157725303Y-98335857D01*
X157725301Y-98335852D01*
X157725301Y-98335849D01*
X157665800Y-98192202D01*
X157571149Y-98068851D01*
X157447798Y-97974200D01*
X157447794Y-97974198D01*
X157304151Y-97914699D01*
X157304149Y-97914698D01*
X157250000Y-97907569D01*
X157250000Y-95000000D01*
X152809946Y-95000000D01*
X152410434Y-94600488D01*
X152400361Y-94587914D01*
X152400174Y-94588070D01*
X152395201Y-94582059D01*
X152342756Y-94532810D01*
X152321035Y-94511089D01*
X152315240Y-94506594D01*
X152310798Y-94502799D01*
X152275396Y-94469554D01*
X152275388Y-94469548D01*
X152256792Y-94459325D01*
X152240531Y-94448644D01*
X152223763Y-94435637D01*
X152200295Y-94425482D01*
X152179178Y-94416343D01*
X152173956Y-94413786D01*
X152131368Y-94390373D01*
X152131365Y-94390372D01*
X152110801Y-94385092D01*
X152092396Y-94378790D01*
X152072927Y-94370365D01*
X152072921Y-94370363D01*
X152024951Y-94362766D01*
X152019236Y-94361582D01*
X152002772Y-94357355D01*
X151972180Y-94349500D01*
X151972177Y-94349500D01*
X151950955Y-94349500D01*
X151931555Y-94347973D01*
X151910596Y-94344653D01*
X151910595Y-94344653D01*
X151886786Y-94346903D01*
X151862230Y-94349225D01*
X151856392Y-94349500D01*
X114250000Y-94349500D01*
X114250000Y-93094558D01*
X114291329Y-93100000D01*
X114436447Y-93100000D01*
X114436447Y-93099999D01*
X115143552Y-93099999D01*
X115143553Y-93100000D01*
X116336447Y-93100000D01*
X116336447Y-93099999D01*
X115739999Y-92503553D01*
X115739998Y-92503553D01*
X115143552Y-93099999D01*
X114436447Y-93099999D01*
X115652318Y-91884128D01*
X115713641Y-91850643D01*
X115783333Y-91855627D01*
X115827680Y-91884128D01*
X117043552Y-93099999D01*
X117043553Y-93100000D01*
X117188671Y-93100000D01*
X117304019Y-93084814D01*
X117304024Y-93084812D01*
X117447541Y-93025366D01*
X117447542Y-93025366D01*
X117570792Y-92930792D01*
X117665366Y-92807542D01*
X117665366Y-92807541D01*
X117724812Y-92664024D01*
X117724814Y-92664019D01*
X117740000Y-92548670D01*
X117740000Y-91751329D01*
X117739825Y-91750000D01*
X118580055Y-91750000D01*
X118803181Y-91973126D01*
X118836666Y-92034449D01*
X118839500Y-92060807D01*
X118839500Y-92548703D01*
X118854696Y-92664142D01*
X118854699Y-92664151D01*
X118914093Y-92807541D01*
X118914200Y-92807798D01*
X119008851Y-92931149D01*
X119132202Y-93025800D01*
X119275849Y-93085301D01*
X119391299Y-93100500D01*
X122288700Y-93100499D01*
X122288703Y-93100499D01*
X122404142Y-93085303D01*
X122404146Y-93085301D01*
X122404151Y-93085301D01*
X122547798Y-93025800D01*
X122671149Y-92931149D01*
X122765800Y-92807798D01*
X122825301Y-92664151D01*
X122840500Y-92548701D01*
X122840499Y-91751300D01*
X122840328Y-91750000D01*
X123740175Y-91750000D01*
X123740000Y-91751329D01*
X123740000Y-92548670D01*
X123755185Y-92664019D01*
X123755187Y-92664024D01*
X123814633Y-92807541D01*
X123814633Y-92807542D01*
X123909207Y-92930792D01*
X124032458Y-93025366D01*
X124175975Y-93084812D01*
X124175980Y-93084814D01*
X124291329Y-93100000D01*
X124436447Y-93100000D01*
X124436447Y-93099999D01*
X125143552Y-93099999D01*
X125143553Y-93100000D01*
X126336447Y-93100000D01*
X126336447Y-93099999D01*
X125739999Y-92503553D01*
X125739998Y-92503553D01*
X125143552Y-93099999D01*
X124436447Y-93099999D01*
X125652319Y-91884128D01*
X125713642Y-91850643D01*
X125783334Y-91855627D01*
X125827681Y-91884128D01*
X127043553Y-93100000D01*
X127188671Y-93100000D01*
X127304019Y-93084814D01*
X127304024Y-93084812D01*
X127447541Y-93025366D01*
X127447542Y-93025366D01*
X127570792Y-92930792D01*
X127665366Y-92807542D01*
X127665366Y-92807541D01*
X127724812Y-92664024D01*
X127724814Y-92664019D01*
X127740000Y-92548670D01*
X127740000Y-91751329D01*
X127739825Y-91750000D01*
X128580055Y-91750000D01*
X128803181Y-91973126D01*
X128836666Y-92034449D01*
X128839500Y-92060807D01*
X128839500Y-92548703D01*
X128854696Y-92664142D01*
X128854699Y-92664151D01*
X128914093Y-92807541D01*
X128914200Y-92807798D01*
X129008851Y-92931149D01*
X129132202Y-93025800D01*
X129275849Y-93085301D01*
X129391299Y-93100500D01*
X132288700Y-93100499D01*
X132288703Y-93100499D01*
X132404142Y-93085303D01*
X132404146Y-93085301D01*
X132404151Y-93085301D01*
X132547798Y-93025800D01*
X132671149Y-92931149D01*
X132765800Y-92807798D01*
X132825301Y-92664151D01*
X132840500Y-92548701D01*
X132840499Y-91751300D01*
X132840328Y-91750000D01*
X133740175Y-91750000D01*
X133740000Y-91751329D01*
X133740000Y-92548670D01*
X133755185Y-92664019D01*
X133755187Y-92664024D01*
X133814633Y-92807541D01*
X133814633Y-92807542D01*
X133909207Y-92930792D01*
X134032458Y-93025366D01*
X134175975Y-93084812D01*
X134175980Y-93084814D01*
X134291329Y-93100000D01*
X134436447Y-93100000D01*
X134436447Y-93099999D01*
X135143552Y-93099999D01*
X135143553Y-93100000D01*
X136336447Y-93100000D01*
X136336447Y-93099999D01*
X135740001Y-92503552D01*
X135739999Y-92503552D01*
X135143552Y-93099999D01*
X134436447Y-93099999D01*
X135652319Y-91884128D01*
X135713642Y-91850643D01*
X135783334Y-91855627D01*
X135827681Y-91884128D01*
X137043553Y-93100000D01*
X137188671Y-93100000D01*
X137304019Y-93084814D01*
X137304024Y-93084812D01*
X137447541Y-93025366D01*
X137447542Y-93025366D01*
X137570792Y-92930792D01*
X137665366Y-92807542D01*
X137665366Y-92807541D01*
X137724812Y-92664024D01*
X137724814Y-92664019D01*
X137740000Y-92548670D01*
X137740000Y-91751329D01*
X137739825Y-91750000D01*
X138580055Y-91750000D01*
X138803181Y-91973126D01*
X138836666Y-92034449D01*
X138839500Y-92060807D01*
X138839500Y-92548703D01*
X138854696Y-92664142D01*
X138854699Y-92664151D01*
X138914093Y-92807541D01*
X138914200Y-92807798D01*
X139008851Y-92931149D01*
X139132202Y-93025800D01*
X139275849Y-93085301D01*
X139391299Y-93100500D01*
X142288700Y-93100499D01*
X142288703Y-93100499D01*
X142404142Y-93085303D01*
X142404146Y-93085301D01*
X142404151Y-93085301D01*
X142547798Y-93025800D01*
X142671149Y-92931149D01*
X142765800Y-92807798D01*
X142825301Y-92664151D01*
X142840500Y-92548701D01*
X142840499Y-91751300D01*
X142840328Y-91750000D01*
X143740175Y-91750000D01*
X143740000Y-91751329D01*
X143740000Y-92548670D01*
X143755185Y-92664019D01*
X143755187Y-92664024D01*
X143814633Y-92807541D01*
X143814633Y-92807542D01*
X143909207Y-92930792D01*
X144032458Y-93025366D01*
X144175975Y-93084812D01*
X144175980Y-93084814D01*
X144291329Y-93100000D01*
X144436447Y-93100000D01*
X144436447Y-93099999D01*
X145143552Y-93099999D01*
X145143553Y-93100000D01*
X146336447Y-93100000D01*
X146336447Y-93099999D01*
X145740001Y-92503552D01*
X145739999Y-92503552D01*
X145143552Y-93099999D01*
X144436447Y-93099999D01*
X145652319Y-91884128D01*
X145713642Y-91850643D01*
X145783334Y-91855627D01*
X145827681Y-91884128D01*
X147043553Y-93100000D01*
X147188671Y-93100000D01*
X147304019Y-93084814D01*
X147304024Y-93084812D01*
X147447541Y-93025366D01*
X147447542Y-93025366D01*
X147570792Y-92930792D01*
X147665366Y-92807542D01*
X147665366Y-92807541D01*
X147724812Y-92664024D01*
X147724814Y-92664019D01*
X147740000Y-92548670D01*
X147740000Y-91751329D01*
X147739825Y-91750000D01*
X148580055Y-91750000D01*
X148803181Y-91973126D01*
X148836666Y-92034449D01*
X148839500Y-92060807D01*
X148839500Y-92548703D01*
X148854696Y-92664142D01*
X148854699Y-92664151D01*
X148914093Y-92807541D01*
X148914200Y-92807798D01*
X149008851Y-92931149D01*
X149132202Y-93025800D01*
X149275849Y-93085301D01*
X149391299Y-93100500D01*
X152288700Y-93100499D01*
X152288703Y-93100499D01*
X152404142Y-93085303D01*
X152404146Y-93085301D01*
X152404151Y-93085301D01*
X152547798Y-93025800D01*
X152671149Y-92931149D01*
X152765800Y-92807798D01*
X152825301Y-92664151D01*
X152840500Y-92548701D01*
X152840499Y-91751300D01*
X152840328Y-91750000D01*
X153740175Y-91750000D01*
X153740000Y-91751329D01*
X153740000Y-92548670D01*
X153755185Y-92664019D01*
X153755187Y-92664024D01*
X153814633Y-92807541D01*
X153814633Y-92807542D01*
X153909207Y-92930792D01*
X154032458Y-93025366D01*
X154175975Y-93084812D01*
X154175980Y-93084814D01*
X154291329Y-93100000D01*
X154436447Y-93100000D01*
X154436447Y-93099999D01*
X155143552Y-93099999D01*
X155143553Y-93100000D01*
X156336447Y-93100000D01*
X156336447Y-93099999D01*
X155740001Y-92503552D01*
X155739999Y-92503552D01*
X155143552Y-93099999D01*
X154436447Y-93099999D01*
X155652319Y-91884128D01*
X155713642Y-91850643D01*
X155783334Y-91855627D01*
X155827681Y-91884128D01*
X157043553Y-93100000D01*
X157188671Y-93100000D01*
X157304019Y-93084814D01*
X157304024Y-93084812D01*
X157447541Y-93025366D01*
X157447542Y-93025366D01*
X157570792Y-92930792D01*
X157665366Y-92807542D01*
X157665366Y-92807541D01*
X157724812Y-92664024D01*
X157724814Y-92664019D01*
X157740000Y-92548670D01*
X157740000Y-91751329D01*
X157724814Y-91635980D01*
X157724812Y-91635975D01*
X157665366Y-91492458D01*
X157665366Y-91492457D01*
X157570792Y-91369207D01*
X157447541Y-91274633D01*
X157304024Y-91215187D01*
X157304019Y-91215185D01*
X157250000Y-91208073D01*
X157250000Y-89792430D01*
X157304142Y-89785303D01*
X157304146Y-89785301D01*
X157304151Y-89785301D01*
X157447798Y-89725800D01*
X157571149Y-89631149D01*
X157665800Y-89507798D01*
X157725301Y-89364151D01*
X157740500Y-89248701D01*
X157740499Y-88451300D01*
X157740499Y-88451299D01*
X157740499Y-88451296D01*
X157725303Y-88335857D01*
X157725301Y-88335852D01*
X157725301Y-88335849D01*
X157665800Y-88192202D01*
X157571149Y-88068851D01*
X157447798Y-87974200D01*
X157447794Y-87974198D01*
X157304151Y-87914699D01*
X157304149Y-87914698D01*
X157250000Y-87907569D01*
X157250000Y-85000000D01*
X152809946Y-85000000D01*
X152410434Y-84600488D01*
X152400361Y-84587914D01*
X152400174Y-84588070D01*
X152395201Y-84582059D01*
X152342756Y-84532810D01*
X152321035Y-84511089D01*
X152315240Y-84506594D01*
X152310798Y-84502799D01*
X152275396Y-84469554D01*
X152275388Y-84469548D01*
X152256792Y-84459325D01*
X152240531Y-84448644D01*
X152223763Y-84435637D01*
X152200295Y-84425482D01*
X152179178Y-84416343D01*
X152173956Y-84413786D01*
X152131368Y-84390373D01*
X152131365Y-84390372D01*
X152110801Y-84385092D01*
X152092396Y-84378790D01*
X152072927Y-84370365D01*
X152072921Y-84370363D01*
X152024951Y-84362766D01*
X152019236Y-84361582D01*
X152002772Y-84357355D01*
X151972180Y-84349500D01*
X151972177Y-84349500D01*
X151950955Y-84349500D01*
X151931555Y-84347973D01*
X151910596Y-84344653D01*
X151910595Y-84344653D01*
X151886786Y-84346903D01*
X151862230Y-84349225D01*
X151856392Y-84349500D01*
X114250000Y-84349500D01*
X114250000Y-83094558D01*
X114291329Y-83100000D01*
X114436447Y-83100000D01*
X114436447Y-83099999D01*
X115143552Y-83099999D01*
X115143553Y-83100000D01*
X116336447Y-83100000D01*
X116336447Y-83099999D01*
X115739999Y-82503553D01*
X115739998Y-82503553D01*
X115143552Y-83099999D01*
X114436447Y-83099999D01*
X115652319Y-81884128D01*
X115713642Y-81850643D01*
X115783334Y-81855627D01*
X115827681Y-81884128D01*
X117043553Y-83100000D01*
X117188671Y-83100000D01*
X117304019Y-83084814D01*
X117304024Y-83084812D01*
X117447541Y-83025366D01*
X117447542Y-83025366D01*
X117570792Y-82930792D01*
X117665366Y-82807542D01*
X117665366Y-82807541D01*
X117724812Y-82664024D01*
X117724814Y-82664019D01*
X117740000Y-82548670D01*
X117740000Y-81751329D01*
X117739825Y-81750000D01*
X118580055Y-81750000D01*
X118803181Y-81973126D01*
X118836666Y-82034449D01*
X118839500Y-82060807D01*
X118839500Y-82548703D01*
X118854696Y-82664142D01*
X118854699Y-82664151D01*
X118914093Y-82807541D01*
X118914200Y-82807798D01*
X119008851Y-82931149D01*
X119132202Y-83025800D01*
X119275849Y-83085301D01*
X119391299Y-83100500D01*
X122288700Y-83100499D01*
X122288703Y-83100499D01*
X122404142Y-83085303D01*
X122404146Y-83085301D01*
X122404151Y-83085301D01*
X122547798Y-83025800D01*
X122671149Y-82931149D01*
X122765800Y-82807798D01*
X122825301Y-82664151D01*
X122840500Y-82548701D01*
X122840499Y-81751300D01*
X122840328Y-81750000D01*
X123740175Y-81750000D01*
X123740000Y-81751329D01*
X123740000Y-82548670D01*
X123755185Y-82664019D01*
X123755187Y-82664024D01*
X123814633Y-82807541D01*
X123814633Y-82807542D01*
X123909207Y-82930792D01*
X124032458Y-83025366D01*
X124175975Y-83084812D01*
X124175980Y-83084814D01*
X124291329Y-83100000D01*
X124436447Y-83100000D01*
X124436447Y-83099999D01*
X125143552Y-83099999D01*
X125143553Y-83100000D01*
X126336447Y-83100000D01*
X126336447Y-83099999D01*
X125740001Y-82503552D01*
X125739999Y-82503552D01*
X125143552Y-83099999D01*
X124436447Y-83099999D01*
X125652319Y-81884127D01*
X125713642Y-81850642D01*
X125783334Y-81855626D01*
X125827681Y-81884127D01*
X127043552Y-83099999D01*
X127043553Y-83100000D01*
X127188671Y-83100000D01*
X127304019Y-83084814D01*
X127304024Y-83084812D01*
X127447541Y-83025366D01*
X127447542Y-83025366D01*
X127570792Y-82930792D01*
X127665366Y-82807542D01*
X127665366Y-82807541D01*
X127724812Y-82664024D01*
X127724814Y-82664019D01*
X127740000Y-82548670D01*
X127740000Y-81751329D01*
X127739825Y-81750000D01*
X128580055Y-81750000D01*
X128803181Y-81973126D01*
X128836666Y-82034449D01*
X128839500Y-82060807D01*
X128839500Y-82548703D01*
X128854696Y-82664142D01*
X128854699Y-82664151D01*
X128914093Y-82807541D01*
X128914200Y-82807798D01*
X129008851Y-82931149D01*
X129132202Y-83025800D01*
X129275849Y-83085301D01*
X129391299Y-83100500D01*
X132288700Y-83100499D01*
X132288703Y-83100499D01*
X132404142Y-83085303D01*
X132404146Y-83085301D01*
X132404151Y-83085301D01*
X132547798Y-83025800D01*
X132671149Y-82931149D01*
X132765800Y-82807798D01*
X132825301Y-82664151D01*
X132840500Y-82548701D01*
X132840499Y-81751300D01*
X132840328Y-81750000D01*
X133740175Y-81750000D01*
X133740000Y-81751329D01*
X133740000Y-82548670D01*
X133755185Y-82664019D01*
X133755187Y-82664024D01*
X133814633Y-82807541D01*
X133814633Y-82807542D01*
X133909207Y-82930792D01*
X134032458Y-83025366D01*
X134175975Y-83084812D01*
X134175980Y-83084814D01*
X134291329Y-83100000D01*
X134436447Y-83100000D01*
X134436447Y-83099999D01*
X135143552Y-83099999D01*
X135143553Y-83100000D01*
X136336447Y-83100000D01*
X136336447Y-83099999D01*
X135740001Y-82503552D01*
X135739999Y-82503552D01*
X135143552Y-83099999D01*
X134436447Y-83099999D01*
X135652319Y-81884128D01*
X135713642Y-81850643D01*
X135783334Y-81855627D01*
X135827681Y-81884128D01*
X137043553Y-83100000D01*
X137188671Y-83100000D01*
X137304019Y-83084814D01*
X137304024Y-83084812D01*
X137447541Y-83025366D01*
X137447542Y-83025366D01*
X137570792Y-82930792D01*
X137665366Y-82807542D01*
X137665366Y-82807541D01*
X137724812Y-82664024D01*
X137724814Y-82664019D01*
X137740000Y-82548670D01*
X137740000Y-81751329D01*
X137739825Y-81750000D01*
X138817855Y-81750000D01*
X138836666Y-81784449D01*
X138839500Y-81810807D01*
X138839500Y-82548703D01*
X138854696Y-82664142D01*
X138854699Y-82664151D01*
X138914093Y-82807541D01*
X138914200Y-82807798D01*
X139008851Y-82931149D01*
X139132202Y-83025800D01*
X139275849Y-83085301D01*
X139391299Y-83100500D01*
X142288700Y-83100499D01*
X142288703Y-83100499D01*
X142404142Y-83085303D01*
X142404146Y-83085301D01*
X142404151Y-83085301D01*
X142547798Y-83025800D01*
X142671149Y-82931149D01*
X142765800Y-82807798D01*
X142825301Y-82664151D01*
X142840500Y-82548701D01*
X142840499Y-81751300D01*
X142840328Y-81750000D01*
X143740175Y-81750000D01*
X143740000Y-81751329D01*
X143740000Y-82548670D01*
X143755185Y-82664019D01*
X143755187Y-82664024D01*
X143814633Y-82807541D01*
X143814633Y-82807542D01*
X143909207Y-82930792D01*
X144032458Y-83025366D01*
X144175975Y-83084812D01*
X144175980Y-83084814D01*
X144291329Y-83100000D01*
X144436447Y-83100000D01*
X144436447Y-83099999D01*
X145143552Y-83099999D01*
X145143553Y-83100000D01*
X146336447Y-83100000D01*
X146336447Y-83099999D01*
X145740001Y-82503552D01*
X145739999Y-82503552D01*
X145143552Y-83099999D01*
X144436447Y-83099999D01*
X145652319Y-81884128D01*
X145713642Y-81850643D01*
X145783334Y-81855627D01*
X145827681Y-81884128D01*
X147043553Y-83100000D01*
X147188671Y-83100000D01*
X147304019Y-83084814D01*
X147304024Y-83084812D01*
X147447541Y-83025366D01*
X147447542Y-83025366D01*
X147570792Y-82930792D01*
X147665366Y-82807542D01*
X147665366Y-82807541D01*
X147724812Y-82664024D01*
X147724814Y-82664019D01*
X147740000Y-82548670D01*
X147740000Y-81751329D01*
X147739825Y-81750000D01*
X148580055Y-81750000D01*
X148803181Y-81973126D01*
X148836666Y-82034449D01*
X148839500Y-82060807D01*
X148839500Y-82548703D01*
X148854696Y-82664142D01*
X148854699Y-82664151D01*
X148914093Y-82807541D01*
X148914200Y-82807798D01*
X149008851Y-82931149D01*
X149132202Y-83025800D01*
X149275849Y-83085301D01*
X149391299Y-83100500D01*
X152288700Y-83100499D01*
X152288703Y-83100499D01*
X152404142Y-83085303D01*
X152404146Y-83085301D01*
X152404151Y-83085301D01*
X152547798Y-83025800D01*
X152671149Y-82931149D01*
X152765800Y-82807798D01*
X152825301Y-82664151D01*
X152840500Y-82548701D01*
X152840499Y-81751300D01*
X152840328Y-81750000D01*
X153740175Y-81750000D01*
X153740000Y-81751329D01*
X153740000Y-82548670D01*
X153755185Y-82664019D01*
X153755187Y-82664024D01*
X153814633Y-82807541D01*
X153814633Y-82807542D01*
X153909207Y-82930792D01*
X154032458Y-83025366D01*
X154175975Y-83084812D01*
X154175980Y-83084814D01*
X154291329Y-83100000D01*
X154436447Y-83100000D01*
X154436447Y-83099999D01*
X155143552Y-83099999D01*
X155143553Y-83100000D01*
X156336447Y-83100000D01*
X156336447Y-83099999D01*
X155740001Y-82503552D01*
X155739999Y-82503552D01*
X155143552Y-83099999D01*
X154436447Y-83099999D01*
X155652319Y-81884128D01*
X155713642Y-81850643D01*
X155783334Y-81855627D01*
X155827681Y-81884128D01*
X157043553Y-83100000D01*
X157188671Y-83100000D01*
X157304019Y-83084814D01*
X157304024Y-83084812D01*
X157447541Y-83025366D01*
X157447542Y-83025366D01*
X157570792Y-82930792D01*
X157665366Y-82807542D01*
X157665366Y-82807541D01*
X157724812Y-82664024D01*
X157724814Y-82664019D01*
X157740000Y-82548670D01*
X157740000Y-81751329D01*
X157724814Y-81635980D01*
X157724812Y-81635975D01*
X157665366Y-81492458D01*
X157665366Y-81492457D01*
X157570792Y-81369207D01*
X157447541Y-81274633D01*
X157304024Y-81215187D01*
X157304019Y-81215185D01*
X157250000Y-81208073D01*
X157250000Y-79792430D01*
X157304142Y-79785303D01*
X157304146Y-79785301D01*
X157304151Y-79785301D01*
X157447798Y-79725800D01*
X157571149Y-79631149D01*
X157665800Y-79507798D01*
X157725301Y-79364151D01*
X157740500Y-79248701D01*
X157740499Y-78451300D01*
X157740499Y-78451299D01*
X157740499Y-78451296D01*
X157725303Y-78335857D01*
X157725301Y-78335852D01*
X157725301Y-78335849D01*
X157665800Y-78192202D01*
X157571149Y-78068851D01*
X157447798Y-77974200D01*
X157447794Y-77974198D01*
X157304151Y-77914699D01*
X157304149Y-77914698D01*
X157250000Y-77907569D01*
X157250000Y-75000000D01*
X152809946Y-75000000D01*
X152410434Y-74600488D01*
X152400361Y-74587914D01*
X152400174Y-74588070D01*
X152395201Y-74582059D01*
X152342756Y-74532810D01*
X152321035Y-74511089D01*
X152315240Y-74506594D01*
X152310798Y-74502799D01*
X152275396Y-74469554D01*
X152275388Y-74469548D01*
X152256792Y-74459325D01*
X152240531Y-74448644D01*
X152223763Y-74435637D01*
X152200295Y-74425482D01*
X152179178Y-74416343D01*
X152173956Y-74413786D01*
X152131368Y-74390373D01*
X152131365Y-74390372D01*
X152110801Y-74385092D01*
X152092396Y-74378790D01*
X152072927Y-74370365D01*
X152072921Y-74370363D01*
X152024951Y-74362766D01*
X152019236Y-74361582D01*
X152002772Y-74357355D01*
X151972180Y-74349500D01*
X151972177Y-74349500D01*
X151950955Y-74349500D01*
X151931555Y-74347973D01*
X151910596Y-74344653D01*
X151910595Y-74344653D01*
X151886786Y-74346903D01*
X151862230Y-74349225D01*
X151856392Y-74349500D01*
X114250000Y-74349500D01*
X114250000Y-73094558D01*
X114291329Y-73100000D01*
X114436447Y-73100000D01*
X114436447Y-73099999D01*
X115143552Y-73099999D01*
X115143553Y-73100000D01*
X116336447Y-73100000D01*
X116336447Y-73099999D01*
X115740000Y-72503553D01*
X115143552Y-73099999D01*
X114436447Y-73099999D01*
X115652318Y-71884128D01*
X115713641Y-71850643D01*
X115783333Y-71855627D01*
X115827680Y-71884128D01*
X117043552Y-73099999D01*
X117043553Y-73100000D01*
X117188671Y-73100000D01*
X117304019Y-73084814D01*
X117304024Y-73084812D01*
X117447541Y-73025366D01*
X117447542Y-73025366D01*
X117570792Y-72930792D01*
X117665366Y-72807542D01*
X117665366Y-72807541D01*
X117724812Y-72664024D01*
X117724814Y-72664019D01*
X117740000Y-72548670D01*
X117740000Y-71751329D01*
X117739825Y-71750000D01*
X118580055Y-71750000D01*
X118803181Y-71973126D01*
X118836666Y-72034449D01*
X118839500Y-72060807D01*
X118839500Y-72548703D01*
X118854696Y-72664142D01*
X118854699Y-72664151D01*
X118914093Y-72807541D01*
X118914200Y-72807798D01*
X119008851Y-72931149D01*
X119132202Y-73025800D01*
X119275849Y-73085301D01*
X119391299Y-73100500D01*
X122288700Y-73100499D01*
X122288703Y-73100499D01*
X122404142Y-73085303D01*
X122404146Y-73085301D01*
X122404151Y-73085301D01*
X122547798Y-73025800D01*
X122671149Y-72931149D01*
X122765800Y-72807798D01*
X122825301Y-72664151D01*
X122840500Y-72548701D01*
X122840499Y-71751300D01*
X122840328Y-71750000D01*
X123740175Y-71750000D01*
X123740000Y-71751329D01*
X123740000Y-72548670D01*
X123755185Y-72664019D01*
X123755187Y-72664024D01*
X123814633Y-72807541D01*
X123814633Y-72807542D01*
X123909207Y-72930792D01*
X124032458Y-73025366D01*
X124175975Y-73084812D01*
X124175980Y-73084814D01*
X124291329Y-73100000D01*
X124436447Y-73100000D01*
X124436447Y-73099999D01*
X125143552Y-73099999D01*
X125143553Y-73100000D01*
X126336447Y-73100000D01*
X126336447Y-73099999D01*
X125740000Y-72503553D01*
X125143552Y-73099999D01*
X124436447Y-73099999D01*
X125652319Y-71884128D01*
X125713642Y-71850643D01*
X125783334Y-71855627D01*
X125827681Y-71884128D01*
X127043553Y-73100000D01*
X127188671Y-73100000D01*
X127304019Y-73084814D01*
X127304024Y-73084812D01*
X127447541Y-73025366D01*
X127447542Y-73025366D01*
X127570792Y-72930792D01*
X127665366Y-72807542D01*
X127665366Y-72807541D01*
X127724812Y-72664024D01*
X127724814Y-72664019D01*
X127740000Y-72548670D01*
X127740000Y-71751329D01*
X127739825Y-71750000D01*
X128627555Y-71750000D01*
X128803181Y-71925626D01*
X128836666Y-71986949D01*
X128839500Y-72013307D01*
X128839500Y-72548703D01*
X128854696Y-72664142D01*
X128854699Y-72664151D01*
X128914093Y-72807541D01*
X128914200Y-72807798D01*
X129008851Y-72931149D01*
X129132202Y-73025800D01*
X129275849Y-73085301D01*
X129391299Y-73100500D01*
X132288700Y-73100499D01*
X132288703Y-73100499D01*
X132404142Y-73085303D01*
X132404146Y-73085301D01*
X132404151Y-73085301D01*
X132547798Y-73025800D01*
X132671149Y-72931149D01*
X132765800Y-72807798D01*
X132825301Y-72664151D01*
X132840500Y-72548701D01*
X132840499Y-71751300D01*
X132840328Y-71750000D01*
X133740175Y-71750000D01*
X133740000Y-71751329D01*
X133740000Y-72548670D01*
X133755185Y-72664019D01*
X133755187Y-72664024D01*
X133814633Y-72807541D01*
X133814633Y-72807542D01*
X133909207Y-72930792D01*
X134032458Y-73025366D01*
X134175975Y-73084812D01*
X134175980Y-73084814D01*
X134291329Y-73100000D01*
X134436447Y-73100000D01*
X134436447Y-73099999D01*
X135143552Y-73099999D01*
X135143553Y-73100000D01*
X136336447Y-73100000D01*
X136336447Y-73099999D01*
X135740000Y-72503553D01*
X135143552Y-73099999D01*
X134436447Y-73099999D01*
X135652319Y-71884127D01*
X135713642Y-71850642D01*
X135783334Y-71855626D01*
X135827681Y-71884127D01*
X137043552Y-73099999D01*
X137043553Y-73100000D01*
X137188671Y-73100000D01*
X137304019Y-73084814D01*
X137304024Y-73084812D01*
X137447541Y-73025366D01*
X137447542Y-73025366D01*
X137570792Y-72930792D01*
X137665366Y-72807542D01*
X137665366Y-72807541D01*
X137724812Y-72664024D01*
X137724814Y-72664019D01*
X137740000Y-72548670D01*
X137740000Y-71751329D01*
X137739825Y-71750000D01*
X138580055Y-71750000D01*
X138803181Y-71973126D01*
X138836666Y-72034449D01*
X138839500Y-72060807D01*
X138839500Y-72548703D01*
X138854696Y-72664142D01*
X138854699Y-72664151D01*
X138914093Y-72807541D01*
X138914200Y-72807798D01*
X139008851Y-72931149D01*
X139132202Y-73025800D01*
X139275849Y-73085301D01*
X139391299Y-73100500D01*
X142288700Y-73100499D01*
X142288703Y-73100499D01*
X142404142Y-73085303D01*
X142404146Y-73085301D01*
X142404151Y-73085301D01*
X142547798Y-73025800D01*
X142671149Y-72931149D01*
X142765800Y-72807798D01*
X142825301Y-72664151D01*
X142840500Y-72548701D01*
X142840499Y-71751300D01*
X142840328Y-71750000D01*
X143740175Y-71750000D01*
X143740000Y-71751329D01*
X143740000Y-72548670D01*
X143755185Y-72664019D01*
X143755187Y-72664024D01*
X143814633Y-72807541D01*
X143814633Y-72807542D01*
X143909207Y-72930792D01*
X144032458Y-73025366D01*
X144175975Y-73084812D01*
X144175980Y-73084814D01*
X144291329Y-73100000D01*
X144436447Y-73100000D01*
X144436447Y-73099999D01*
X145143552Y-73099999D01*
X145143553Y-73100000D01*
X146336447Y-73100000D01*
X146336447Y-73099999D01*
X145740000Y-72503553D01*
X145143552Y-73099999D01*
X144436447Y-73099999D01*
X145652319Y-71884128D01*
X145713642Y-71850643D01*
X145783334Y-71855627D01*
X145827681Y-71884128D01*
X147043553Y-73100000D01*
X147188671Y-73100000D01*
X147304019Y-73084814D01*
X147304024Y-73084812D01*
X147447541Y-73025366D01*
X147447542Y-73025366D01*
X147570792Y-72930792D01*
X147665366Y-72807542D01*
X147665366Y-72807541D01*
X147724812Y-72664024D01*
X147724814Y-72664019D01*
X147740000Y-72548670D01*
X147740000Y-71751329D01*
X147739825Y-71750000D01*
X148691305Y-71750000D01*
X148803181Y-71861876D01*
X148836666Y-71923199D01*
X148839500Y-71949557D01*
X148839500Y-72548703D01*
X148854696Y-72664142D01*
X148854699Y-72664151D01*
X148914093Y-72807541D01*
X148914200Y-72807798D01*
X149008851Y-72931149D01*
X149132202Y-73025800D01*
X149275849Y-73085301D01*
X149391299Y-73100500D01*
X152288700Y-73100499D01*
X152288703Y-73100499D01*
X152404142Y-73085303D01*
X152404146Y-73085301D01*
X152404151Y-73085301D01*
X152547798Y-73025800D01*
X152671149Y-72931149D01*
X152765800Y-72807798D01*
X152825301Y-72664151D01*
X152840500Y-72548701D01*
X152840499Y-71751300D01*
X152840328Y-71750000D01*
X153740175Y-71750000D01*
X153740000Y-71751329D01*
X153740000Y-72548670D01*
X153755185Y-72664019D01*
X153755187Y-72664024D01*
X153814633Y-72807541D01*
X153814633Y-72807542D01*
X153909207Y-72930792D01*
X154032458Y-73025366D01*
X154175975Y-73084812D01*
X154175980Y-73084814D01*
X154291329Y-73100000D01*
X154436447Y-73100000D01*
X154436447Y-73099999D01*
X155143552Y-73099999D01*
X155143553Y-73100000D01*
X156336447Y-73100000D01*
X156336447Y-73099999D01*
X155740000Y-72503553D01*
X155143552Y-73099999D01*
X154436447Y-73099999D01*
X155652319Y-71884128D01*
X155713642Y-71850643D01*
X155783334Y-71855627D01*
X155827681Y-71884128D01*
X157043553Y-73100000D01*
X157188671Y-73100000D01*
X157304019Y-73084814D01*
X157304024Y-73084812D01*
X157447541Y-73025366D01*
X157447542Y-73025366D01*
X157570792Y-72930792D01*
X157665366Y-72807542D01*
X157665366Y-72807541D01*
X157724812Y-72664024D01*
X157724814Y-72664019D01*
X157740000Y-72548670D01*
X157740000Y-71751329D01*
X157724814Y-71635980D01*
X157724812Y-71635975D01*
X157665366Y-71492458D01*
X157665366Y-71492457D01*
X157570792Y-71369207D01*
X157447541Y-71274633D01*
X157304024Y-71215187D01*
X157304019Y-71215185D01*
X157250000Y-71208073D01*
X157250000Y-69792430D01*
X157304142Y-69785303D01*
X157304146Y-69785301D01*
X157304151Y-69785301D01*
X157447798Y-69725800D01*
X157571149Y-69631149D01*
X157665800Y-69507798D01*
X157725301Y-69364151D01*
X157740500Y-69248701D01*
X157740499Y-68451300D01*
X157740499Y-68451299D01*
X157740499Y-68451296D01*
X157725303Y-68335857D01*
X157725301Y-68335852D01*
X157725301Y-68335849D01*
X157665800Y-68192202D01*
X157571149Y-68068851D01*
X157447798Y-67974200D01*
X157447794Y-67974198D01*
X157304151Y-67914699D01*
X157304149Y-67914698D01*
X157250000Y-67907569D01*
X157250000Y-65000000D01*
X152809946Y-65000000D01*
X152410434Y-64600488D01*
X152400361Y-64587914D01*
X152400174Y-64588070D01*
X152395201Y-64582059D01*
X152342756Y-64532810D01*
X152321035Y-64511089D01*
X152315240Y-64506594D01*
X152310798Y-64502799D01*
X152275396Y-64469554D01*
X152275388Y-64469548D01*
X152256792Y-64459325D01*
X152240531Y-64448644D01*
X152223763Y-64435637D01*
X152200295Y-64425482D01*
X152179178Y-64416343D01*
X152173956Y-64413786D01*
X152131368Y-64390373D01*
X152131365Y-64390372D01*
X152110801Y-64385092D01*
X152092396Y-64378790D01*
X152072927Y-64370365D01*
X152072921Y-64370363D01*
X152024951Y-64362766D01*
X152019236Y-64361582D01*
X152002772Y-64357355D01*
X151972180Y-64349500D01*
X151972177Y-64349500D01*
X151950955Y-64349500D01*
X151931555Y-64347973D01*
X151910596Y-64344653D01*
X151910595Y-64344653D01*
X151886786Y-64346903D01*
X151862230Y-64349225D01*
X151856392Y-64349500D01*
X114250000Y-64349500D01*
X114250000Y-63094558D01*
X114291329Y-63100000D01*
X114436447Y-63100000D01*
X114436447Y-63099999D01*
X115143552Y-63099999D01*
X115143553Y-63100000D01*
X116336447Y-63100000D01*
X116336447Y-63099999D01*
X115740000Y-62503553D01*
X115143552Y-63099999D01*
X114436447Y-63099999D01*
X115652319Y-61884128D01*
X115713642Y-61850643D01*
X115783334Y-61855627D01*
X115827681Y-61884128D01*
X117043553Y-63100000D01*
X117188671Y-63100000D01*
X117304019Y-63084814D01*
X117304024Y-63084812D01*
X117447541Y-63025366D01*
X117447542Y-63025366D01*
X117570792Y-62930792D01*
X117665366Y-62807542D01*
X117665366Y-62807541D01*
X117724812Y-62664024D01*
X117724814Y-62664019D01*
X117740000Y-62548670D01*
X117740000Y-61751330D01*
X117739619Y-61748438D01*
X118578118Y-61748063D01*
X118803181Y-61973126D01*
X118836666Y-62034449D01*
X118839500Y-62060807D01*
X118839500Y-62548703D01*
X118854696Y-62664142D01*
X118854699Y-62664151D01*
X118914093Y-62807541D01*
X118914200Y-62807798D01*
X119008851Y-62931149D01*
X119132202Y-63025800D01*
X119275849Y-63085301D01*
X119391299Y-63100500D01*
X122288700Y-63100499D01*
X122288703Y-63100499D01*
X122404142Y-63085303D01*
X122404146Y-63085301D01*
X122404151Y-63085301D01*
X122547798Y-63025800D01*
X122671149Y-62931149D01*
X122765800Y-62807798D01*
X122825301Y-62664151D01*
X122840500Y-62548701D01*
X122840499Y-61751300D01*
X122840498Y-61751296D01*
X122839822Y-61746156D01*
X123740734Y-61745753D01*
X123740000Y-61751329D01*
X123740000Y-62548670D01*
X123755185Y-62664019D01*
X123755187Y-62664024D01*
X123814633Y-62807541D01*
X123814633Y-62807542D01*
X123909207Y-62930792D01*
X124032458Y-63025366D01*
X124175975Y-63084812D01*
X124175980Y-63084814D01*
X124291329Y-63100000D01*
X124436447Y-63100000D01*
X124436447Y-63099999D01*
X125143552Y-63099999D01*
X125143553Y-63100000D01*
X126336447Y-63100000D01*
X126336447Y-63099999D01*
X125740000Y-62503553D01*
X125143552Y-63099999D01*
X124436447Y-63099999D01*
X125652319Y-61884127D01*
X125713642Y-61850642D01*
X125783334Y-61855626D01*
X125827681Y-61884127D01*
X127043552Y-63099999D01*
X127043553Y-63100000D01*
X127188671Y-63100000D01*
X127304019Y-63084814D01*
X127304024Y-63084812D01*
X127447541Y-63025366D01*
X127447542Y-63025366D01*
X127570792Y-62930792D01*
X127665366Y-62807542D01*
X127665366Y-62807541D01*
X127724812Y-62664024D01*
X127724814Y-62664019D01*
X127740000Y-62548670D01*
X127740000Y-61751330D01*
X127739030Y-61743964D01*
X128573646Y-61743591D01*
X128803181Y-61973126D01*
X128836666Y-62034449D01*
X128839500Y-62060807D01*
X128839500Y-62548703D01*
X128854696Y-62664142D01*
X128854699Y-62664151D01*
X128914093Y-62807541D01*
X128914200Y-62807798D01*
X129008851Y-62931149D01*
X129132202Y-63025800D01*
X129275849Y-63085301D01*
X129391299Y-63100500D01*
X132288700Y-63100499D01*
X132288703Y-63100499D01*
X132404142Y-63085303D01*
X132404146Y-63085301D01*
X132404151Y-63085301D01*
X132547798Y-63025800D01*
X132671149Y-62931149D01*
X132765800Y-62807798D01*
X132825301Y-62664151D01*
X132840500Y-62548701D01*
X132840499Y-61751300D01*
X132840498Y-61751296D01*
X132839233Y-61741682D01*
X133741323Y-61741279D01*
X133740000Y-61751329D01*
X133740000Y-62548670D01*
X133755185Y-62664019D01*
X133755187Y-62664024D01*
X133814633Y-62807541D01*
X133814633Y-62807542D01*
X133909207Y-62930792D01*
X134032458Y-63025366D01*
X134175975Y-63084812D01*
X134175980Y-63084814D01*
X134291329Y-63100000D01*
X134436447Y-63100000D01*
X134436447Y-63099999D01*
X135143552Y-63099999D01*
X135143553Y-63100000D01*
X136336447Y-63100000D01*
X136336447Y-63099999D01*
X135740000Y-62503553D01*
X135143552Y-63099999D01*
X134436447Y-63099999D01*
X135652319Y-61884128D01*
X135713642Y-61850643D01*
X135783334Y-61855627D01*
X135827681Y-61884128D01*
X137043553Y-63100000D01*
X137188671Y-63100000D01*
X137304019Y-63084814D01*
X137304024Y-63084812D01*
X137447541Y-63025366D01*
X137447542Y-63025366D01*
X137570792Y-62930792D01*
X137665366Y-62807542D01*
X137665366Y-62807541D01*
X137724812Y-62664024D01*
X137724814Y-62664019D01*
X137740000Y-62548670D01*
X137740000Y-61751330D01*
X137738441Y-61739490D01*
X138616652Y-61739097D01*
X138803181Y-61925626D01*
X138836666Y-61986949D01*
X138839500Y-62013307D01*
X138839500Y-62548703D01*
X138854696Y-62664142D01*
X138854699Y-62664151D01*
X138914093Y-62807541D01*
X138914200Y-62807798D01*
X139008851Y-62931149D01*
X139132202Y-63025800D01*
X139275849Y-63085301D01*
X139391299Y-63100500D01*
X142288700Y-63100499D01*
X142288703Y-63100499D01*
X142404142Y-63085303D01*
X142404146Y-63085301D01*
X142404151Y-63085301D01*
X142547798Y-63025800D01*
X142671149Y-62931149D01*
X142765800Y-62807798D01*
X142825301Y-62664151D01*
X142840500Y-62548701D01*
X142840499Y-61751300D01*
X142840499Y-61751298D01*
X142840499Y-61751296D01*
X142838644Y-61737208D01*
X143741912Y-61736804D01*
X143740000Y-61751329D01*
X143740000Y-62548670D01*
X143755185Y-62664019D01*
X143755187Y-62664024D01*
X143814633Y-62807541D01*
X143814633Y-62807542D01*
X143909207Y-62930792D01*
X144032458Y-63025366D01*
X144175975Y-63084812D01*
X144175980Y-63084814D01*
X144291329Y-63100000D01*
X144436447Y-63100000D01*
X144436447Y-63099999D01*
X145143552Y-63099999D01*
X145143553Y-63100000D01*
X146336447Y-63100000D01*
X146336447Y-63099999D01*
X145740000Y-62503553D01*
X145143552Y-63099999D01*
X144436447Y-63099999D01*
X145652319Y-61884127D01*
X145713642Y-61850642D01*
X145783334Y-61855626D01*
X145827681Y-61884127D01*
X147043552Y-63099999D01*
X147043553Y-63100000D01*
X147188671Y-63100000D01*
X147304019Y-63084814D01*
X147304024Y-63084812D01*
X147447541Y-63025366D01*
X147447542Y-63025366D01*
X147570792Y-62930792D01*
X147665366Y-62807542D01*
X147665366Y-62807541D01*
X147724812Y-62664024D01*
X147724814Y-62664019D01*
X147740000Y-62548670D01*
X147740000Y-61751329D01*
X147737852Y-61735016D01*
X148564701Y-61734646D01*
X148803181Y-61973126D01*
X148836666Y-62034449D01*
X148839500Y-62060807D01*
X148839500Y-62548703D01*
X148854696Y-62664142D01*
X148854699Y-62664151D01*
X148914093Y-62807541D01*
X148914200Y-62807798D01*
X149008851Y-62931149D01*
X149132202Y-63025800D01*
X149275849Y-63085301D01*
X149391299Y-63100500D01*
X152288700Y-63100499D01*
X152288703Y-63100499D01*
X152404142Y-63085303D01*
X152404146Y-63085301D01*
X152404151Y-63085301D01*
X152547798Y-63025800D01*
X152671149Y-62931149D01*
X152765800Y-62807798D01*
X152825301Y-62664151D01*
X152840500Y-62548701D01*
X152840499Y-61751300D01*
X152840499Y-61751298D01*
X152840499Y-61751296D01*
X152838055Y-61732734D01*
X153742501Y-61732329D01*
X153740000Y-61751329D01*
X153740000Y-62548670D01*
X153755185Y-62664019D01*
X153755187Y-62664024D01*
X153814633Y-62807541D01*
X153814633Y-62807542D01*
X153909207Y-62930792D01*
X154032458Y-63025366D01*
X154175975Y-63084812D01*
X154175980Y-63084814D01*
X154291329Y-63100000D01*
X154436447Y-63100000D01*
X154436447Y-63099999D01*
X155143552Y-63099999D01*
X155143553Y-63100000D01*
X156336447Y-63100000D01*
X156336447Y-63099999D01*
X155740000Y-62503553D01*
X155143552Y-63099999D01*
X154436447Y-63099999D01*
X155652319Y-61884128D01*
X155713642Y-61850643D01*
X155783334Y-61855627D01*
X155827681Y-61884128D01*
X157043553Y-63100000D01*
X157188671Y-63100000D01*
X157304019Y-63084814D01*
X157304024Y-63084812D01*
X157447541Y-63025366D01*
X157447542Y-63025366D01*
X157570792Y-62930792D01*
X157665366Y-62807542D01*
X157665366Y-62807541D01*
X157724812Y-62664024D01*
X157724814Y-62664019D01*
X157740000Y-62548670D01*
X157740000Y-61751329D01*
X157737263Y-61730542D01*
X158950000Y-61730000D01*
X158950000Y-104013000D01*
G37*
%TD.AperFunction*%
%TD*%
%TA.AperFunction,Conductor*%
%TO.N,GND*%
G36*
X165193039Y-40020185D02*
G01*
X165238794Y-40072989D01*
X165250000Y-40124499D01*
X165250000Y-42000000D01*
X101290500Y-42000000D01*
X101290500Y-40124500D01*
X101310185Y-40057461D01*
X101362989Y-40011706D01*
X101414500Y-40000500D01*
X165126000Y-40000500D01*
X165193039Y-40020185D01*
G37*
%TD.AperFunction*%
%TD*%
%TA.AperFunction,Conductor*%
%TO.N,GND*%
G36*
X165250000Y-116909321D02*
G01*
X165230315Y-116976360D01*
X165177511Y-117022115D01*
X165108353Y-117032059D01*
X165044797Y-117003034D01*
X165038319Y-116997002D01*
X160872973Y-112831656D01*
X160839488Y-112770333D01*
X160844472Y-112700641D01*
X160886344Y-112644708D01*
X160951808Y-112620291D01*
X160952224Y-112620262D01*
X161043190Y-112614299D01*
X161265354Y-112565046D01*
X161475590Y-112477964D01*
X161667511Y-112355697D01*
X161738778Y-112293197D01*
X161738778Y-112293198D01*
X162373198Y-111658778D01*
X162373197Y-111658778D01*
X162435694Y-111587514D01*
X162435698Y-111587510D01*
X162557965Y-111395589D01*
X162645047Y-111185353D01*
X162694300Y-110963189D01*
X162700500Y-110868592D01*
X162700500Y-109971404D01*
X162694300Y-109876818D01*
X162694300Y-109876815D01*
X162688132Y-109848993D01*
X162645046Y-109654646D01*
X162557964Y-109444410D01*
X162435697Y-109252489D01*
X162435694Y-109252486D01*
X162435693Y-109252484D01*
X162373197Y-109181222D01*
X162373198Y-109181222D01*
X162086819Y-108894843D01*
X162053334Y-108833520D01*
X162050500Y-108807162D01*
X162050500Y-60015608D01*
X162050541Y-60013527D01*
X162052706Y-59906079D01*
X162041960Y-59830364D01*
X162041551Y-59826682D01*
X162035400Y-59750473D01*
X162024889Y-59707829D01*
X162023704Y-59701712D01*
X162017533Y-59658224D01*
X161994788Y-59585233D01*
X161993787Y-59581647D01*
X161975490Y-59507409D01*
X161958279Y-59467014D01*
X161956123Y-59461153D01*
X161943057Y-59419220D01*
X161908885Y-59350796D01*
X161907335Y-59347443D01*
X161877366Y-59277103D01*
X161853892Y-59239983D01*
X161850832Y-59234556D01*
X161831209Y-59195263D01*
X161831207Y-59195260D01*
X161786525Y-59133237D01*
X161784428Y-59130133D01*
X161743566Y-59065516D01*
X161714445Y-59032646D01*
X161710545Y-59027769D01*
X161703634Y-59018177D01*
X161684877Y-58992139D01*
X161684874Y-58992136D01*
X161684872Y-58992133D01*
X161630817Y-58938079D01*
X161628249Y-58935351D01*
X161577560Y-58878135D01*
X161543540Y-58850358D01*
X161538909Y-58846171D01*
X160457397Y-57764659D01*
X160381512Y-57685655D01*
X160320411Y-57639742D01*
X160317498Y-57637412D01*
X160259250Y-57587866D01*
X160235229Y-57573344D01*
X160221665Y-57565144D01*
X160216493Y-57561651D01*
X160181386Y-57535271D01*
X160181387Y-57535271D01*
X160181385Y-57535270D01*
X160181374Y-57535264D01*
X160113689Y-57499738D01*
X160110428Y-57497899D01*
X160045018Y-57458359D01*
X160045015Y-57458357D01*
X160004267Y-57441957D01*
X159998612Y-57439342D01*
X159981892Y-57430567D01*
X159959722Y-57418931D01*
X159887196Y-57394717D01*
X159883681Y-57393425D01*
X159812779Y-57364890D01*
X159769939Y-57355241D01*
X159763926Y-57353564D01*
X159722270Y-57339658D01*
X159722255Y-57339654D01*
X159656607Y-57328986D01*
X159646796Y-57327391D01*
X159643132Y-57326682D01*
X159604183Y-57317910D01*
X159568559Y-57309887D01*
X159524723Y-57307235D01*
X159518523Y-57306545D01*
X159496627Y-57302987D01*
X159475171Y-57299500D01*
X159475169Y-57299500D01*
X159398717Y-57299500D01*
X159394974Y-57299387D01*
X159355597Y-57297005D01*
X159318676Y-57294772D01*
X159318675Y-57294772D01*
X159318674Y-57294772D01*
X159318672Y-57294772D01*
X159283331Y-57298342D01*
X159274984Y-57299186D01*
X159268751Y-57299500D01*
X157902375Y-57299500D01*
X157839617Y-57282446D01*
X157751680Y-57230842D01*
X157530228Y-57147271D01*
X157297838Y-57102326D01*
X157244641Y-57099500D01*
X157244635Y-57099500D01*
X155600337Y-57099500D01*
X154235361Y-57099501D01*
X154182164Y-57102326D01*
X154182158Y-57102326D01*
X153949771Y-57147271D01*
X153728322Y-57230841D01*
X153524173Y-57350641D01*
X153369929Y-57480688D01*
X153305987Y-57508851D01*
X153236969Y-57497974D01*
X153210071Y-57480688D01*
X153055826Y-57350641D01*
X153055825Y-57350640D01*
X152851681Y-57230843D01*
X152851679Y-57230842D01*
X152851677Y-57230841D01*
X152630228Y-57147271D01*
X152490954Y-57120335D01*
X152428872Y-57088279D01*
X152393977Y-57027747D01*
X152390500Y-56998591D01*
X152390500Y-56355608D01*
X152391638Y-56299081D01*
X152392706Y-56246079D01*
X152381960Y-56170364D01*
X152381551Y-56166682D01*
X152375400Y-56090473D01*
X152364889Y-56047829D01*
X152363704Y-56041712D01*
X152357533Y-55998224D01*
X152334788Y-55925233D01*
X152333787Y-55921647D01*
X152315490Y-55847409D01*
X152298278Y-55807012D01*
X152296125Y-55801161D01*
X152288757Y-55777515D01*
X152284528Y-55759106D01*
X152278294Y-55717748D01*
X152260280Y-55598228D01*
X152180738Y-55340359D01*
X152063651Y-55097226D01*
X151911635Y-54874259D01*
X151867531Y-54826726D01*
X151728089Y-54676442D01*
X151687509Y-54644080D01*
X151517102Y-54508185D01*
X151283398Y-54373257D01*
X151283396Y-54373256D01*
X151032195Y-54274666D01*
X151032188Y-54274664D01*
X150823833Y-54227108D01*
X150762855Y-54192999D01*
X150729997Y-54131338D01*
X150735692Y-54061700D01*
X150756729Y-54026164D01*
X150915865Y-53837939D01*
X151077993Y-53583970D01*
X151204823Y-53310658D01*
X151294093Y-53022879D01*
X151344209Y-52725770D01*
X151347492Y-52627587D01*
X154040600Y-52627587D01*
X154055400Y-52725770D01*
X154079704Y-52887015D01*
X154079705Y-52887017D01*
X154079706Y-52887023D01*
X154157038Y-53137726D01*
X154270867Y-53374096D01*
X154270868Y-53374097D01*
X154270870Y-53374100D01*
X154270872Y-53374104D01*
X154322233Y-53449436D01*
X154418667Y-53590879D01*
X154597114Y-53783201D01*
X154597118Y-53783204D01*
X154597119Y-53783205D01*
X154802243Y-53946786D01*
X155029457Y-54077968D01*
X155273684Y-54173820D01*
X155529470Y-54232202D01*
X155529476Y-54232202D01*
X155529479Y-54232203D01*
X155725600Y-54246900D01*
X155725606Y-54246900D01*
X155856600Y-54246900D01*
X156052720Y-54232203D01*
X156052722Y-54232202D01*
X156052730Y-54232202D01*
X156308516Y-54173820D01*
X156552743Y-54077968D01*
X156779957Y-53946786D01*
X156985081Y-53783205D01*
X157163533Y-53590879D01*
X157311328Y-53374104D01*
X157425163Y-53137723D01*
X157502496Y-52887015D01*
X157541600Y-52627582D01*
X157541600Y-52365218D01*
X157502496Y-52105785D01*
X157425163Y-51855077D01*
X157413221Y-51830280D01*
X157311332Y-51618703D01*
X157311331Y-51618702D01*
X157311330Y-51618701D01*
X157311328Y-51618696D01*
X157163533Y-51401921D01*
X157153541Y-51391153D01*
X156985085Y-51209598D01*
X156925475Y-51162061D01*
X156779957Y-51046014D01*
X156552743Y-50914832D01*
X156308516Y-50818980D01*
X156308511Y-50818978D01*
X156308502Y-50818976D01*
X156090918Y-50769314D01*
X156052730Y-50760598D01*
X156052729Y-50760597D01*
X156052725Y-50760597D01*
X156052720Y-50760596D01*
X155856600Y-50745900D01*
X155856594Y-50745900D01*
X155725606Y-50745900D01*
X155725600Y-50745900D01*
X155529479Y-50760596D01*
X155529474Y-50760597D01*
X155273697Y-50818976D01*
X155273678Y-50818982D01*
X155029456Y-50914832D01*
X154802243Y-51046014D01*
X154597114Y-51209598D01*
X154418667Y-51401920D01*
X154270868Y-51618702D01*
X154270867Y-51618703D01*
X154157038Y-51855073D01*
X154079706Y-52105776D01*
X154079705Y-52105781D01*
X154079704Y-52105785D01*
X154076832Y-52124839D01*
X154040600Y-52365212D01*
X154040600Y-52627587D01*
X151347492Y-52627587D01*
X151354277Y-52424631D01*
X151324118Y-52124838D01*
X151254269Y-51831739D01*
X151145977Y-51550566D01*
X151001175Y-51286335D01*
X150822446Y-51043762D01*
X150612980Y-50827176D01*
X150528670Y-50760597D01*
X150376521Y-50640446D01*
X150376517Y-50640443D01*
X150376515Y-50640442D01*
X150117270Y-50486891D01*
X149839872Y-50369264D01*
X149839863Y-50369261D01*
X149549272Y-50289660D01*
X149474616Y-50279620D01*
X149250653Y-50249500D01*
X149024756Y-50249500D01*
X149024748Y-50249500D01*
X148799368Y-50264587D01*
X148799359Y-50264589D01*
X148504094Y-50324604D01*
X148219464Y-50423439D01*
X148219459Y-50423441D01*
X147950546Y-50559328D01*
X147702125Y-50729860D01*
X147478665Y-50931969D01*
X147284132Y-51162064D01*
X147122006Y-51416030D01*
X147122005Y-51416032D01*
X147027960Y-51618696D01*
X146995177Y-51689342D01*
X146995176Y-51689346D01*
X146905907Y-51977118D01*
X146855791Y-52274230D01*
X146845723Y-52575373D01*
X146875881Y-52875160D01*
X146875882Y-52875162D01*
X146945728Y-53168252D01*
X146945733Y-53168266D01*
X147054020Y-53449427D01*
X147054024Y-53449436D01*
X147198825Y-53713665D01*
X147198829Y-53713671D01*
X147370589Y-53946785D01*
X147377554Y-53956238D01*
X147377561Y-53956245D01*
X147409525Y-53989296D01*
X147441981Y-54051171D01*
X147435832Y-54120769D01*
X147393032Y-54175995D01*
X147327169Y-54199315D01*
X147320391Y-54199500D01*
X119277397Y-54199500D01*
X119210358Y-54179815D01*
X119164603Y-54127011D01*
X119154659Y-54057853D01*
X119182704Y-53995442D01*
X119215849Y-53956238D01*
X119315865Y-53837939D01*
X119477993Y-53583970D01*
X119604823Y-53310658D01*
X119694093Y-53022879D01*
X119744209Y-52725770D01*
X119754277Y-52424631D01*
X119724118Y-52124838D01*
X119654269Y-51831739D01*
X119545977Y-51550566D01*
X119401175Y-51286335D01*
X119222446Y-51043762D01*
X119012980Y-50827176D01*
X118928670Y-50760597D01*
X118776521Y-50640446D01*
X118776517Y-50640443D01*
X118776515Y-50640442D01*
X118517270Y-50486891D01*
X118239872Y-50369264D01*
X118239863Y-50369261D01*
X117949272Y-50289660D01*
X117874616Y-50279620D01*
X117650653Y-50249500D01*
X117424756Y-50249500D01*
X117424748Y-50249500D01*
X117199368Y-50264587D01*
X117199359Y-50264589D01*
X116904094Y-50324604D01*
X116619464Y-50423439D01*
X116619459Y-50423441D01*
X116350546Y-50559328D01*
X116102125Y-50729860D01*
X115878665Y-50931969D01*
X115684132Y-51162064D01*
X115522006Y-51416030D01*
X115522005Y-51416032D01*
X115427960Y-51618696D01*
X115395177Y-51689342D01*
X115395176Y-51689346D01*
X115305907Y-51977118D01*
X115255791Y-52274230D01*
X115245723Y-52575373D01*
X115275881Y-52875160D01*
X115275882Y-52875162D01*
X115345728Y-53168252D01*
X115345733Y-53168266D01*
X115454020Y-53449427D01*
X115454024Y-53449436D01*
X115598825Y-53713665D01*
X115598829Y-53713671D01*
X115770589Y-53946785D01*
X115777554Y-53956238D01*
X115777561Y-53956245D01*
X115809525Y-53989296D01*
X115841981Y-54051171D01*
X115835832Y-54120769D01*
X115793032Y-54175995D01*
X115727169Y-54199315D01*
X115720391Y-54199500D01*
X111805017Y-54199500D01*
X111737978Y-54179815D01*
X111692223Y-54127011D01*
X111682279Y-54057853D01*
X111711304Y-53994297D01*
X111743015Y-53968114D01*
X111779957Y-53946786D01*
X111985081Y-53783205D01*
X112163533Y-53590879D01*
X112311328Y-53374104D01*
X112425163Y-53137723D01*
X112502496Y-52887015D01*
X112541600Y-52627582D01*
X112541600Y-52365218D01*
X112502496Y-52105785D01*
X112425163Y-51855077D01*
X112413221Y-51830280D01*
X112311332Y-51618703D01*
X112311331Y-51618702D01*
X112311330Y-51618701D01*
X112311328Y-51618696D01*
X112163533Y-51401921D01*
X112153541Y-51391153D01*
X111985085Y-51209598D01*
X111925475Y-51162061D01*
X111779957Y-51046014D01*
X111552743Y-50914832D01*
X111308516Y-50818980D01*
X111308511Y-50818978D01*
X111308502Y-50818976D01*
X111090918Y-50769314D01*
X111052730Y-50760598D01*
X111052729Y-50760597D01*
X111052725Y-50760597D01*
X111052720Y-50760596D01*
X110856600Y-50745900D01*
X110856594Y-50745900D01*
X110725606Y-50745900D01*
X110725600Y-50745900D01*
X110529479Y-50760596D01*
X110529474Y-50760597D01*
X110273697Y-50818976D01*
X110273678Y-50818982D01*
X110029456Y-50914832D01*
X109802243Y-51046014D01*
X109597114Y-51209598D01*
X109418667Y-51401920D01*
X109270868Y-51618702D01*
X109270867Y-51618703D01*
X109157038Y-51855073D01*
X109079706Y-52105776D01*
X109079705Y-52105781D01*
X109079704Y-52105785D01*
X109076832Y-52124839D01*
X109040600Y-52365212D01*
X109040600Y-52627587D01*
X109055400Y-52725770D01*
X109079704Y-52887015D01*
X109079705Y-52887017D01*
X109079706Y-52887023D01*
X109157038Y-53137726D01*
X109270867Y-53374096D01*
X109270868Y-53374097D01*
X109270870Y-53374100D01*
X109270872Y-53374104D01*
X109322233Y-53449436D01*
X109418667Y-53590879D01*
X109597114Y-53783201D01*
X109597118Y-53783204D01*
X109597119Y-53783205D01*
X109802243Y-53946786D01*
X109839183Y-53968113D01*
X109887398Y-54018680D01*
X109900622Y-54087287D01*
X109874654Y-54152152D01*
X109817740Y-54192680D01*
X109777183Y-54199500D01*
X106832618Y-54199500D01*
X106630898Y-54214616D01*
X106367811Y-54274664D01*
X106367804Y-54274666D01*
X106116603Y-54373256D01*
X106116599Y-54373258D01*
X105882898Y-54508185D01*
X105671915Y-54676438D01*
X105671912Y-54676441D01*
X105532467Y-54826726D01*
X105527895Y-54831172D01*
X105369812Y-54969809D01*
X105369803Y-54969819D01*
X105170973Y-55196540D01*
X105003435Y-55447279D01*
X105003431Y-55447286D01*
X104870062Y-55717731D01*
X104870053Y-55717752D01*
X104773122Y-56003301D01*
X104773118Y-56003316D01*
X104714288Y-56299069D01*
X104714287Y-56299081D01*
X104699500Y-56524693D01*
X104699500Y-103035500D01*
X104679815Y-103102539D01*
X104627011Y-103148294D01*
X104575500Y-103159500D01*
X104367347Y-103159500D01*
X104363291Y-103159367D01*
X104290000Y-103154564D01*
X104214690Y-103159500D01*
X103989096Y-103174285D01*
X103989069Y-103174288D01*
X103693316Y-103233118D01*
X103693301Y-103233122D01*
X103500496Y-103298571D01*
X103407744Y-103330056D01*
X103137281Y-103463433D01*
X102886538Y-103630975D01*
X102731070Y-103767316D01*
X102716553Y-103780048D01*
X102716541Y-103780059D01*
X102659810Y-103829811D01*
X102643799Y-103848065D01*
X102638065Y-103853799D01*
X102619810Y-103869810D01*
X102568216Y-103928642D01*
X102568208Y-103928651D01*
X102420974Y-104096539D01*
X102420964Y-104096551D01*
X102253436Y-104347277D01*
X102120062Y-104617731D01*
X102120053Y-104617752D01*
X102023122Y-104903301D01*
X102023118Y-104903316D01*
X101964288Y-105199069D01*
X101964287Y-105199079D01*
X101964287Y-105199080D01*
X101949500Y-105424690D01*
X101949500Y-105424701D01*
X101944565Y-105500000D01*
X101949367Y-105573280D01*
X101949500Y-105577335D01*
X101949500Y-123672664D01*
X101949367Y-123676719D01*
X101944565Y-123750001D01*
X101949366Y-123823277D01*
X101949368Y-123823285D01*
X101949500Y-123825298D01*
X101949500Y-123825310D01*
X101964287Y-124050918D01*
X101964288Y-124050927D01*
X101982431Y-124142133D01*
X102023118Y-124346683D01*
X102023122Y-124346698D01*
X102120053Y-124632247D01*
X102120062Y-124632268D01*
X102253436Y-124902722D01*
X102420964Y-125153448D01*
X102420970Y-125153455D01*
X102420974Y-125153461D01*
X102570049Y-125323447D01*
X102619811Y-125380189D01*
X102675033Y-125428617D01*
X102677987Y-125431385D01*
X103318624Y-126072022D01*
X103321384Y-126074969D01*
X103369809Y-126130187D01*
X103369819Y-126130196D01*
X103426201Y-126179642D01*
X103426214Y-126179654D01*
X103426553Y-126179951D01*
X103596539Y-126329026D01*
X103716977Y-126409500D01*
X103716978Y-126409500D01*
X103847280Y-126496565D01*
X104117731Y-126629937D01*
X104117736Y-126629939D01*
X104117748Y-126629945D01*
X104403309Y-126726880D01*
X104603251Y-126766651D01*
X104699069Y-126785711D01*
X104699070Y-126785711D01*
X104699080Y-126785713D01*
X104924690Y-126800500D01*
X104924701Y-126800500D01*
X104926715Y-126800632D01*
X104926714Y-126800632D01*
X104935393Y-126801200D01*
X105000000Y-126805435D01*
X105042088Y-126802676D01*
X105073280Y-126800633D01*
X105077335Y-126800500D01*
X108853623Y-126800500D01*
X108920662Y-126820185D01*
X108966417Y-126872989D01*
X108976361Y-126942147D01*
X108950570Y-127001813D01*
X108903315Y-127061068D01*
X108837261Y-127137824D01*
X108821116Y-127163516D01*
X108817094Y-127169185D01*
X108798188Y-127192894D01*
X108798185Y-127192898D01*
X108747564Y-127280575D01*
X108693686Y-127366323D01*
X108693683Y-127366328D01*
X108693680Y-127366335D01*
X108681551Y-127394133D01*
X108678418Y-127400338D01*
X108663257Y-127426601D01*
X108626263Y-127520857D01*
X108585774Y-127613660D01*
X108585772Y-127613667D01*
X108577924Y-127642955D01*
X108575750Y-127649559D01*
X108564666Y-127677803D01*
X108542131Y-127776536D01*
X108515927Y-127874329D01*
X108512532Y-127904465D01*
X108511366Y-127911324D01*
X108504617Y-127940894D01*
X108504615Y-127940902D01*
X108497049Y-128041881D01*
X108485713Y-128142487D01*
X108485713Y-128142488D01*
X108489500Y-128243674D01*
X108489500Y-128763930D01*
X108475598Y-128820978D01*
X108358895Y-129046204D01*
X108262667Y-129316962D01*
X108262666Y-129316965D01*
X108204201Y-129598319D01*
X108189500Y-129813253D01*
X108189500Y-130356747D01*
X108204201Y-130571680D01*
X108204201Y-130571684D01*
X108204202Y-130571686D01*
X108213409Y-130615992D01*
X108262666Y-130853034D01*
X108262667Y-130853037D01*
X108358894Y-131123793D01*
X108358893Y-131123793D01*
X108491098Y-131378935D01*
X108656812Y-131613700D01*
X108741923Y-131704831D01*
X108852947Y-131823708D01*
X109075853Y-132005055D01*
X109293653Y-132137503D01*
X109321382Y-132154365D01*
X109494690Y-132229642D01*
X109584942Y-132268844D01*
X109861642Y-132346371D01*
X110111920Y-132380771D01*
X110146321Y-132385500D01*
X110146322Y-132385500D01*
X110433679Y-132385500D01*
X110464370Y-132381281D01*
X110718358Y-132346371D01*
X110995058Y-132268844D01*
X111151244Y-132201003D01*
X111258617Y-132154365D01*
X111258620Y-132154363D01*
X111258625Y-132154361D01*
X111504147Y-132005055D01*
X111727053Y-131823708D01*
X111923189Y-131613698D01*
X112014000Y-131485046D01*
X112014000Y-132080000D01*
X113665000Y-132080000D01*
X113665000Y-131511965D01*
X113736808Y-131613695D01*
X113736811Y-131613698D01*
X113932947Y-131823708D01*
X114155853Y-132005055D01*
X114373653Y-132137503D01*
X114401382Y-132154365D01*
X114574690Y-132229642D01*
X114664942Y-132268844D01*
X114941642Y-132346371D01*
X115191920Y-132380771D01*
X115226321Y-132385500D01*
X115226322Y-132385500D01*
X115513679Y-132385500D01*
X115544370Y-132381281D01*
X115798358Y-132346371D01*
X116003137Y-132288995D01*
X116072997Y-132289863D01*
X116124269Y-132320716D01*
X116988180Y-133184627D01*
X117021665Y-133245950D01*
X117024499Y-133272308D01*
X117024499Y-133427390D01*
X117004814Y-133494429D01*
X116952010Y-133540184D01*
X116932601Y-133547163D01*
X116928502Y-133548261D01*
X116722267Y-133644431D01*
X116722265Y-133644432D01*
X116535858Y-133774954D01*
X116374954Y-133935858D01*
X116244432Y-134122265D01*
X116244431Y-134122267D01*
X116148260Y-134328503D01*
X116148259Y-134328508D01*
X116147052Y-134333012D01*
X116114962Y-134388590D01*
X116005114Y-134498438D01*
X116013645Y-134509833D01*
X116038063Y-134575297D01*
X116023212Y-134643570D01*
X116012229Y-134660312D01*
X115993021Y-134684988D01*
X115987931Y-134690750D01*
X115905500Y-134773182D01*
X115844180Y-134806666D01*
X115817821Y-134809500D01*
X114819272Y-134809500D01*
X114812396Y-134809950D01*
X114724683Y-134815699D01*
X114502511Y-134864954D01*
X114292275Y-134952037D01*
X114100362Y-135074299D01*
X114100352Y-135074306D01*
X114029090Y-135136803D01*
X114029090Y-135136802D01*
X113517745Y-135648146D01*
X113456422Y-135681631D01*
X113386730Y-135676647D01*
X113330797Y-135634775D01*
X113325881Y-135627482D01*
X113324639Y-135625759D01*
X113324634Y-135625750D01*
X113164722Y-135437751D01*
X113162436Y-135435063D01*
X113030766Y-135323065D01*
X112971750Y-135272866D01*
X112757515Y-135143356D01*
X112585946Y-135074306D01*
X112525280Y-135049890D01*
X112281060Y-134994886D01*
X112281053Y-134994885D01*
X112133946Y-134984500D01*
X111366054Y-134984500D01*
X111218946Y-134994885D01*
X111218939Y-134994886D01*
X110974720Y-135049890D01*
X110974718Y-135049890D01*
X110742484Y-135143356D01*
X110742479Y-135143359D01*
X110528256Y-135272862D01*
X110528246Y-135272869D01*
X110367841Y-135409310D01*
X110304022Y-135437751D01*
X110234958Y-135427175D01*
X110207159Y-135409310D01*
X110142045Y-135353924D01*
X110046750Y-135272866D01*
X109832515Y-135143356D01*
X109660946Y-135074306D01*
X109600280Y-135049890D01*
X109356060Y-134994886D01*
X109356053Y-134994885D01*
X109208946Y-134984500D01*
X108441054Y-134984500D01*
X108293946Y-134994885D01*
X108293939Y-134994886D01*
X108049720Y-135049890D01*
X108049718Y-135049890D01*
X107817484Y-135143356D01*
X107817479Y-135143359D01*
X107603256Y-135272862D01*
X107603246Y-135272869D01*
X107412563Y-135435063D01*
X107250369Y-135625746D01*
X107250362Y-135625756D01*
X107235918Y-135649650D01*
X107184390Y-135696837D01*
X107129801Y-135709500D01*
X107094970Y-135709500D01*
X107027931Y-135689815D01*
X107007289Y-135673181D01*
X106470910Y-135136802D01*
X106470910Y-135136803D01*
X106399646Y-135074305D01*
X106399636Y-135074298D01*
X106207723Y-134952036D01*
X106018649Y-134873719D01*
X105964246Y-134829878D01*
X105942181Y-134763584D01*
X105959460Y-134695884D01*
X105978420Y-134671477D01*
X106063172Y-134586724D01*
X105514884Y-134038437D01*
X105481399Y-133977114D01*
X105486383Y-133907423D01*
X105521362Y-133857043D01*
X105527465Y-133851753D01*
X105527470Y-133851752D01*
X105637869Y-133756090D01*
X105672742Y-133701825D01*
X105725545Y-133656072D01*
X105794703Y-133646128D01*
X105858259Y-133675152D01*
X105864738Y-133681185D01*
X106416724Y-134233172D01*
X106532503Y-134117394D01*
X106532507Y-134117389D01*
X106584428Y-134050551D01*
X106584429Y-134050549D01*
X106639450Y-133917716D01*
X106649999Y-133833733D01*
X106650000Y-133833727D01*
X106650000Y-133006265D01*
X106649999Y-133006264D01*
X106639450Y-132922282D01*
X106600626Y-132828552D01*
X115925000Y-132828552D01*
X115925000Y-133871446D01*
X116446447Y-133349999D01*
X116446447Y-133349998D01*
X115925000Y-132828552D01*
X106600626Y-132828552D01*
X106584429Y-132789449D01*
X106532507Y-132722611D01*
X106532496Y-132722598D01*
X106416725Y-132606827D01*
X105864737Y-133158814D01*
X105803414Y-133192299D01*
X105733722Y-133187315D01*
X105677789Y-133145443D01*
X105672740Y-133138171D01*
X105637871Y-133083912D01*
X105637869Y-133083911D01*
X105637869Y-133083910D01*
X105548263Y-133006265D01*
X105521361Y-132982954D01*
X105483588Y-132924176D01*
X105483588Y-132854306D01*
X105514884Y-132801561D01*
X106063171Y-132253273D01*
X105947401Y-132137503D01*
X105947388Y-132137492D01*
X105880550Y-132085570D01*
X105747716Y-132030549D01*
X105663733Y-132020000D01*
X104836264Y-132020000D01*
X104752282Y-132030549D01*
X104619449Y-132085570D01*
X104552611Y-132137492D01*
X104552606Y-132137496D01*
X104436827Y-132253274D01*
X104985115Y-132801562D01*
X105018600Y-132862885D01*
X105013616Y-132932577D01*
X104978637Y-132982955D01*
X104862133Y-133083907D01*
X104862131Y-133083909D01*
X104827257Y-133138174D01*
X104774452Y-133183928D01*
X104705294Y-133193871D01*
X104641738Y-133164845D01*
X104635261Y-133158814D01*
X104083274Y-132606827D01*
X103967496Y-132722606D01*
X103967492Y-132722611D01*
X103915570Y-132789449D01*
X103915570Y-132789450D01*
X103860549Y-132922283D01*
X103850000Y-133006266D01*
X103850000Y-133833735D01*
X103860549Y-133917717D01*
X103915570Y-134050550D01*
X103967492Y-134117388D01*
X103967503Y-134117401D01*
X104083273Y-134233171D01*
X104635261Y-133681184D01*
X104696584Y-133647699D01*
X104766275Y-133652683D01*
X104822209Y-133694554D01*
X104827253Y-133701818D01*
X104862131Y-133756090D01*
X104862132Y-133756091D01*
X104862133Y-133756092D01*
X104978636Y-133857044D01*
X105016410Y-133915822D01*
X105016410Y-133985692D01*
X104985114Y-134038437D01*
X104436827Y-134586724D01*
X104436827Y-134586725D01*
X104487630Y-134637528D01*
X104521115Y-134698851D01*
X104516131Y-134768543D01*
X104474259Y-134824476D01*
X104426789Y-134846269D01*
X104342517Y-134864952D01*
X104342514Y-134864953D01*
X104132275Y-134952037D01*
X103940362Y-135074299D01*
X103940352Y-135074306D01*
X103869090Y-135136803D01*
X103869090Y-135136802D01*
X103146802Y-135859090D01*
X103146803Y-135859090D01*
X103084305Y-135930353D01*
X103084298Y-135930363D01*
X102962036Y-136122276D01*
X102874953Y-136332512D01*
X102852741Y-136432706D01*
X102825700Y-136554679D01*
X102819783Y-136644968D01*
X102819500Y-136649279D01*
X102819500Y-137670726D01*
X102825699Y-137765316D01*
X102874954Y-137987488D01*
X102962037Y-138197724D01*
X103084299Y-138389637D01*
X103084306Y-138389647D01*
X103146803Y-138460910D01*
X103146802Y-138460910D01*
X103483181Y-138797289D01*
X103516666Y-138858612D01*
X103519500Y-138884970D01*
X103519500Y-142147160D01*
X103499815Y-142214199D01*
X103483182Y-142234840D01*
X103451195Y-142266828D01*
X103376808Y-142341216D01*
X103376803Y-142341222D01*
X103314305Y-142412485D01*
X103314298Y-142412495D01*
X103192036Y-142604408D01*
X103104953Y-142814644D01*
X103055700Y-143036811D01*
X103049500Y-143131411D01*
X103049500Y-144028594D01*
X103055699Y-144123184D01*
X103104954Y-144345356D01*
X103192037Y-144555592D01*
X103314299Y-144747505D01*
X103314306Y-144747515D01*
X103376803Y-144818778D01*
X103376802Y-144818778D01*
X104011222Y-145453198D01*
X104011222Y-145453197D01*
X104082490Y-145515698D01*
X104274411Y-145637965D01*
X104433634Y-145703916D01*
X104484644Y-145725046D01*
X104484645Y-145725046D01*
X104484647Y-145725047D01*
X104706811Y-145774300D01*
X104801408Y-145780500D01*
X105064978Y-145780500D01*
X105132017Y-145800185D01*
X105152658Y-145816819D01*
X106755347Y-147419507D01*
X106758640Y-147423070D01*
X106799311Y-147470689D01*
X106996860Y-147639412D01*
X107218372Y-147775154D01*
X107218374Y-147775154D01*
X107218376Y-147775156D01*
X107279693Y-147800554D01*
X107458390Y-147874573D01*
X107711006Y-147935221D01*
X107905147Y-147950500D01*
X107970000Y-147955604D01*
X108028276Y-147951017D01*
X108032427Y-147950691D01*
X108037293Y-147950500D01*
X115248742Y-147950500D01*
X115315781Y-147970185D01*
X115361536Y-148022989D01*
X115369908Y-148048142D01*
X115383675Y-148111429D01*
X115378691Y-148181121D01*
X115355545Y-148217953D01*
X115356297Y-148218567D01*
X115325367Y-148256448D01*
X115321180Y-148261079D01*
X112974081Y-150608181D01*
X112912758Y-150641666D01*
X112886400Y-150644500D01*
X112686321Y-150644500D01*
X112401642Y-150683629D01*
X112401635Y-150683630D01*
X112193861Y-150741845D01*
X112124942Y-150761156D01*
X112124939Y-150761156D01*
X112124936Y-150761158D01*
X112124935Y-150761158D01*
X111861382Y-150875634D01*
X111624429Y-151019730D01*
X111556921Y-151037744D01*
X111495571Y-151019730D01*
X111258617Y-150875634D01*
X110995063Y-150761158D01*
X110995061Y-150761157D01*
X110995058Y-150761156D01*
X110865183Y-150724767D01*
X110718364Y-150683630D01*
X110718359Y-150683629D01*
X110718358Y-150683629D01*
X110576017Y-150664064D01*
X110433679Y-150644500D01*
X110433678Y-150644500D01*
X110146322Y-150644500D01*
X110146321Y-150644500D01*
X109861642Y-150683629D01*
X109861635Y-150683630D01*
X109653861Y-150741845D01*
X109584942Y-150761156D01*
X109584939Y-150761156D01*
X109584936Y-150761158D01*
X109584935Y-150761158D01*
X109321382Y-150875634D01*
X109075853Y-151024944D01*
X108852950Y-151206289D01*
X108656812Y-151416299D01*
X108491098Y-151651064D01*
X108358894Y-151906206D01*
X108262667Y-152176962D01*
X108262666Y-152176965D01*
X108204201Y-152458319D01*
X108194527Y-152599742D01*
X108191827Y-152639238D01*
X108189500Y-152673253D01*
X108189500Y-153216747D01*
X108204201Y-153431680D01*
X108262666Y-153713034D01*
X108262667Y-153713037D01*
X108358894Y-153983793D01*
X108358893Y-153983793D01*
X108491098Y-154238935D01*
X108656812Y-154473700D01*
X108741923Y-154564830D01*
X108852947Y-154683708D01*
X108919501Y-154737854D01*
X108970460Y-154779312D01*
X109010040Y-154836889D01*
X109012209Y-154906725D01*
X108976277Y-154966647D01*
X108913653Y-154997631D01*
X108892205Y-154999500D01*
X106750000Y-154999500D01*
X106750000Y-152250000D01*
X101290500Y-152250000D01*
X101290500Y-42000000D01*
X165250000Y-42000000D01*
X165250000Y-116909321D01*
G37*
%TD.AperFunction*%
%TA.AperFunction,Conductor*%
G36*
X113760211Y-102770205D02*
G01*
X113817100Y-102810769D01*
X113817957Y-102811873D01*
X113909207Y-102930792D01*
X114032458Y-103025366D01*
X114175975Y-103084812D01*
X114175980Y-103084814D01*
X114250000Y-103094558D01*
X114250000Y-104000000D01*
X158949499Y-104012999D01*
X158949499Y-108807161D01*
X158929814Y-108874200D01*
X158913180Y-108894842D01*
X158626808Y-109181216D01*
X158626803Y-109181222D01*
X158564305Y-109252485D01*
X158564298Y-109252495D01*
X158442036Y-109444408D01*
X158354953Y-109654644D01*
X158305698Y-109876818D01*
X158299758Y-109967455D01*
X158275731Y-110033064D01*
X158220048Y-110075267D01*
X158150387Y-110080666D01*
X158088866Y-110047546D01*
X158088343Y-110047026D01*
X154926819Y-106885502D01*
X154893334Y-106824179D01*
X154890500Y-106797821D01*
X154890500Y-105743216D01*
X154880822Y-105632594D01*
X154875635Y-105573308D01*
X154816739Y-105353504D01*
X154720568Y-105147266D01*
X154590047Y-104960861D01*
X154590045Y-104960858D01*
X154429141Y-104799954D01*
X154242734Y-104669432D01*
X154242732Y-104669431D01*
X154036497Y-104573261D01*
X154036488Y-104573258D01*
X153816697Y-104514366D01*
X153816687Y-104514364D01*
X153646784Y-104499500D01*
X151933216Y-104499500D01*
X151763312Y-104514364D01*
X151763302Y-104514366D01*
X151543511Y-104573258D01*
X151543502Y-104573261D01*
X151337267Y-104669431D01*
X151337265Y-104669432D01*
X151150858Y-104799954D01*
X150989954Y-104960858D01*
X150859432Y-105147265D01*
X150859431Y-105147267D01*
X150763261Y-105353502D01*
X150763258Y-105353511D01*
X150704366Y-105573302D01*
X150704364Y-105573312D01*
X150689500Y-105743216D01*
X150689500Y-107856784D01*
X150704364Y-108026687D01*
X150704366Y-108026697D01*
X150763258Y-108246488D01*
X150763261Y-108246497D01*
X150859431Y-108452732D01*
X150859432Y-108452734D01*
X150989954Y-108639141D01*
X151150858Y-108800045D01*
X151150861Y-108800047D01*
X151337266Y-108930568D01*
X151543504Y-109026739D01*
X151543509Y-109026740D01*
X151543511Y-109026741D01*
X151584497Y-109037723D01*
X151763308Y-109085635D01*
X151933216Y-109100500D01*
X152987821Y-109100500D01*
X153054860Y-109120185D01*
X153075502Y-109136819D01*
X154276502Y-110337819D01*
X154309987Y-110399142D01*
X154305003Y-110468834D01*
X154263131Y-110524767D01*
X154197667Y-110549184D01*
X154188821Y-110549500D01*
X141652179Y-110549500D01*
X141585140Y-110529815D01*
X141564498Y-110513181D01*
X139274244Y-108222926D01*
X146720624Y-108222926D01*
X146747910Y-108243352D01*
X146747913Y-108243354D01*
X146882620Y-108293596D01*
X146882627Y-108293598D01*
X146942155Y-108299999D01*
X146942172Y-108300000D01*
X148637828Y-108300000D01*
X148637844Y-108299999D01*
X148697372Y-108293598D01*
X148697376Y-108293597D01*
X148832090Y-108243351D01*
X148859373Y-108222926D01*
X147790000Y-107153553D01*
X146720624Y-108222926D01*
X139274244Y-108222926D01*
X137926819Y-106875501D01*
X137893334Y-106814178D01*
X137890500Y-106787820D01*
X137890500Y-105853552D01*
X146490000Y-105853552D01*
X146490000Y-107746447D01*
X147436447Y-106800000D01*
X148143553Y-106800000D01*
X149089999Y-107746447D01*
X149090000Y-107746446D01*
X149090000Y-105853553D01*
X149089999Y-105853552D01*
X148143553Y-106799999D01*
X148143553Y-106800000D01*
X147436447Y-106800000D01*
X147436447Y-106799999D01*
X146490000Y-105853552D01*
X137890500Y-105853552D01*
X137890500Y-105743216D01*
X137880822Y-105632594D01*
X137875635Y-105573308D01*
X137823054Y-105377072D01*
X146720624Y-105377072D01*
X147790000Y-106446447D01*
X147790001Y-106446447D01*
X148859374Y-105377072D01*
X148832085Y-105356645D01*
X148697379Y-105306403D01*
X148697372Y-105306401D01*
X148637844Y-105300000D01*
X146942155Y-105300000D01*
X146882627Y-105306401D01*
X146882620Y-105306403D01*
X146747913Y-105356646D01*
X146747909Y-105356647D01*
X146720625Y-105377072D01*
X146720624Y-105377072D01*
X137823054Y-105377072D01*
X137816739Y-105353504D01*
X137720568Y-105147266D01*
X137590047Y-104960861D01*
X137590045Y-104960858D01*
X137429141Y-104799954D01*
X137242734Y-104669432D01*
X137242732Y-104669431D01*
X137036497Y-104573261D01*
X137036488Y-104573258D01*
X136816697Y-104514366D01*
X136816687Y-104514364D01*
X136646784Y-104499500D01*
X134933216Y-104499500D01*
X134763312Y-104514364D01*
X134763302Y-104514366D01*
X134543511Y-104573258D01*
X134543502Y-104573261D01*
X134337267Y-104669431D01*
X134337265Y-104669432D01*
X134150858Y-104799954D01*
X133989954Y-104960858D01*
X133859432Y-105147265D01*
X133859431Y-105147267D01*
X133763261Y-105353502D01*
X133763258Y-105353511D01*
X133704366Y-105573302D01*
X133704364Y-105573312D01*
X133689500Y-105743216D01*
X133689500Y-107856784D01*
X133704364Y-108026687D01*
X133704366Y-108026697D01*
X133763258Y-108246488D01*
X133763261Y-108246497D01*
X133859431Y-108452732D01*
X133859432Y-108452734D01*
X133989954Y-108639141D01*
X134150858Y-108800045D01*
X134150861Y-108800047D01*
X134337266Y-108930568D01*
X134543504Y-109026739D01*
X134543509Y-109026740D01*
X134543511Y-109026741D01*
X134584497Y-109037723D01*
X134763308Y-109085635D01*
X134933216Y-109100500D01*
X135997821Y-109100500D01*
X136064860Y-109120185D01*
X136085502Y-109136819D01*
X138086502Y-111137819D01*
X138119987Y-111199142D01*
X138115003Y-111268834D01*
X138073131Y-111324767D01*
X138007667Y-111349184D01*
X137998821Y-111349500D01*
X125442178Y-111349500D01*
X125375139Y-111329815D01*
X125354497Y-111313181D01*
X122264243Y-108222926D01*
X129720624Y-108222926D01*
X129747910Y-108243352D01*
X129747913Y-108243354D01*
X129882620Y-108293596D01*
X129882627Y-108293598D01*
X129942155Y-108299999D01*
X129942172Y-108300000D01*
X131637828Y-108300000D01*
X131637844Y-108299999D01*
X131697372Y-108293598D01*
X131697376Y-108293597D01*
X131832090Y-108243351D01*
X131859373Y-108222926D01*
X130790000Y-107153553D01*
X129720624Y-108222926D01*
X122264243Y-108222926D01*
X120926819Y-106885502D01*
X120893334Y-106824179D01*
X120890500Y-106797821D01*
X120890500Y-105853552D01*
X129490000Y-105853552D01*
X129490000Y-107746447D01*
X130436447Y-106800000D01*
X131143553Y-106800000D01*
X132089998Y-107746446D01*
X132089999Y-107746445D01*
X132089999Y-105853553D01*
X132089998Y-105853552D01*
X131143553Y-106799999D01*
X131143553Y-106800000D01*
X130436447Y-106800000D01*
X130436447Y-106799999D01*
X129490000Y-105853552D01*
X120890500Y-105853552D01*
X120890500Y-105743216D01*
X120880822Y-105632594D01*
X120875635Y-105573308D01*
X120823054Y-105377072D01*
X129720624Y-105377072D01*
X130790000Y-106446447D01*
X130790001Y-106446447D01*
X131859374Y-105377072D01*
X131832085Y-105356645D01*
X131697379Y-105306403D01*
X131697372Y-105306401D01*
X131637844Y-105300000D01*
X129942155Y-105300000D01*
X129882627Y-105306401D01*
X129882620Y-105306403D01*
X129747913Y-105356646D01*
X129747909Y-105356647D01*
X129720625Y-105377072D01*
X129720624Y-105377072D01*
X120823054Y-105377072D01*
X120816739Y-105353504D01*
X120720568Y-105147266D01*
X120590047Y-104960861D01*
X120590045Y-104960858D01*
X120429141Y-104799954D01*
X120242734Y-104669432D01*
X120242732Y-104669431D01*
X120036497Y-104573261D01*
X120036488Y-104573258D01*
X119816697Y-104514366D01*
X119816687Y-104514364D01*
X119646784Y-104499500D01*
X117933216Y-104499500D01*
X117763312Y-104514364D01*
X117763302Y-104514366D01*
X117543511Y-104573258D01*
X117543502Y-104573261D01*
X117337267Y-104669431D01*
X117337265Y-104669432D01*
X117150858Y-104799954D01*
X116989954Y-104960858D01*
X116859432Y-105147265D01*
X116859431Y-105147267D01*
X116763261Y-105353502D01*
X116763258Y-105353511D01*
X116704366Y-105573302D01*
X116704364Y-105573312D01*
X116689500Y-105743216D01*
X116689500Y-107856784D01*
X116704364Y-108026687D01*
X116704366Y-108026697D01*
X116763258Y-108246488D01*
X116763261Y-108246497D01*
X116859431Y-108452732D01*
X116859432Y-108452734D01*
X116989954Y-108639141D01*
X117150858Y-108800045D01*
X117150861Y-108800047D01*
X117337266Y-108930568D01*
X117543504Y-109026739D01*
X117543509Y-109026740D01*
X117543511Y-109026741D01*
X117584497Y-109037723D01*
X117763308Y-109085635D01*
X117933216Y-109100500D01*
X118987821Y-109100500D01*
X119054860Y-109120185D01*
X119075502Y-109136819D01*
X123697933Y-113759249D01*
X123703024Y-113765014D01*
X123713244Y-113778144D01*
X123719175Y-113785764D01*
X123719177Y-113785765D01*
X123719178Y-113785767D01*
X123785554Y-113846871D01*
X123806758Y-113868075D01*
X123829648Y-113887461D01*
X123896031Y-113948571D01*
X123918037Y-113962948D01*
X123924201Y-113967544D01*
X123944260Y-113984533D01*
X124021740Y-114030701D01*
X124097272Y-114080049D01*
X124121353Y-114090611D01*
X124128181Y-114094126D01*
X124150762Y-114107582D01*
X124234792Y-114140371D01*
X124317409Y-114176610D01*
X124327148Y-114179076D01*
X124342892Y-114183064D01*
X124350216Y-114185410D01*
X124374701Y-114194964D01*
X124462998Y-114213477D01*
X124550437Y-114235620D01*
X124572973Y-114237487D01*
X124576628Y-114237790D01*
X124584238Y-114238899D01*
X124592547Y-114240640D01*
X124609969Y-114244294D01*
X124700108Y-114248022D01*
X124730010Y-114250500D01*
X124730012Y-114250500D01*
X124760014Y-114250500D01*
X124850147Y-114254228D01*
X124876237Y-114250975D01*
X124883910Y-114250500D01*
X155875081Y-114250500D01*
X155942120Y-114270185D01*
X155962762Y-114286819D01*
X156513181Y-114837238D01*
X156546666Y-114898561D01*
X156549500Y-114924919D01*
X156549500Y-120906090D01*
X156549024Y-120913765D01*
X156545772Y-120939853D01*
X156549500Y-121029986D01*
X156549500Y-121059987D01*
X156551977Y-121089892D01*
X156555705Y-121180028D01*
X156555707Y-121180041D01*
X156561100Y-121205761D01*
X156562209Y-121213369D01*
X156564379Y-121239561D01*
X156586522Y-121327000D01*
X156605036Y-121415300D01*
X156605038Y-121415306D01*
X156614589Y-121439784D01*
X156616935Y-121447106D01*
X156623389Y-121472590D01*
X156659623Y-121555194D01*
X156692415Y-121639233D01*
X156692418Y-121639240D01*
X156705872Y-121661819D01*
X156709391Y-121668657D01*
X156719946Y-121692720D01*
X156719950Y-121692726D01*
X156769294Y-121768252D01*
X156815465Y-121845738D01*
X156832451Y-121865794D01*
X156837047Y-121871957D01*
X156851425Y-121893964D01*
X156851429Y-121893969D01*
X156912527Y-121960340D01*
X156927375Y-121977871D01*
X156931920Y-121983237D01*
X156953141Y-122004459D01*
X157014232Y-122070821D01*
X157014237Y-122070826D01*
X157034981Y-122086972D01*
X157040746Y-122092063D01*
X160413181Y-125464497D01*
X160446666Y-125525820D01*
X160449500Y-125552178D01*
X160449500Y-145777821D01*
X160429815Y-145844860D01*
X160413181Y-145865502D01*
X159665502Y-146613181D01*
X159604179Y-146646666D01*
X159577821Y-146649500D01*
X158819272Y-146649500D01*
X158812396Y-146649950D01*
X158724683Y-146655699D01*
X158502511Y-146704954D01*
X158292275Y-146792037D01*
X158100362Y-146914299D01*
X158100352Y-146914306D01*
X158029090Y-146976803D01*
X158029090Y-146976802D01*
X157492711Y-147513181D01*
X157431388Y-147546666D01*
X157405030Y-147549500D01*
X154232179Y-147549500D01*
X154165140Y-147529815D01*
X154144498Y-147513181D01*
X150966819Y-144335502D01*
X150933334Y-144274179D01*
X150930500Y-144247821D01*
X150930500Y-143489274D01*
X150924300Y-143394683D01*
X150911764Y-143338138D01*
X150875046Y-143172514D01*
X150860636Y-143137726D01*
X150813111Y-143022989D01*
X150787964Y-142962278D01*
X150665697Y-142770357D01*
X150665694Y-142770354D01*
X150665693Y-142770352D01*
X150617861Y-142715811D01*
X150603197Y-142699090D01*
X150603198Y-142699090D01*
X150531695Y-142627587D01*
X154040600Y-142627587D01*
X154056298Y-142731730D01*
X154079704Y-142887015D01*
X154079705Y-142887017D01*
X154079706Y-142887023D01*
X154142979Y-143092147D01*
X154155088Y-143131406D01*
X154157038Y-143137726D01*
X154270867Y-143374096D01*
X154270868Y-143374097D01*
X154270870Y-143374100D01*
X154270872Y-143374104D01*
X154409847Y-143577942D01*
X154418667Y-143590879D01*
X154597114Y-143783201D01*
X154597118Y-143783204D01*
X154597119Y-143783205D01*
X154802243Y-143946786D01*
X155029457Y-144077968D01*
X155273684Y-144173820D01*
X155529470Y-144232202D01*
X155529476Y-144232202D01*
X155529479Y-144232203D01*
X155725600Y-144246900D01*
X155725606Y-144246900D01*
X155856600Y-144246900D01*
X156052720Y-144232203D01*
X156052722Y-144232202D01*
X156052730Y-144232202D01*
X156308516Y-144173820D01*
X156552743Y-144077968D01*
X156779957Y-143946786D01*
X156985081Y-143783205D01*
X157163533Y-143590879D01*
X157311328Y-143374104D01*
X157425163Y-143137723D01*
X157502496Y-142887015D01*
X157541600Y-142627582D01*
X157541600Y-142365218D01*
X157502496Y-142105785D01*
X157425163Y-141855077D01*
X157352868Y-141704954D01*
X157311332Y-141618703D01*
X157311331Y-141618702D01*
X157311330Y-141618701D01*
X157311328Y-141618696D01*
X157163533Y-141401921D01*
X157143720Y-141380568D01*
X156985085Y-141209598D01*
X156945633Y-141178136D01*
X156779957Y-141046014D01*
X156552743Y-140914832D01*
X156308516Y-140818980D01*
X156308511Y-140818978D01*
X156308502Y-140818976D01*
X156090918Y-140769314D01*
X156052730Y-140760598D01*
X156052729Y-140760597D01*
X156052725Y-140760597D01*
X156052720Y-140760596D01*
X155856600Y-140745900D01*
X155856594Y-140745900D01*
X155725606Y-140745900D01*
X155725600Y-140745900D01*
X155529479Y-140760596D01*
X155529474Y-140760597D01*
X155273697Y-140818976D01*
X155273678Y-140818982D01*
X155029456Y-140914832D01*
X154802243Y-141046014D01*
X154597114Y-141209598D01*
X154418667Y-141401920D01*
X154270868Y-141618702D01*
X154270867Y-141618703D01*
X154157038Y-141855073D01*
X154079706Y-142105776D01*
X154079705Y-142105781D01*
X154079704Y-142105785D01*
X154078460Y-142114039D01*
X154040600Y-142365212D01*
X154040600Y-142627587D01*
X150531695Y-142627587D01*
X149880910Y-141976802D01*
X149880910Y-141976803D01*
X149809646Y-141914305D01*
X149809636Y-141914298D01*
X149617723Y-141792036D01*
X149407487Y-141704953D01*
X149296403Y-141680326D01*
X149185321Y-141655700D01*
X149090724Y-141649500D01*
X148069272Y-141649500D01*
X148062396Y-141649950D01*
X147974683Y-141655699D01*
X147752511Y-141704954D01*
X147542275Y-141792037D01*
X147350362Y-141914299D01*
X147350352Y-141914306D01*
X147279090Y-141976803D01*
X147279090Y-141976802D01*
X146556802Y-142699090D01*
X146556803Y-142699090D01*
X146546863Y-142710422D01*
X146494305Y-142770353D01*
X146494298Y-142770363D01*
X146372036Y-142962276D01*
X146284953Y-143172512D01*
X146248234Y-143338143D01*
X146235700Y-143394679D01*
X146235582Y-143396488D01*
X146229500Y-143489279D01*
X146229500Y-144510726D01*
X146235699Y-144605316D01*
X146284954Y-144827488D01*
X146372037Y-145037724D01*
X146494299Y-145229637D01*
X146494306Y-145229647D01*
X146556803Y-145300910D01*
X146556802Y-145300910D01*
X147279090Y-146023198D01*
X147279090Y-146023197D01*
X147350358Y-146085698D01*
X147542279Y-146207965D01*
X147701501Y-146273916D01*
X147752512Y-146295046D01*
X147752513Y-146295046D01*
X147752515Y-146295047D01*
X147974679Y-146344300D01*
X148069276Y-146350500D01*
X148827821Y-146350500D01*
X148894860Y-146370185D01*
X148915502Y-146386819D01*
X148966502Y-146437819D01*
X148999987Y-146499142D01*
X148995003Y-146568834D01*
X148953131Y-146624767D01*
X148887667Y-146649184D01*
X148878821Y-146649500D01*
X148659272Y-146649500D01*
X148652396Y-146649950D01*
X148564683Y-146655699D01*
X148342511Y-146704954D01*
X148132275Y-146792037D01*
X147940362Y-146914299D01*
X147940352Y-146914306D01*
X147869090Y-146976803D01*
X147869090Y-146976802D01*
X147332711Y-147513181D01*
X147271388Y-147546666D01*
X147245030Y-147549500D01*
X144252179Y-147549500D01*
X144185140Y-147529815D01*
X144164498Y-147513181D01*
X143442063Y-146790746D01*
X143436972Y-146784981D01*
X143420826Y-146764237D01*
X143420821Y-146764232D01*
X143354459Y-146703141D01*
X143333237Y-146681920D01*
X143327871Y-146677375D01*
X143310340Y-146662527D01*
X143243969Y-146601429D01*
X143243964Y-146601425D01*
X143221957Y-146587047D01*
X143215794Y-146582451D01*
X143195738Y-146565465D01*
X143118252Y-146519294D01*
X143118252Y-146519293D01*
X143042728Y-146469951D01*
X143042726Y-146469950D01*
X143042720Y-146469946D01*
X143018657Y-146459391D01*
X143011819Y-146455872D01*
X142989240Y-146442418D01*
X142989233Y-146442415D01*
X142905194Y-146409623D01*
X142822590Y-146373389D01*
X142797106Y-146366935D01*
X142789784Y-146364589D01*
X142765306Y-146355038D01*
X142765300Y-146355036D01*
X142714096Y-146344300D01*
X142677001Y-146336522D01*
X142647349Y-146329013D01*
X142589561Y-146314379D01*
X142563369Y-146312209D01*
X142555761Y-146311100D01*
X142530041Y-146305707D01*
X142530028Y-146305705D01*
X142439892Y-146301977D01*
X142432415Y-146301357D01*
X142409990Y-146299500D01*
X142409987Y-146299500D01*
X142379986Y-146299500D01*
X142289854Y-146295772D01*
X142289853Y-146295772D01*
X142263762Y-146299024D01*
X142256090Y-146299500D01*
X139735308Y-146299500D01*
X139668269Y-146279815D01*
X139622514Y-146227011D01*
X139612570Y-146157853D01*
X139641595Y-146094297D01*
X139653549Y-146082272D01*
X139720910Y-146023197D01*
X139720910Y-146023198D01*
X140443198Y-145300910D01*
X140443197Y-145300910D01*
X140505698Y-145229642D01*
X140627965Y-145037721D01*
X140715047Y-144827485D01*
X140764300Y-144605321D01*
X140770500Y-144510724D01*
X140770500Y-143489272D01*
X140766047Y-143421336D01*
X140764300Y-143394683D01*
X140751764Y-143338138D01*
X140715046Y-143172514D01*
X140700636Y-143137726D01*
X140653111Y-143022989D01*
X140627964Y-142962278D01*
X140505697Y-142770357D01*
X140505694Y-142770354D01*
X140505693Y-142770352D01*
X140457861Y-142715811D01*
X140443197Y-142699090D01*
X140443198Y-142699090D01*
X139720910Y-141976802D01*
X139720910Y-141976803D01*
X139649646Y-141914305D01*
X139649636Y-141914298D01*
X139457723Y-141792036D01*
X139247487Y-141704953D01*
X139136403Y-141680326D01*
X139025321Y-141655700D01*
X138930724Y-141649500D01*
X137909272Y-141649500D01*
X137902396Y-141649950D01*
X137814683Y-141655699D01*
X137592511Y-141704954D01*
X137382275Y-141792037D01*
X137190362Y-141914299D01*
X137190352Y-141914306D01*
X137119090Y-141976803D01*
X137119090Y-141976802D01*
X136582711Y-142513181D01*
X136521388Y-142546666D01*
X136495030Y-142549500D01*
X136024949Y-142549500D01*
X135957910Y-142529815D01*
X135950639Y-142524767D01*
X135780115Y-142397114D01*
X135780107Y-142397109D01*
X135541518Y-142266830D01*
X135541519Y-142266830D01*
X135455750Y-142234840D01*
X135286801Y-142171825D01*
X135286794Y-142171823D01*
X135286793Y-142171823D01*
X135021168Y-142114040D01*
X135021162Y-142114039D01*
X134953334Y-142109187D01*
X134887870Y-142084769D01*
X134874501Y-142073184D01*
X131042063Y-138240746D01*
X131036972Y-138234981D01*
X131020826Y-138214237D01*
X131020821Y-138214232D01*
X130954459Y-138153141D01*
X130933237Y-138131920D01*
X130927871Y-138127375D01*
X130910340Y-138112527D01*
X130843969Y-138051429D01*
X130843964Y-138051425D01*
X130821957Y-138037047D01*
X130815794Y-138032451D01*
X130795738Y-138015465D01*
X130718252Y-137969294D01*
X130642726Y-137919950D01*
X130642720Y-137919946D01*
X130618657Y-137909391D01*
X130611819Y-137905872D01*
X130589240Y-137892418D01*
X130589233Y-137892415D01*
X130505194Y-137859623D01*
X130422590Y-137823389D01*
X130397106Y-137816935D01*
X130389784Y-137814589D01*
X130365306Y-137805038D01*
X130365293Y-137805034D01*
X130327211Y-137797049D01*
X130265639Y-137764025D01*
X130232883Y-137707775D01*
X130231739Y-137703504D01*
X130135568Y-137497266D01*
X130005047Y-137310861D01*
X130005045Y-137310858D01*
X129844141Y-137149954D01*
X129657734Y-137019432D01*
X129657732Y-137019431D01*
X129451497Y-136923261D01*
X129451488Y-136923258D01*
X129231697Y-136864366D01*
X129231687Y-136864364D01*
X129061784Y-136849500D01*
X128782977Y-136849500D01*
X128715938Y-136829815D01*
X128670183Y-136777011D01*
X128660239Y-136707853D01*
X128688687Y-136644968D01*
X128724412Y-136603140D01*
X128754109Y-136554679D01*
X128860154Y-136381629D01*
X128860156Y-136381625D01*
X128921033Y-136234655D01*
X128924185Y-136227044D01*
X128968028Y-136172642D01*
X129034323Y-136150579D01*
X129038745Y-136150500D01*
X129061784Y-136150500D01*
X129231692Y-136135635D01*
X129451496Y-136076739D01*
X129571318Y-136020863D01*
X129640394Y-136010371D01*
X129704178Y-136038890D01*
X129711404Y-136045564D01*
X132785347Y-139119507D01*
X132788640Y-139123070D01*
X132829311Y-139170689D01*
X133026860Y-139339412D01*
X133248372Y-139475154D01*
X133248374Y-139475154D01*
X133248376Y-139475156D01*
X133309693Y-139500554D01*
X133488390Y-139574573D01*
X133741006Y-139635221D01*
X133935147Y-139650500D01*
X134000000Y-139655604D01*
X134058276Y-139651017D01*
X134062427Y-139650691D01*
X134067293Y-139650500D01*
X147432707Y-139650500D01*
X147437573Y-139650691D01*
X147442052Y-139651043D01*
X147500000Y-139655604D01*
X147564853Y-139650500D01*
X147758994Y-139635221D01*
X148011610Y-139574573D01*
X148251628Y-139475154D01*
X148473140Y-139339412D01*
X148663718Y-139176643D01*
X148670687Y-139170691D01*
X148670689Y-139170689D01*
X148711357Y-139123072D01*
X148714638Y-139119520D01*
X150119501Y-137714656D01*
X150123053Y-137711373D01*
X150170689Y-137670689D01*
X150170694Y-137670682D01*
X150170700Y-137670677D01*
X150277283Y-137545883D01*
X150339412Y-137473140D01*
X150371554Y-137420689D01*
X150475154Y-137251629D01*
X150517269Y-137149954D01*
X150531840Y-137114777D01*
X150544355Y-137084559D01*
X150574573Y-137011610D01*
X150635221Y-136758994D01*
X150650500Y-136564853D01*
X150655604Y-136500000D01*
X150650691Y-136437572D01*
X150650500Y-136432706D01*
X150650500Y-132527292D01*
X150650691Y-132522426D01*
X150651950Y-132506429D01*
X150655604Y-132460000D01*
X150635221Y-132201007D01*
X150626523Y-132164779D01*
X150622848Y-132149473D01*
X150574575Y-131948399D01*
X150574573Y-131948390D01*
X150475154Y-131708372D01*
X150339412Y-131486860D01*
X150170689Y-131289311D01*
X150123070Y-131248640D01*
X150119507Y-131245347D01*
X149926819Y-131052659D01*
X149893334Y-130991336D01*
X149890500Y-130964978D01*
X149890500Y-130489274D01*
X149884300Y-130394683D01*
X149835045Y-130172511D01*
X149813915Y-130121501D01*
X149747964Y-129962278D01*
X149625697Y-129770357D01*
X149611529Y-129754202D01*
X149563197Y-129699090D01*
X149563198Y-129699090D01*
X148840910Y-128976802D01*
X148840910Y-128976803D01*
X148769646Y-128914305D01*
X148769636Y-128914298D01*
X148577723Y-128792036D01*
X148367487Y-128704953D01*
X148256403Y-128680326D01*
X148145321Y-128655700D01*
X148050724Y-128649500D01*
X147029272Y-128649500D01*
X147022396Y-128649950D01*
X146934683Y-128655699D01*
X146712511Y-128704954D01*
X146502275Y-128792037D01*
X146310362Y-128914299D01*
X146310352Y-128914306D01*
X146239090Y-128976803D01*
X146239090Y-128976802D01*
X145923000Y-129292891D01*
X145923000Y-129032000D01*
X144145000Y-129032000D01*
X144145000Y-129360892D01*
X143760910Y-128976802D01*
X143760910Y-128976803D01*
X143689646Y-128914305D01*
X143689636Y-128914298D01*
X143530421Y-128812867D01*
X143509365Y-128795967D01*
X137730538Y-123017140D01*
X137697053Y-122955817D01*
X137702037Y-122886125D01*
X137716646Y-122858334D01*
X137720568Y-122852734D01*
X137816739Y-122646496D01*
X137875635Y-122426692D01*
X137890500Y-122256784D01*
X145689500Y-122256784D01*
X145704364Y-122426687D01*
X145704366Y-122426697D01*
X145763258Y-122646488D01*
X145763261Y-122646497D01*
X145859431Y-122852732D01*
X145859432Y-122852734D01*
X145989954Y-123039141D01*
X146150858Y-123200045D01*
X146150861Y-123200047D01*
X146337266Y-123330568D01*
X146543504Y-123426739D01*
X146763308Y-123485635D01*
X146933216Y-123500500D01*
X148646784Y-123500500D01*
X148816692Y-123485635D01*
X149036496Y-123426739D01*
X149242734Y-123330568D01*
X149429139Y-123200047D01*
X149590047Y-123039139D01*
X149720568Y-122852734D01*
X149816739Y-122646496D01*
X149875635Y-122426692D01*
X149890500Y-122256784D01*
X150689500Y-122256784D01*
X150704364Y-122426687D01*
X150704366Y-122426697D01*
X150763258Y-122646488D01*
X150763261Y-122646497D01*
X150859431Y-122852732D01*
X150859432Y-122852734D01*
X150989954Y-123039141D01*
X151150858Y-123200045D01*
X151150861Y-123200047D01*
X151337266Y-123330568D01*
X151543504Y-123426739D01*
X151763308Y-123485635D01*
X151933216Y-123500500D01*
X153646784Y-123500500D01*
X153816692Y-123485635D01*
X154036496Y-123426739D01*
X154242734Y-123330568D01*
X154429139Y-123200047D01*
X154590047Y-123039139D01*
X154720568Y-122852734D01*
X154816739Y-122646496D01*
X154875635Y-122426692D01*
X154890500Y-122256784D01*
X154890500Y-120143216D01*
X154875635Y-119973308D01*
X154816739Y-119753504D01*
X154720568Y-119547266D01*
X154590047Y-119360861D01*
X154590045Y-119360858D01*
X154429141Y-119199954D01*
X154242734Y-119069432D01*
X154242732Y-119069431D01*
X154036497Y-118973261D01*
X154036488Y-118973258D01*
X153816697Y-118914366D01*
X153816687Y-118914364D01*
X153646784Y-118899500D01*
X151933216Y-118899500D01*
X151763312Y-118914364D01*
X151763302Y-118914366D01*
X151543511Y-118973258D01*
X151543502Y-118973261D01*
X151337267Y-119069431D01*
X151337265Y-119069432D01*
X151150858Y-119199954D01*
X150989954Y-119360858D01*
X150859432Y-119547265D01*
X150859431Y-119547267D01*
X150763261Y-119753502D01*
X150763258Y-119753511D01*
X150704366Y-119973302D01*
X150704364Y-119973312D01*
X150689500Y-120143216D01*
X150689500Y-122256784D01*
X149890500Y-122256784D01*
X149890500Y-120143216D01*
X149875635Y-119973308D01*
X149816739Y-119753504D01*
X149720568Y-119547266D01*
X149590047Y-119360861D01*
X149590045Y-119360858D01*
X149429141Y-119199954D01*
X149242734Y-119069432D01*
X149242732Y-119069431D01*
X149036497Y-118973261D01*
X149036488Y-118973258D01*
X148816697Y-118914366D01*
X148816687Y-118914364D01*
X148646784Y-118899500D01*
X146933216Y-118899500D01*
X146763312Y-118914364D01*
X146763302Y-118914366D01*
X146543511Y-118973258D01*
X146543502Y-118973261D01*
X146337267Y-119069431D01*
X146337265Y-119069432D01*
X146150858Y-119199954D01*
X145989954Y-119360858D01*
X145859432Y-119547265D01*
X145859431Y-119547267D01*
X145763261Y-119753502D01*
X145763258Y-119753511D01*
X145704366Y-119973302D01*
X145704364Y-119973312D01*
X145689500Y-120143216D01*
X145689500Y-122256784D01*
X137890500Y-122256784D01*
X137890500Y-120143216D01*
X137875635Y-119973308D01*
X137816739Y-119753504D01*
X137720568Y-119547266D01*
X137590047Y-119360861D01*
X137590045Y-119360858D01*
X137429141Y-119199954D01*
X137242734Y-119069432D01*
X137242732Y-119069431D01*
X137036497Y-118973261D01*
X137036488Y-118973258D01*
X136816697Y-118914366D01*
X136816687Y-118914364D01*
X136646784Y-118899500D01*
X134933216Y-118899500D01*
X134763312Y-118914364D01*
X134763302Y-118914366D01*
X134543511Y-118973258D01*
X134543502Y-118973261D01*
X134337267Y-119069431D01*
X134337265Y-119069432D01*
X134150858Y-119199954D01*
X133989954Y-119360858D01*
X133859432Y-119547265D01*
X133859431Y-119547267D01*
X133763261Y-119753502D01*
X133763258Y-119753511D01*
X133704366Y-119973302D01*
X133704364Y-119973312D01*
X133689500Y-120143216D01*
X133689500Y-122075500D01*
X133669815Y-122142539D01*
X133617011Y-122188294D01*
X133565500Y-122199500D01*
X133014500Y-122199500D01*
X132947461Y-122179815D01*
X132901706Y-122127011D01*
X132890500Y-122075500D01*
X132890500Y-120143216D01*
X132875635Y-119973312D01*
X132875635Y-119973308D01*
X132816739Y-119753504D01*
X132720568Y-119547266D01*
X132590047Y-119360861D01*
X132590045Y-119360858D01*
X132429141Y-119199954D01*
X132242734Y-119069432D01*
X132242732Y-119069431D01*
X132036497Y-118973261D01*
X132036488Y-118973258D01*
X131816697Y-118914366D01*
X131816687Y-118914364D01*
X131646784Y-118899500D01*
X129933216Y-118899500D01*
X129763312Y-118914364D01*
X129763302Y-118914366D01*
X129543511Y-118973258D01*
X129543502Y-118973261D01*
X129337267Y-119069431D01*
X129337265Y-119069432D01*
X129150858Y-119199954D01*
X128989954Y-119360858D01*
X128859432Y-119547265D01*
X128859431Y-119547267D01*
X128763261Y-119753502D01*
X128763258Y-119753511D01*
X128704366Y-119973302D01*
X128704364Y-119973312D01*
X128689500Y-120143216D01*
X128689500Y-122075500D01*
X128669815Y-122142539D01*
X128617011Y-122188294D01*
X128565500Y-122199500D01*
X121014500Y-122199500D01*
X120947461Y-122179815D01*
X120901706Y-122127011D01*
X120890500Y-122075500D01*
X120890500Y-120143216D01*
X120875635Y-119973312D01*
X120875635Y-119973308D01*
X120816739Y-119753504D01*
X120720568Y-119547266D01*
X120590047Y-119360861D01*
X120590045Y-119360858D01*
X120429141Y-119199954D01*
X120242734Y-119069432D01*
X120242732Y-119069431D01*
X120036497Y-118973261D01*
X120036488Y-118973258D01*
X119816697Y-118914366D01*
X119816687Y-118914364D01*
X119646784Y-118899500D01*
X117933216Y-118899500D01*
X117763312Y-118914364D01*
X117763302Y-118914366D01*
X117543511Y-118973258D01*
X117543502Y-118973261D01*
X117337267Y-119069431D01*
X117337265Y-119069432D01*
X117150858Y-119199954D01*
X116989954Y-119360858D01*
X116859432Y-119547265D01*
X116859431Y-119547267D01*
X116763261Y-119753502D01*
X116763258Y-119753511D01*
X116704366Y-119973302D01*
X116704364Y-119973312D01*
X116689500Y-120143216D01*
X116689500Y-122075500D01*
X116669815Y-122142539D01*
X116617011Y-122188294D01*
X116565500Y-122199500D01*
X116014500Y-122199500D01*
X115947461Y-122179815D01*
X115901706Y-122127011D01*
X115890500Y-122075500D01*
X115890500Y-120143216D01*
X115875635Y-119973312D01*
X115875635Y-119973308D01*
X115816739Y-119753504D01*
X115720568Y-119547266D01*
X115590047Y-119360861D01*
X115590045Y-119360858D01*
X115429141Y-119199954D01*
X115242734Y-119069432D01*
X115242732Y-119069431D01*
X115036497Y-118973261D01*
X115036488Y-118973258D01*
X114816697Y-118914366D01*
X114816687Y-118914364D01*
X114646784Y-118899500D01*
X112933216Y-118899500D01*
X112763312Y-118914364D01*
X112763302Y-118914366D01*
X112543511Y-118973258D01*
X112543502Y-118973261D01*
X112337267Y-119069431D01*
X112337265Y-119069432D01*
X112150858Y-119199954D01*
X111989954Y-119360858D01*
X111859432Y-119547265D01*
X111859431Y-119547267D01*
X111763261Y-119753502D01*
X111763258Y-119753511D01*
X111704366Y-119973302D01*
X111704364Y-119973312D01*
X111689500Y-120143216D01*
X111689500Y-122075500D01*
X111669815Y-122142539D01*
X111617011Y-122188294D01*
X111565500Y-122199500D01*
X106674500Y-122199500D01*
X106607461Y-122179815D01*
X106561706Y-122127011D01*
X106550500Y-122075500D01*
X106550500Y-112214000D01*
X106570185Y-112146961D01*
X106622989Y-112101206D01*
X106674500Y-112090000D01*
X107475866Y-112090000D01*
X107475867Y-112089999D01*
X107559849Y-112079450D01*
X107692682Y-112024429D01*
X107759521Y-111972507D01*
X107759526Y-111972503D01*
X107919238Y-111812790D01*
X107183866Y-111077419D01*
X107150381Y-111016096D01*
X107155365Y-110946405D01*
X107197237Y-110890471D01*
X107215245Y-110879258D01*
X107238045Y-110867641D01*
X107327641Y-110778045D01*
X107339254Y-110755252D01*
X107387225Y-110704458D01*
X107455046Y-110687661D01*
X107521181Y-110710197D01*
X107537419Y-110723866D01*
X108272790Y-111459238D01*
X108432503Y-111299526D01*
X108432507Y-111299521D01*
X108484428Y-111232683D01*
X108484429Y-111232681D01*
X108539450Y-111099848D01*
X108549999Y-111015865D01*
X108550000Y-111015858D01*
X108550000Y-110064133D01*
X108549999Y-110064132D01*
X108539450Y-109980151D01*
X108513898Y-109918463D01*
X108506429Y-109848993D01*
X108537704Y-109786514D01*
X108540750Y-109783357D01*
X109023192Y-109300916D01*
X109085698Y-109229642D01*
X109207965Y-109037721D01*
X109295047Y-108827485D01*
X109307509Y-108771268D01*
X109340887Y-108710428D01*
X109828389Y-108222926D01*
X112720624Y-108222926D01*
X112747910Y-108243352D01*
X112747913Y-108243354D01*
X112882620Y-108293596D01*
X112882627Y-108293598D01*
X112942155Y-108299999D01*
X112942172Y-108300000D01*
X114637828Y-108300000D01*
X114637844Y-108299999D01*
X114697372Y-108293598D01*
X114697376Y-108293597D01*
X114832090Y-108243351D01*
X114859373Y-108222926D01*
X113790000Y-107153553D01*
X112720624Y-108222926D01*
X109828389Y-108222926D01*
X111799263Y-106252052D01*
X111805008Y-106246978D01*
X111825764Y-106230825D01*
X111886858Y-106164458D01*
X111908078Y-106143239D01*
X111908077Y-106143241D01*
X111927474Y-106120337D01*
X111927474Y-106120336D01*
X111988571Y-106053969D01*
X112002954Y-106031952D01*
X112007540Y-106025802D01*
X112024534Y-106005740D01*
X112070712Y-105928242D01*
X112119511Y-105853552D01*
X112490000Y-105853552D01*
X112490000Y-107746447D01*
X113436446Y-106800001D01*
X114143553Y-106800001D01*
X115089999Y-107746447D01*
X115090000Y-107746446D01*
X115090000Y-105853552D01*
X115089999Y-105853551D01*
X114143553Y-106799999D01*
X114143553Y-106800001D01*
X113436446Y-106800001D01*
X113436447Y-106800000D01*
X113436447Y-106799999D01*
X112490000Y-105853552D01*
X112119511Y-105853552D01*
X112120046Y-105852733D01*
X112120047Y-105852731D01*
X112120046Y-105852731D01*
X112120049Y-105852728D01*
X112130612Y-105828643D01*
X112134118Y-105821832D01*
X112147583Y-105799238D01*
X112180375Y-105715197D01*
X112216610Y-105632591D01*
X112223062Y-105607109D01*
X112225405Y-105599792D01*
X112234964Y-105575298D01*
X112235381Y-105573312D01*
X112253476Y-105487005D01*
X112275618Y-105399570D01*
X112275619Y-105399567D01*
X112275619Y-105399566D01*
X112275620Y-105399563D01*
X112277483Y-105377072D01*
X112720624Y-105377072D01*
X113790000Y-106446447D01*
X113790001Y-106446447D01*
X114859374Y-105377072D01*
X114832085Y-105356645D01*
X114697379Y-105306403D01*
X114697372Y-105306401D01*
X114637844Y-105300000D01*
X112942155Y-105300000D01*
X112882627Y-105306401D01*
X112882620Y-105306403D01*
X112747913Y-105356646D01*
X112747909Y-105356647D01*
X112720625Y-105377072D01*
X112720624Y-105377072D01*
X112277483Y-105377072D01*
X112277790Y-105373363D01*
X112278896Y-105365768D01*
X112284294Y-105340030D01*
X112288022Y-105249892D01*
X112290500Y-105219990D01*
X112290500Y-105189985D01*
X112294228Y-105099852D01*
X112290975Y-105073759D01*
X112290500Y-105066089D01*
X112290500Y-104020559D01*
X112310185Y-103953520D01*
X112362989Y-103907765D01*
X112393749Y-103899082D01*
X112393634Y-103898487D01*
X112451827Y-103887231D01*
X112630228Y-103852729D01*
X112851681Y-103769157D01*
X113055825Y-103649360D01*
X113236787Y-103496787D01*
X113389360Y-103315825D01*
X113509157Y-103111681D01*
X113592729Y-102890228D01*
X113597836Y-102863817D01*
X113629892Y-102801734D01*
X113690422Y-102766837D01*
X113760211Y-102770205D01*
G37*
%TD.AperFunction*%
%TA.AperFunction,Conductor*%
G36*
X113343030Y-100202025D02*
G01*
X113369929Y-100219312D01*
X113524168Y-100349355D01*
X113524170Y-100349356D01*
X113524175Y-100349360D01*
X113728319Y-100469157D01*
X113949772Y-100552729D01*
X114182164Y-100597674D01*
X114220734Y-100599722D01*
X114235359Y-100600500D01*
X114235364Y-100600499D01*
X114235365Y-100600500D01*
X116247820Y-100600499D01*
X116314859Y-100620184D01*
X116335501Y-100636818D01*
X116687002Y-100988319D01*
X116720487Y-101049642D01*
X116715503Y-101119334D01*
X116673631Y-101175267D01*
X116608167Y-101199684D01*
X116599321Y-101200000D01*
X115143552Y-101200000D01*
X115693553Y-101750000D01*
X114986447Y-101750000D01*
X114436447Y-101200000D01*
X114291329Y-101200000D01*
X114175980Y-101215185D01*
X114175975Y-101215187D01*
X114032458Y-101274633D01*
X114032457Y-101274633D01*
X113909205Y-101369209D01*
X113817956Y-101488126D01*
X113761528Y-101529328D01*
X113691782Y-101533483D01*
X113630862Y-101499270D01*
X113598110Y-101437553D01*
X113597837Y-101436183D01*
X113592729Y-101409772D01*
X113509158Y-101188322D01*
X113509157Y-101188319D01*
X113389360Y-100984175D01*
X113389356Y-100984170D01*
X113389355Y-100984168D01*
X113236788Y-100803214D01*
X113236785Y-100803211D01*
X113055831Y-100650644D01*
X113055824Y-100650639D01*
X113003925Y-100620184D01*
X112981365Y-100606944D01*
X112933509Y-100556039D01*
X112920772Y-100487340D01*
X112947198Y-100422661D01*
X112981364Y-100393055D01*
X113055825Y-100349360D01*
X113210070Y-100219312D01*
X113274013Y-100191148D01*
X113343030Y-100202025D01*
G37*
%TD.AperFunction*%
%TA.AperFunction,Conductor*%
G36*
X123343030Y-100202025D02*
G01*
X123369929Y-100219312D01*
X123524168Y-100349355D01*
X123524170Y-100349356D01*
X123524175Y-100349360D01*
X123728319Y-100469157D01*
X123949772Y-100552729D01*
X124182164Y-100597674D01*
X124220734Y-100599722D01*
X124235359Y-100600500D01*
X124235364Y-100600499D01*
X124235365Y-100600500D01*
X126247820Y-100600499D01*
X126314859Y-100620184D01*
X126335501Y-100636818D01*
X126687002Y-100988319D01*
X126720487Y-101049642D01*
X126715503Y-101119334D01*
X126673631Y-101175267D01*
X126608167Y-101199684D01*
X126599321Y-101200000D01*
X125143552Y-101200000D01*
X125693553Y-101750000D01*
X124986447Y-101750000D01*
X124436447Y-101200000D01*
X124291329Y-101200000D01*
X124175980Y-101215185D01*
X124175975Y-101215187D01*
X124032458Y-101274633D01*
X124032457Y-101274633D01*
X123909205Y-101369209D01*
X123817956Y-101488126D01*
X123761528Y-101529328D01*
X123691782Y-101533483D01*
X123630862Y-101499270D01*
X123598110Y-101437553D01*
X123597837Y-101436183D01*
X123592729Y-101409772D01*
X123509158Y-101188322D01*
X123509157Y-101188319D01*
X123389360Y-100984175D01*
X123389356Y-100984170D01*
X123389355Y-100984168D01*
X123236788Y-100803214D01*
X123236785Y-100803211D01*
X123055831Y-100650644D01*
X123055824Y-100650639D01*
X123003925Y-100620184D01*
X122981365Y-100606944D01*
X122933509Y-100556039D01*
X122920772Y-100487340D01*
X122947198Y-100422661D01*
X122981364Y-100393055D01*
X123055825Y-100349360D01*
X123210070Y-100219312D01*
X123274013Y-100191148D01*
X123343030Y-100202025D01*
G37*
%TD.AperFunction*%
%TA.AperFunction,Conductor*%
G36*
X133343030Y-100202025D02*
G01*
X133369929Y-100219312D01*
X133524168Y-100349355D01*
X133524170Y-100349356D01*
X133524175Y-100349360D01*
X133728319Y-100469157D01*
X133949772Y-100552729D01*
X134182164Y-100597674D01*
X134220734Y-100599722D01*
X134235359Y-100600500D01*
X134235364Y-100600499D01*
X134235365Y-100600500D01*
X136247820Y-100600499D01*
X136314859Y-100620184D01*
X136335501Y-100636818D01*
X136687002Y-100988319D01*
X136720487Y-101049642D01*
X136715503Y-101119334D01*
X136673631Y-101175267D01*
X136608167Y-101199684D01*
X136599321Y-101200000D01*
X135143552Y-101200000D01*
X135693553Y-101750000D01*
X134986447Y-101750000D01*
X134436447Y-101200000D01*
X134291329Y-101200000D01*
X134175980Y-101215185D01*
X134175975Y-101215187D01*
X134032458Y-101274633D01*
X134032457Y-101274633D01*
X133909205Y-101369209D01*
X133817956Y-101488126D01*
X133761528Y-101529328D01*
X133691782Y-101533483D01*
X133630862Y-101499270D01*
X133598110Y-101437553D01*
X133597837Y-101436183D01*
X133592729Y-101409772D01*
X133509158Y-101188322D01*
X133509157Y-101188319D01*
X133389360Y-100984175D01*
X133389356Y-100984170D01*
X133389355Y-100984168D01*
X133236788Y-100803214D01*
X133236785Y-100803211D01*
X133055831Y-100650644D01*
X133055824Y-100650639D01*
X133003925Y-100620184D01*
X132981365Y-100606944D01*
X132933509Y-100556039D01*
X132920772Y-100487340D01*
X132947198Y-100422661D01*
X132981364Y-100393055D01*
X133055825Y-100349360D01*
X133210070Y-100219312D01*
X133274013Y-100191148D01*
X133343030Y-100202025D01*
G37*
%TD.AperFunction*%
%TA.AperFunction,Conductor*%
G36*
X143343030Y-100202025D02*
G01*
X143369929Y-100219312D01*
X143524168Y-100349355D01*
X143524170Y-100349356D01*
X143524175Y-100349360D01*
X143728319Y-100469157D01*
X143949772Y-100552729D01*
X144182164Y-100597674D01*
X144220734Y-100599722D01*
X144235359Y-100600500D01*
X144235364Y-100600499D01*
X144235365Y-100600500D01*
X146247820Y-100600499D01*
X146314859Y-100620184D01*
X146335501Y-100636818D01*
X146687002Y-100988319D01*
X146720487Y-101049642D01*
X146715503Y-101119334D01*
X146673631Y-101175267D01*
X146608167Y-101199684D01*
X146599321Y-101200000D01*
X145143552Y-101200000D01*
X145693553Y-101750000D01*
X144986447Y-101750000D01*
X144436447Y-101200000D01*
X144291329Y-101200000D01*
X144175980Y-101215185D01*
X144175975Y-101215187D01*
X144032458Y-101274633D01*
X144032457Y-101274633D01*
X143909205Y-101369209D01*
X143817956Y-101488126D01*
X143761528Y-101529328D01*
X143691782Y-101533483D01*
X143630862Y-101499270D01*
X143598110Y-101437553D01*
X143597837Y-101436183D01*
X143592729Y-101409772D01*
X143509158Y-101188322D01*
X143509157Y-101188319D01*
X143389360Y-100984175D01*
X143389356Y-100984170D01*
X143389355Y-100984168D01*
X143236788Y-100803214D01*
X143236785Y-100803211D01*
X143055831Y-100650644D01*
X143055824Y-100650639D01*
X143003925Y-100620184D01*
X142981365Y-100606944D01*
X142933509Y-100556039D01*
X142920772Y-100487340D01*
X142947198Y-100422661D01*
X142981364Y-100393055D01*
X143055825Y-100349360D01*
X143210070Y-100219312D01*
X143274013Y-100191148D01*
X143343030Y-100202025D01*
G37*
%TD.AperFunction*%
%TA.AperFunction,Conductor*%
G36*
X153343029Y-100202025D02*
G01*
X153369928Y-100219311D01*
X153524175Y-100349360D01*
X153728319Y-100469157D01*
X153949772Y-100552729D01*
X154182164Y-100597674D01*
X154220734Y-100599722D01*
X154235359Y-100600500D01*
X154235364Y-100600499D01*
X154235365Y-100600500D01*
X155868439Y-100600499D01*
X157244639Y-100600499D01*
X157250000Y-100600213D01*
X157250000Y-101208073D01*
X157188671Y-101200000D01*
X157043552Y-101200000D01*
X156493552Y-101750000D01*
X155786447Y-101750000D01*
X156336447Y-101200000D01*
X155143552Y-101200000D01*
X155693553Y-101750000D01*
X154986447Y-101750000D01*
X154436447Y-101200000D01*
X154291329Y-101200000D01*
X154175980Y-101215185D01*
X154175975Y-101215187D01*
X154032458Y-101274633D01*
X154032457Y-101274633D01*
X153909205Y-101369209D01*
X153817956Y-101488126D01*
X153761528Y-101529328D01*
X153691782Y-101533483D01*
X153630862Y-101499270D01*
X153598110Y-101437553D01*
X153597837Y-101436183D01*
X153592729Y-101409772D01*
X153509158Y-101188322D01*
X153509157Y-101188319D01*
X153389360Y-100984175D01*
X153389356Y-100984170D01*
X153389355Y-100984168D01*
X153236788Y-100803214D01*
X153236785Y-100803211D01*
X153055831Y-100650644D01*
X153055824Y-100650639D01*
X153003925Y-100620184D01*
X152981365Y-100606944D01*
X152933509Y-100556039D01*
X152920772Y-100487340D01*
X152947198Y-100422661D01*
X152981364Y-100393055D01*
X153055825Y-100349360D01*
X153210072Y-100219310D01*
X153274011Y-100191148D01*
X153343029Y-100202025D01*
G37*
%TD.AperFunction*%
%TA.AperFunction,Conductor*%
G36*
X157250000Y-97099784D02*
G01*
X157244641Y-97099500D01*
X157244635Y-97099500D01*
X156092179Y-97099500D01*
X156025140Y-97079815D01*
X156004498Y-97063181D01*
X153941317Y-95000000D01*
X157250000Y-95000000D01*
X157250000Y-97099784D01*
G37*
%TD.AperFunction*%
%TA.AperFunction,Conductor*%
G36*
X114154688Y-93075994D02*
G01*
X114175982Y-93084814D01*
X114175980Y-93084814D01*
X114250000Y-93094558D01*
X114250000Y-93508682D01*
X114019553Y-93278236D01*
X113986068Y-93216913D01*
X113991052Y-93147221D01*
X114032924Y-93091288D01*
X114098388Y-93066871D01*
X114154688Y-93075994D01*
G37*
%TD.AperFunction*%
%TA.AperFunction,Conductor*%
G36*
X113343030Y-90202025D02*
G01*
X113369929Y-90219312D01*
X113524168Y-90349355D01*
X113524170Y-90349356D01*
X113524175Y-90349360D01*
X113728319Y-90469157D01*
X113949772Y-90552729D01*
X114182164Y-90597674D01*
X114220734Y-90599722D01*
X114235359Y-90600500D01*
X114235364Y-90600499D01*
X114235365Y-90600500D01*
X116247820Y-90600499D01*
X116314859Y-90620184D01*
X116335501Y-90636818D01*
X116687002Y-90988319D01*
X116720487Y-91049642D01*
X116715503Y-91119334D01*
X116673631Y-91175267D01*
X116608167Y-91199684D01*
X116599321Y-91200000D01*
X115143552Y-91200000D01*
X115693553Y-91750000D01*
X114986447Y-91750000D01*
X114436447Y-91200000D01*
X114291329Y-91200000D01*
X114175980Y-91215185D01*
X114175975Y-91215187D01*
X114032458Y-91274633D01*
X114032457Y-91274633D01*
X113909205Y-91369209D01*
X113817956Y-91488126D01*
X113761528Y-91529328D01*
X113691782Y-91533483D01*
X113630862Y-91499270D01*
X113598110Y-91437553D01*
X113597837Y-91436183D01*
X113592729Y-91409772D01*
X113509158Y-91188322D01*
X113509157Y-91188319D01*
X113389360Y-90984175D01*
X113389356Y-90984170D01*
X113389355Y-90984168D01*
X113236788Y-90803214D01*
X113236785Y-90803211D01*
X113055831Y-90650644D01*
X113055824Y-90650639D01*
X113003925Y-90620184D01*
X112981365Y-90606944D01*
X112933509Y-90556039D01*
X112920772Y-90487340D01*
X112947198Y-90422661D01*
X112981364Y-90393055D01*
X113055825Y-90349360D01*
X113210070Y-90219312D01*
X113274013Y-90191148D01*
X113343030Y-90202025D01*
G37*
%TD.AperFunction*%
%TA.AperFunction,Conductor*%
G36*
X123343030Y-90202025D02*
G01*
X123369929Y-90219312D01*
X123524168Y-90349355D01*
X123524170Y-90349356D01*
X123524175Y-90349360D01*
X123728319Y-90469157D01*
X123949772Y-90552729D01*
X124182164Y-90597674D01*
X124220734Y-90599722D01*
X124235359Y-90600500D01*
X124235364Y-90600499D01*
X124235365Y-90600500D01*
X126247820Y-90600499D01*
X126314859Y-90620184D01*
X126335501Y-90636818D01*
X126687002Y-90988319D01*
X126720487Y-91049642D01*
X126715503Y-91119334D01*
X126673631Y-91175267D01*
X126608167Y-91199684D01*
X126599321Y-91200000D01*
X125143552Y-91200000D01*
X125693553Y-91750000D01*
X124986447Y-91750000D01*
X124436447Y-91200000D01*
X124291329Y-91200000D01*
X124175980Y-91215185D01*
X124175975Y-91215187D01*
X124032458Y-91274633D01*
X124032457Y-91274633D01*
X123909205Y-91369209D01*
X123817956Y-91488126D01*
X123761528Y-91529328D01*
X123691782Y-91533483D01*
X123630862Y-91499270D01*
X123598110Y-91437553D01*
X123597837Y-91436183D01*
X123592729Y-91409772D01*
X123509158Y-91188322D01*
X123509157Y-91188319D01*
X123389360Y-90984175D01*
X123389356Y-90984170D01*
X123389355Y-90984168D01*
X123236788Y-90803214D01*
X123236785Y-90803211D01*
X123055831Y-90650644D01*
X123055824Y-90650639D01*
X123003925Y-90620184D01*
X122981365Y-90606944D01*
X122933509Y-90556039D01*
X122920772Y-90487340D01*
X122947198Y-90422661D01*
X122981364Y-90393055D01*
X123055825Y-90349360D01*
X123210070Y-90219312D01*
X123274013Y-90191148D01*
X123343030Y-90202025D01*
G37*
%TD.AperFunction*%
%TA.AperFunction,Conductor*%
G36*
X133343030Y-90202025D02*
G01*
X133369929Y-90219312D01*
X133524168Y-90349355D01*
X133524170Y-90349356D01*
X133524175Y-90349360D01*
X133728319Y-90469157D01*
X133949772Y-90552729D01*
X134182164Y-90597674D01*
X134220734Y-90599722D01*
X134235359Y-90600500D01*
X134235364Y-90600499D01*
X134235365Y-90600500D01*
X136247820Y-90600499D01*
X136314859Y-90620184D01*
X136335501Y-90636818D01*
X136687002Y-90988319D01*
X136720487Y-91049642D01*
X136715503Y-91119334D01*
X136673631Y-91175267D01*
X136608167Y-91199684D01*
X136599321Y-91200000D01*
X135143552Y-91200000D01*
X135693553Y-91750000D01*
X134986447Y-91750000D01*
X134436447Y-91200000D01*
X134291329Y-91200000D01*
X134175980Y-91215185D01*
X134175975Y-91215187D01*
X134032458Y-91274633D01*
X134032457Y-91274633D01*
X133909205Y-91369209D01*
X133817956Y-91488126D01*
X133761528Y-91529328D01*
X133691782Y-91533483D01*
X133630862Y-91499270D01*
X133598110Y-91437553D01*
X133597837Y-91436183D01*
X133592729Y-91409772D01*
X133509158Y-91188322D01*
X133509157Y-91188319D01*
X133389360Y-90984175D01*
X133389356Y-90984170D01*
X133389355Y-90984168D01*
X133236788Y-90803214D01*
X133236785Y-90803211D01*
X133055831Y-90650644D01*
X133055824Y-90650639D01*
X133003925Y-90620184D01*
X132981365Y-90606944D01*
X132933509Y-90556039D01*
X132920772Y-90487340D01*
X132947198Y-90422661D01*
X132981364Y-90393055D01*
X133055825Y-90349360D01*
X133210070Y-90219312D01*
X133274013Y-90191148D01*
X133343030Y-90202025D01*
G37*
%TD.AperFunction*%
%TA.AperFunction,Conductor*%
G36*
X143343030Y-90202025D02*
G01*
X143369929Y-90219312D01*
X143524168Y-90349355D01*
X143524170Y-90349356D01*
X143524175Y-90349360D01*
X143728319Y-90469157D01*
X143949772Y-90552729D01*
X144182164Y-90597674D01*
X144220734Y-90599722D01*
X144235359Y-90600500D01*
X144235364Y-90600499D01*
X144235365Y-90600500D01*
X146247820Y-90600499D01*
X146314859Y-90620184D01*
X146335501Y-90636818D01*
X146687002Y-90988319D01*
X146720487Y-91049642D01*
X146715503Y-91119334D01*
X146673631Y-91175267D01*
X146608167Y-91199684D01*
X146599321Y-91200000D01*
X145143552Y-91200000D01*
X145693553Y-91750000D01*
X144986447Y-91750000D01*
X144436447Y-91200000D01*
X144291329Y-91200000D01*
X144175980Y-91215185D01*
X144175975Y-91215187D01*
X144032458Y-91274633D01*
X144032457Y-91274633D01*
X143909205Y-91369209D01*
X143817956Y-91488126D01*
X143761528Y-91529328D01*
X143691782Y-91533483D01*
X143630862Y-91499270D01*
X143598110Y-91437553D01*
X143597837Y-91436183D01*
X143592729Y-91409772D01*
X143509158Y-91188322D01*
X143509157Y-91188319D01*
X143389360Y-90984175D01*
X143389356Y-90984170D01*
X143389355Y-90984168D01*
X143236788Y-90803214D01*
X143236785Y-90803211D01*
X143055831Y-90650644D01*
X143055824Y-90650639D01*
X143003925Y-90620184D01*
X142981365Y-90606944D01*
X142933509Y-90556039D01*
X142920772Y-90487340D01*
X142947198Y-90422661D01*
X142981364Y-90393055D01*
X143055825Y-90349360D01*
X143210070Y-90219312D01*
X143274013Y-90191148D01*
X143343030Y-90202025D01*
G37*
%TD.AperFunction*%
%TA.AperFunction,Conductor*%
G36*
X153343030Y-90202025D02*
G01*
X153369929Y-90219312D01*
X153524168Y-90349355D01*
X153524170Y-90349356D01*
X153524175Y-90349360D01*
X153728319Y-90469157D01*
X153949772Y-90552729D01*
X154182164Y-90597674D01*
X154220734Y-90599722D01*
X154235359Y-90600500D01*
X154235364Y-90600499D01*
X154235365Y-90600500D01*
X155880354Y-90600499D01*
X157244639Y-90600499D01*
X157250000Y-90600213D01*
X157250000Y-91208073D01*
X157188671Y-91200000D01*
X157043552Y-91200000D01*
X156493552Y-91750000D01*
X155786447Y-91750000D01*
X156336447Y-91200000D01*
X155143552Y-91200000D01*
X155693553Y-91750000D01*
X154986447Y-91750000D01*
X154436447Y-91200000D01*
X154291329Y-91200000D01*
X154175980Y-91215185D01*
X154175975Y-91215187D01*
X154032458Y-91274633D01*
X154032457Y-91274633D01*
X153909205Y-91369209D01*
X153817956Y-91488126D01*
X153761528Y-91529328D01*
X153691782Y-91533483D01*
X153630862Y-91499270D01*
X153598110Y-91437553D01*
X153597837Y-91436183D01*
X153592729Y-91409772D01*
X153509158Y-91188322D01*
X153509157Y-91188319D01*
X153389360Y-90984175D01*
X153389356Y-90984170D01*
X153389355Y-90984168D01*
X153236788Y-90803214D01*
X153236785Y-90803211D01*
X153055831Y-90650644D01*
X153055824Y-90650639D01*
X153003925Y-90620184D01*
X152981365Y-90606944D01*
X152933509Y-90556039D01*
X152920772Y-90487340D01*
X152947198Y-90422661D01*
X152981364Y-90393055D01*
X153055825Y-90349360D01*
X153210070Y-90219312D01*
X153274013Y-90191148D01*
X153343030Y-90202025D01*
G37*
%TD.AperFunction*%
%TA.AperFunction,Conductor*%
G36*
X157250000Y-87099784D02*
G01*
X157244641Y-87099500D01*
X157244635Y-87099500D01*
X156092179Y-87099500D01*
X156025140Y-87079815D01*
X156004498Y-87063181D01*
X153941317Y-85000000D01*
X157250000Y-85000000D01*
X157250000Y-87099784D01*
G37*
%TD.AperFunction*%
%TA.AperFunction,Conductor*%
G36*
X114154688Y-83075994D02*
G01*
X114175982Y-83084814D01*
X114175980Y-83084814D01*
X114250000Y-83094558D01*
X114250000Y-83508683D01*
X114019553Y-83278236D01*
X113986068Y-83216913D01*
X113991052Y-83147221D01*
X114032924Y-83091288D01*
X114098388Y-83066871D01*
X114154688Y-83075994D01*
G37*
%TD.AperFunction*%
%TA.AperFunction,Conductor*%
G36*
X113343030Y-80202025D02*
G01*
X113369929Y-80219312D01*
X113524168Y-80349355D01*
X113524170Y-80349356D01*
X113524175Y-80349360D01*
X113728319Y-80469157D01*
X113949772Y-80552729D01*
X114182164Y-80597674D01*
X114220734Y-80599722D01*
X114235359Y-80600500D01*
X114235364Y-80600499D01*
X114235365Y-80600500D01*
X116247820Y-80600499D01*
X116314859Y-80620184D01*
X116335501Y-80636818D01*
X116687002Y-80988319D01*
X116720487Y-81049642D01*
X116715503Y-81119334D01*
X116673631Y-81175267D01*
X116608167Y-81199684D01*
X116599321Y-81200000D01*
X115143552Y-81200000D01*
X115693553Y-81750000D01*
X114986448Y-81750000D01*
X114436447Y-81200000D01*
X114291329Y-81200000D01*
X114175980Y-81215185D01*
X114175975Y-81215187D01*
X114032458Y-81274633D01*
X114032457Y-81274633D01*
X113909205Y-81369209D01*
X113817956Y-81488126D01*
X113761528Y-81529328D01*
X113691782Y-81533483D01*
X113630862Y-81499270D01*
X113598110Y-81437553D01*
X113597837Y-81436183D01*
X113592729Y-81409772D01*
X113509158Y-81188322D01*
X113509157Y-81188319D01*
X113389360Y-80984175D01*
X113389356Y-80984170D01*
X113389355Y-80984168D01*
X113236788Y-80803214D01*
X113236785Y-80803211D01*
X113055831Y-80650644D01*
X113055824Y-80650639D01*
X113003925Y-80620184D01*
X112981365Y-80606944D01*
X112933509Y-80556039D01*
X112920772Y-80487340D01*
X112947198Y-80422661D01*
X112981364Y-80393055D01*
X113055825Y-80349360D01*
X113210070Y-80219312D01*
X113274013Y-80191148D01*
X113343030Y-80202025D01*
G37*
%TD.AperFunction*%
%TA.AperFunction,Conductor*%
G36*
X123343030Y-80202025D02*
G01*
X123369929Y-80219312D01*
X123524168Y-80349355D01*
X123524170Y-80349356D01*
X123524175Y-80349360D01*
X123728319Y-80469157D01*
X123949772Y-80552729D01*
X124182164Y-80597674D01*
X124220734Y-80599722D01*
X124235359Y-80600500D01*
X124235364Y-80600499D01*
X124235365Y-80600500D01*
X126247820Y-80600499D01*
X126314859Y-80620184D01*
X126335501Y-80636818D01*
X126687002Y-80988319D01*
X126720487Y-81049642D01*
X126715503Y-81119334D01*
X126673631Y-81175267D01*
X126608167Y-81199684D01*
X126599321Y-81200000D01*
X125143552Y-81200000D01*
X125693553Y-81750000D01*
X124986448Y-81750000D01*
X124436447Y-81200000D01*
X124291329Y-81200000D01*
X124175980Y-81215185D01*
X124175975Y-81215187D01*
X124032458Y-81274633D01*
X124032457Y-81274633D01*
X123909205Y-81369209D01*
X123817956Y-81488126D01*
X123761528Y-81529328D01*
X123691782Y-81533483D01*
X123630862Y-81499270D01*
X123598110Y-81437553D01*
X123597837Y-81436183D01*
X123592729Y-81409772D01*
X123509158Y-81188322D01*
X123509157Y-81188319D01*
X123389360Y-80984175D01*
X123389356Y-80984170D01*
X123389355Y-80984168D01*
X123236788Y-80803214D01*
X123236785Y-80803211D01*
X123055831Y-80650644D01*
X123055824Y-80650639D01*
X123003925Y-80620184D01*
X122981365Y-80606944D01*
X122933509Y-80556039D01*
X122920772Y-80487340D01*
X122947198Y-80422661D01*
X122981364Y-80393055D01*
X123055825Y-80349360D01*
X123210070Y-80219312D01*
X123274013Y-80191148D01*
X123343030Y-80202025D01*
G37*
%TD.AperFunction*%
%TA.AperFunction,Conductor*%
G36*
X133343030Y-80202025D02*
G01*
X133369929Y-80219312D01*
X133524168Y-80349355D01*
X133524170Y-80349356D01*
X133524175Y-80349360D01*
X133728319Y-80469157D01*
X133949772Y-80552729D01*
X134182164Y-80597674D01*
X134220734Y-80599722D01*
X134235359Y-80600500D01*
X134235364Y-80600499D01*
X134235365Y-80600500D01*
X136497820Y-80600499D01*
X136564859Y-80620184D01*
X136585501Y-80636818D01*
X137008436Y-81059753D01*
X137041921Y-81121076D01*
X137036937Y-81190768D01*
X137008436Y-81235115D01*
X136493550Y-81750000D01*
X135786447Y-81750000D01*
X136336447Y-81200000D01*
X135143552Y-81200000D01*
X135693553Y-81750000D01*
X134986448Y-81750000D01*
X134436447Y-81200000D01*
X134291329Y-81200000D01*
X134175980Y-81215185D01*
X134175975Y-81215187D01*
X134032458Y-81274633D01*
X134032457Y-81274633D01*
X133909205Y-81369209D01*
X133817956Y-81488126D01*
X133761528Y-81529328D01*
X133691782Y-81533483D01*
X133630862Y-81499270D01*
X133598110Y-81437553D01*
X133597837Y-81436183D01*
X133592729Y-81409772D01*
X133509158Y-81188322D01*
X133509157Y-81188319D01*
X133389360Y-80984175D01*
X133389356Y-80984170D01*
X133389355Y-80984168D01*
X133236788Y-80803214D01*
X133236785Y-80803211D01*
X133055831Y-80650644D01*
X133055824Y-80650639D01*
X133003925Y-80620184D01*
X132981365Y-80606944D01*
X132933509Y-80556039D01*
X132920772Y-80487340D01*
X132947198Y-80422661D01*
X132981364Y-80393055D01*
X133055825Y-80349360D01*
X133210070Y-80219312D01*
X133274013Y-80191148D01*
X133343030Y-80202025D01*
G37*
%TD.AperFunction*%
%TA.AperFunction,Conductor*%
G36*
X143343030Y-80202025D02*
G01*
X143369929Y-80219312D01*
X143524168Y-80349355D01*
X143524170Y-80349356D01*
X143524175Y-80349360D01*
X143728319Y-80469157D01*
X143949772Y-80552729D01*
X144182164Y-80597674D01*
X144220734Y-80599722D01*
X144235359Y-80600500D01*
X144235364Y-80600499D01*
X144235365Y-80600500D01*
X146247820Y-80600499D01*
X146314859Y-80620184D01*
X146335501Y-80636818D01*
X146687002Y-80988319D01*
X146720487Y-81049642D01*
X146715503Y-81119334D01*
X146673631Y-81175267D01*
X146608167Y-81199684D01*
X146599321Y-81200000D01*
X145143552Y-81200000D01*
X145693553Y-81750000D01*
X144986447Y-81750000D01*
X144436447Y-81200000D01*
X144291329Y-81200000D01*
X144175980Y-81215185D01*
X144175975Y-81215187D01*
X144032458Y-81274633D01*
X144032457Y-81274633D01*
X143909205Y-81369209D01*
X143817956Y-81488126D01*
X143761528Y-81529328D01*
X143691782Y-81533483D01*
X143630862Y-81499270D01*
X143598110Y-81437553D01*
X143597837Y-81436183D01*
X143592729Y-81409772D01*
X143509158Y-81188322D01*
X143509157Y-81188319D01*
X143389360Y-80984175D01*
X143389356Y-80984170D01*
X143389355Y-80984168D01*
X143236788Y-80803214D01*
X143236785Y-80803211D01*
X143055831Y-80650644D01*
X143055824Y-80650639D01*
X143003925Y-80620184D01*
X142981365Y-80606944D01*
X142933509Y-80556039D01*
X142920772Y-80487340D01*
X142947198Y-80422661D01*
X142981364Y-80393055D01*
X143055825Y-80349360D01*
X143210070Y-80219312D01*
X143274013Y-80191148D01*
X143343030Y-80202025D01*
G37*
%TD.AperFunction*%
%TA.AperFunction,Conductor*%
G36*
X153343029Y-80202025D02*
G01*
X153369928Y-80219311D01*
X153524175Y-80349360D01*
X153728319Y-80469157D01*
X153949772Y-80552729D01*
X154182164Y-80597674D01*
X154220734Y-80599722D01*
X154235359Y-80600500D01*
X154235364Y-80600499D01*
X154235365Y-80600500D01*
X155880354Y-80600499D01*
X157244639Y-80600499D01*
X157250000Y-80600213D01*
X157250000Y-81208073D01*
X157188671Y-81200000D01*
X157043552Y-81200000D01*
X156493552Y-81750000D01*
X155786447Y-81750000D01*
X156336447Y-81200000D01*
X155143552Y-81200000D01*
X155693553Y-81750000D01*
X154986447Y-81750000D01*
X154436447Y-81200000D01*
X154291329Y-81200000D01*
X154175980Y-81215185D01*
X154175975Y-81215187D01*
X154032458Y-81274633D01*
X154032457Y-81274633D01*
X153909205Y-81369209D01*
X153817956Y-81488126D01*
X153761528Y-81529328D01*
X153691782Y-81533483D01*
X153630862Y-81499270D01*
X153598110Y-81437553D01*
X153597837Y-81436183D01*
X153592729Y-81409772D01*
X153509158Y-81188322D01*
X153509157Y-81188319D01*
X153389360Y-80984175D01*
X153389356Y-80984170D01*
X153389355Y-80984168D01*
X153236788Y-80803214D01*
X153236785Y-80803211D01*
X153055831Y-80650644D01*
X153055824Y-80650639D01*
X153003925Y-80620184D01*
X152981365Y-80606944D01*
X152933509Y-80556039D01*
X152920772Y-80487340D01*
X152947198Y-80422661D01*
X152981364Y-80393055D01*
X153055825Y-80349360D01*
X153210072Y-80219310D01*
X153274011Y-80191148D01*
X153343029Y-80202025D01*
G37*
%TD.AperFunction*%
%TA.AperFunction,Conductor*%
G36*
X157250000Y-77099784D02*
G01*
X157244641Y-77099500D01*
X157244635Y-77099500D01*
X156092179Y-77099500D01*
X156025140Y-77079815D01*
X156004498Y-77063181D01*
X153941317Y-75000000D01*
X157250000Y-75000000D01*
X157250000Y-77099784D01*
G37*
%TD.AperFunction*%
%TA.AperFunction,Conductor*%
G36*
X114154688Y-73075994D02*
G01*
X114175982Y-73084814D01*
X114175980Y-73084814D01*
X114250000Y-73094558D01*
X114250000Y-73508683D01*
X114019553Y-73278236D01*
X113986068Y-73216913D01*
X113991052Y-73147221D01*
X114032924Y-73091288D01*
X114098388Y-73066871D01*
X114154688Y-73075994D01*
G37*
%TD.AperFunction*%
%TA.AperFunction,Conductor*%
G36*
X113343030Y-70202025D02*
G01*
X113369929Y-70219312D01*
X113524168Y-70349355D01*
X113524170Y-70349356D01*
X113524175Y-70349360D01*
X113728319Y-70469157D01*
X113949772Y-70552729D01*
X114182164Y-70597674D01*
X114220734Y-70599722D01*
X114235359Y-70600500D01*
X114235364Y-70600499D01*
X114235365Y-70600500D01*
X116247820Y-70600499D01*
X116314859Y-70620184D01*
X116335501Y-70636818D01*
X116687002Y-70988319D01*
X116720487Y-71049642D01*
X116715503Y-71119334D01*
X116673631Y-71175267D01*
X116608167Y-71199684D01*
X116599321Y-71200000D01*
X115143552Y-71200000D01*
X115693553Y-71750000D01*
X114986447Y-71750000D01*
X114436447Y-71200000D01*
X114291329Y-71200000D01*
X114175980Y-71215185D01*
X114175975Y-71215187D01*
X114032458Y-71274633D01*
X114032457Y-71274633D01*
X113909205Y-71369209D01*
X113817956Y-71488126D01*
X113761528Y-71529328D01*
X113691782Y-71533483D01*
X113630862Y-71499270D01*
X113598110Y-71437553D01*
X113597837Y-71436183D01*
X113592729Y-71409772D01*
X113541730Y-71274633D01*
X113509157Y-71188319D01*
X113389360Y-70984175D01*
X113389356Y-70984170D01*
X113389355Y-70984168D01*
X113236788Y-70803214D01*
X113236785Y-70803211D01*
X113055831Y-70650644D01*
X113055824Y-70650639D01*
X113003925Y-70620184D01*
X112981365Y-70606944D01*
X112933509Y-70556039D01*
X112920772Y-70487340D01*
X112947198Y-70422661D01*
X112981364Y-70393055D01*
X113055825Y-70349360D01*
X113210070Y-70219312D01*
X113274013Y-70191148D01*
X113343030Y-70202025D01*
G37*
%TD.AperFunction*%
%TA.AperFunction,Conductor*%
G36*
X123343030Y-70202025D02*
G01*
X123369929Y-70219312D01*
X123524168Y-70349355D01*
X123524170Y-70349356D01*
X123524175Y-70349360D01*
X123728319Y-70469157D01*
X123949772Y-70552729D01*
X124182164Y-70597674D01*
X124220734Y-70599722D01*
X124235359Y-70600500D01*
X124235364Y-70600499D01*
X124235365Y-70600500D01*
X126295319Y-70600499D01*
X126362358Y-70620184D01*
X126383000Y-70636818D01*
X126907186Y-71161003D01*
X126940671Y-71222326D01*
X126935687Y-71292017D01*
X126907186Y-71336365D01*
X126493551Y-71750000D01*
X125786446Y-71750000D01*
X126336447Y-71200000D01*
X125143553Y-71200000D01*
X125693551Y-71750000D01*
X124986448Y-71750000D01*
X124436447Y-71200000D01*
X124291329Y-71200000D01*
X124175980Y-71215185D01*
X124175975Y-71215187D01*
X124032458Y-71274633D01*
X124032457Y-71274633D01*
X123909205Y-71369209D01*
X123817956Y-71488126D01*
X123761528Y-71529328D01*
X123691782Y-71533483D01*
X123630862Y-71499270D01*
X123598110Y-71437553D01*
X123597837Y-71436183D01*
X123592729Y-71409772D01*
X123541730Y-71274633D01*
X123509157Y-71188319D01*
X123389360Y-70984175D01*
X123389356Y-70984170D01*
X123389355Y-70984168D01*
X123236788Y-70803214D01*
X123236785Y-70803211D01*
X123055831Y-70650644D01*
X123055824Y-70650639D01*
X123003925Y-70620184D01*
X122981365Y-70606944D01*
X122933509Y-70556039D01*
X122920772Y-70487340D01*
X122947198Y-70422661D01*
X122981364Y-70393055D01*
X123055825Y-70349360D01*
X123210070Y-70219312D01*
X123274013Y-70191148D01*
X123343030Y-70202025D01*
G37*
%TD.AperFunction*%
%TA.AperFunction,Conductor*%
G36*
X133343030Y-70202025D02*
G01*
X133369929Y-70219312D01*
X133524168Y-70349355D01*
X133524170Y-70349356D01*
X133524175Y-70349360D01*
X133728319Y-70469157D01*
X133949772Y-70552729D01*
X134182164Y-70597674D01*
X134220734Y-70599722D01*
X134235359Y-70600500D01*
X134235364Y-70600499D01*
X134235365Y-70600500D01*
X136247820Y-70600499D01*
X136314859Y-70620184D01*
X136335501Y-70636818D01*
X136687002Y-70988319D01*
X136720487Y-71049642D01*
X136715503Y-71119334D01*
X136673631Y-71175267D01*
X136608167Y-71199684D01*
X136599321Y-71200000D01*
X135143552Y-71200000D01*
X135693553Y-71750000D01*
X134986447Y-71750000D01*
X134436447Y-71200000D01*
X134291329Y-71200000D01*
X134175980Y-71215185D01*
X134175975Y-71215187D01*
X134032458Y-71274633D01*
X134032457Y-71274633D01*
X133909205Y-71369209D01*
X133817956Y-71488126D01*
X133761528Y-71529328D01*
X133691782Y-71533483D01*
X133630862Y-71499270D01*
X133598110Y-71437553D01*
X133597837Y-71436183D01*
X133592729Y-71409772D01*
X133541730Y-71274633D01*
X133509157Y-71188319D01*
X133389360Y-70984175D01*
X133389356Y-70984170D01*
X133389355Y-70984168D01*
X133236788Y-70803214D01*
X133236785Y-70803211D01*
X133055831Y-70650644D01*
X133055824Y-70650639D01*
X133003925Y-70620184D01*
X132981365Y-70606944D01*
X132933509Y-70556039D01*
X132920772Y-70487340D01*
X132947198Y-70422661D01*
X132981364Y-70393055D01*
X133055825Y-70349360D01*
X133210070Y-70219312D01*
X133274013Y-70191148D01*
X133343030Y-70202025D01*
G37*
%TD.AperFunction*%
%TA.AperFunction,Conductor*%
G36*
X143343030Y-70202025D02*
G01*
X143369929Y-70219312D01*
X143524168Y-70349355D01*
X143524170Y-70349356D01*
X143524175Y-70349360D01*
X143728319Y-70469157D01*
X143949772Y-70552729D01*
X144182164Y-70597674D01*
X144220734Y-70599722D01*
X144235359Y-70600500D01*
X144235364Y-70600499D01*
X144235365Y-70600500D01*
X146359070Y-70600499D01*
X146426109Y-70620184D01*
X146446751Y-70636817D01*
X146939063Y-71129130D01*
X146972547Y-71190451D01*
X146967563Y-71260142D01*
X146939062Y-71304490D01*
X146493552Y-71750000D01*
X145786447Y-71750000D01*
X146336447Y-71200000D01*
X145143552Y-71200000D01*
X145693553Y-71750000D01*
X144986447Y-71750000D01*
X144436447Y-71200000D01*
X144291329Y-71200000D01*
X144175980Y-71215185D01*
X144175975Y-71215187D01*
X144032458Y-71274633D01*
X144032457Y-71274633D01*
X143909205Y-71369209D01*
X143817956Y-71488126D01*
X143761528Y-71529328D01*
X143691782Y-71533483D01*
X143630862Y-71499270D01*
X143598110Y-71437553D01*
X143597837Y-71436183D01*
X143592729Y-71409772D01*
X143541730Y-71274633D01*
X143509157Y-71188319D01*
X143389360Y-70984175D01*
X143389356Y-70984170D01*
X143389355Y-70984168D01*
X143236788Y-70803214D01*
X143236785Y-70803211D01*
X143055831Y-70650644D01*
X143055824Y-70650639D01*
X143003925Y-70620184D01*
X142981365Y-70606944D01*
X142933509Y-70556039D01*
X142920772Y-70487340D01*
X142947198Y-70422661D01*
X142981364Y-70393055D01*
X143055825Y-70349360D01*
X143210070Y-70219312D01*
X143274013Y-70191148D01*
X143343030Y-70202025D01*
G37*
%TD.AperFunction*%
%TA.AperFunction,Conductor*%
G36*
X153343029Y-70202025D02*
G01*
X153369928Y-70219311D01*
X153524175Y-70349360D01*
X153728319Y-70469157D01*
X153949772Y-70552729D01*
X154182164Y-70597674D01*
X154220734Y-70599722D01*
X154235359Y-70600500D01*
X154235364Y-70600499D01*
X154235365Y-70600500D01*
X155880354Y-70600499D01*
X157244639Y-70600499D01*
X157250000Y-70600213D01*
X157250000Y-71208073D01*
X157188671Y-71200000D01*
X157043552Y-71200000D01*
X156493552Y-71750000D01*
X155786447Y-71750000D01*
X156336447Y-71200000D01*
X155143552Y-71200000D01*
X155693553Y-71750000D01*
X154986447Y-71750000D01*
X154436447Y-71200000D01*
X154291329Y-71200000D01*
X154175980Y-71215185D01*
X154175975Y-71215187D01*
X154032458Y-71274633D01*
X154032457Y-71274633D01*
X153909205Y-71369209D01*
X153817956Y-71488126D01*
X153761528Y-71529328D01*
X153691782Y-71533483D01*
X153630862Y-71499270D01*
X153598110Y-71437553D01*
X153597837Y-71436183D01*
X153592729Y-71409772D01*
X153541730Y-71274633D01*
X153509157Y-71188319D01*
X153389360Y-70984175D01*
X153389356Y-70984170D01*
X153389355Y-70984168D01*
X153236788Y-70803214D01*
X153236785Y-70803211D01*
X153055831Y-70650644D01*
X153055824Y-70650639D01*
X153003925Y-70620184D01*
X152981365Y-70606944D01*
X152933509Y-70556039D01*
X152920772Y-70487340D01*
X152947198Y-70422661D01*
X152981364Y-70393055D01*
X153055825Y-70349360D01*
X153210072Y-70219310D01*
X153274011Y-70191148D01*
X153343029Y-70202025D01*
G37*
%TD.AperFunction*%
%TA.AperFunction,Conductor*%
G36*
X157250000Y-67099784D02*
G01*
X157244641Y-67099500D01*
X157244635Y-67099500D01*
X156092179Y-67099500D01*
X156025140Y-67079815D01*
X156004498Y-67063181D01*
X153941317Y-65000000D01*
X157250000Y-65000000D01*
X157250000Y-67099784D01*
G37*
%TD.AperFunction*%
%TA.AperFunction,Conductor*%
G36*
X114154688Y-63075994D02*
G01*
X114175982Y-63084814D01*
X114175980Y-63084814D01*
X114250000Y-63094558D01*
X114250000Y-63508683D01*
X114019553Y-63278236D01*
X113986068Y-63216913D01*
X113991052Y-63147221D01*
X114032924Y-63091288D01*
X114098388Y-63066871D01*
X114154688Y-63075994D01*
G37*
%TD.AperFunction*%
%TA.AperFunction,Conductor*%
G36*
X113343030Y-60202025D02*
G01*
X113369929Y-60219312D01*
X113524168Y-60349355D01*
X113524170Y-60349356D01*
X113524175Y-60349360D01*
X113728319Y-60469157D01*
X113949772Y-60552729D01*
X114182164Y-60597674D01*
X114220734Y-60599722D01*
X114235359Y-60600500D01*
X114235364Y-60600499D01*
X114235365Y-60600500D01*
X116247820Y-60600499D01*
X116314859Y-60620184D01*
X116335501Y-60636818D01*
X116687002Y-60988319D01*
X116720487Y-61049642D01*
X116715503Y-61119334D01*
X116673631Y-61175267D01*
X116608167Y-61199684D01*
X116599321Y-61200000D01*
X115143552Y-61200000D01*
X115692907Y-61749354D01*
X114986117Y-61749670D01*
X114436447Y-61200000D01*
X114291329Y-61200000D01*
X114175980Y-61215185D01*
X114175975Y-61215187D01*
X114032458Y-61274633D01*
X114032457Y-61274633D01*
X113909205Y-61369209D01*
X113817956Y-61488126D01*
X113761528Y-61529328D01*
X113691782Y-61533483D01*
X113630862Y-61499270D01*
X113598110Y-61437553D01*
X113597837Y-61436183D01*
X113592729Y-61409772D01*
X113509158Y-61188322D01*
X113509157Y-61188319D01*
X113389360Y-60984175D01*
X113389356Y-60984170D01*
X113389355Y-60984168D01*
X113236788Y-60803214D01*
X113236785Y-60803211D01*
X113055831Y-60650644D01*
X113055824Y-60650639D01*
X113003925Y-60620184D01*
X112981365Y-60606944D01*
X112933509Y-60556039D01*
X112920772Y-60487340D01*
X112947198Y-60422661D01*
X112981364Y-60393055D01*
X113055825Y-60349360D01*
X113210070Y-60219312D01*
X113274013Y-60191148D01*
X113343030Y-60202025D01*
G37*
%TD.AperFunction*%
%TA.AperFunction,Conductor*%
G36*
X123343030Y-60202025D02*
G01*
X123369929Y-60219312D01*
X123524168Y-60349355D01*
X123524170Y-60349356D01*
X123524175Y-60349360D01*
X123728319Y-60469157D01*
X123949772Y-60552729D01*
X124182164Y-60597674D01*
X124220734Y-60599722D01*
X124235359Y-60600500D01*
X124235364Y-60600499D01*
X124235365Y-60600500D01*
X126247820Y-60600499D01*
X126314859Y-60620184D01*
X126335501Y-60636818D01*
X126687002Y-60988319D01*
X126720487Y-61049642D01*
X126715503Y-61119334D01*
X126673631Y-61175267D01*
X126608167Y-61199684D01*
X126599321Y-61200000D01*
X125143552Y-61200000D01*
X125688435Y-61744882D01*
X124981645Y-61745198D01*
X124436447Y-61200000D01*
X124291329Y-61200000D01*
X124175980Y-61215185D01*
X124175975Y-61215187D01*
X124032458Y-61274633D01*
X124032457Y-61274633D01*
X123909205Y-61369209D01*
X123817956Y-61488126D01*
X123761528Y-61529328D01*
X123691782Y-61533483D01*
X123630862Y-61499270D01*
X123598110Y-61437553D01*
X123597837Y-61436183D01*
X123592729Y-61409772D01*
X123509158Y-61188322D01*
X123509157Y-61188319D01*
X123389360Y-60984175D01*
X123389356Y-60984170D01*
X123389355Y-60984168D01*
X123236788Y-60803214D01*
X123236785Y-60803211D01*
X123055831Y-60650644D01*
X123055824Y-60650639D01*
X123003925Y-60620184D01*
X122981365Y-60606944D01*
X122933509Y-60556039D01*
X122920772Y-60487340D01*
X122947198Y-60422661D01*
X122981364Y-60393055D01*
X123055825Y-60349360D01*
X123210070Y-60219312D01*
X123274013Y-60191148D01*
X123343030Y-60202025D01*
G37*
%TD.AperFunction*%
%TA.AperFunction,Conductor*%
G36*
X133343030Y-60202025D02*
G01*
X133369929Y-60219312D01*
X133524168Y-60349355D01*
X133524170Y-60349356D01*
X133524175Y-60349360D01*
X133728319Y-60469157D01*
X133949772Y-60552729D01*
X134182164Y-60597674D01*
X134220734Y-60599722D01*
X134235359Y-60600500D01*
X134235364Y-60600499D01*
X134235365Y-60600500D01*
X136295320Y-60600499D01*
X136362359Y-60620184D01*
X136383001Y-60636818D01*
X136907187Y-61161004D01*
X136940672Y-61222327D01*
X136935688Y-61292019D01*
X136907187Y-61336366D01*
X136503509Y-61740043D01*
X135796087Y-61740359D01*
X136336447Y-61200000D01*
X135143552Y-61200000D01*
X135683962Y-61740409D01*
X134977173Y-61740726D01*
X134436447Y-61200000D01*
X134291329Y-61200000D01*
X134175980Y-61215185D01*
X134175975Y-61215187D01*
X134032458Y-61274633D01*
X134032457Y-61274633D01*
X133909205Y-61369209D01*
X133817956Y-61488126D01*
X133761528Y-61529328D01*
X133691782Y-61533483D01*
X133630862Y-61499270D01*
X133598110Y-61437553D01*
X133597837Y-61436183D01*
X133592729Y-61409772D01*
X133509158Y-61188322D01*
X133509157Y-61188319D01*
X133389360Y-60984175D01*
X133389356Y-60984170D01*
X133389355Y-60984168D01*
X133236788Y-60803214D01*
X133236785Y-60803211D01*
X133055831Y-60650644D01*
X133055824Y-60650639D01*
X133003925Y-60620184D01*
X132981365Y-60606944D01*
X132933509Y-60556039D01*
X132920772Y-60487340D01*
X132947198Y-60422661D01*
X132981364Y-60393055D01*
X133055825Y-60349360D01*
X133210070Y-60219312D01*
X133274013Y-60191148D01*
X133343030Y-60202025D01*
G37*
%TD.AperFunction*%
%TA.AperFunction,Conductor*%
G36*
X143343030Y-60202025D02*
G01*
X143369929Y-60219312D01*
X143524168Y-60349355D01*
X143524170Y-60349356D01*
X143524175Y-60349360D01*
X143728319Y-60469157D01*
X143949772Y-60552729D01*
X144182164Y-60597674D01*
X144220734Y-60599722D01*
X144235359Y-60600500D01*
X144235364Y-60600499D01*
X144235365Y-60600500D01*
X146247820Y-60600499D01*
X146314859Y-60620184D01*
X146335501Y-60636818D01*
X146687002Y-60988319D01*
X146720487Y-61049642D01*
X146715503Y-61119334D01*
X146673631Y-61175267D01*
X146608167Y-61199684D01*
X146599321Y-61200000D01*
X145143552Y-61200000D01*
X145679490Y-61735937D01*
X144972700Y-61736253D01*
X144436447Y-61200000D01*
X144291329Y-61200000D01*
X144175980Y-61215185D01*
X144175975Y-61215187D01*
X144032458Y-61274633D01*
X144032457Y-61274633D01*
X143909205Y-61369209D01*
X143817956Y-61488126D01*
X143761528Y-61529328D01*
X143691782Y-61533483D01*
X143630862Y-61499270D01*
X143598110Y-61437553D01*
X143597837Y-61436183D01*
X143592729Y-61409772D01*
X143509158Y-61188322D01*
X143509157Y-61188319D01*
X143389360Y-60984175D01*
X143389356Y-60984170D01*
X143389355Y-60984168D01*
X143236788Y-60803214D01*
X143236785Y-60803211D01*
X143055831Y-60650644D01*
X143055824Y-60650639D01*
X143003925Y-60620184D01*
X142981365Y-60606944D01*
X142933509Y-60556039D01*
X142920772Y-60487340D01*
X142947198Y-60422661D01*
X142981364Y-60393055D01*
X143055825Y-60349360D01*
X143210070Y-60219312D01*
X143274013Y-60191148D01*
X143343030Y-60202025D01*
G37*
%TD.AperFunction*%
%TA.AperFunction,Conductor*%
G36*
X153343030Y-60202025D02*
G01*
X153369929Y-60219312D01*
X153524168Y-60349355D01*
X153524170Y-60349356D01*
X153524175Y-60349360D01*
X153728319Y-60469157D01*
X153949772Y-60552729D01*
X154182164Y-60597674D01*
X154220734Y-60599722D01*
X154235359Y-60600500D01*
X154235364Y-60600499D01*
X154235365Y-60600500D01*
X155880354Y-60600499D01*
X157244639Y-60600499D01*
X157255349Y-60599929D01*
X157297836Y-60597674D01*
X157530228Y-60552729D01*
X157751681Y-60469157D01*
X157839616Y-60417554D01*
X157902375Y-60400500D01*
X158656400Y-60400500D01*
X158723439Y-60420185D01*
X158744075Y-60436813D01*
X158913183Y-60605921D01*
X158946666Y-60667241D01*
X158949500Y-60693599D01*
X158949499Y-61730000D01*
X157737263Y-61730542D01*
X157724814Y-61635980D01*
X157724812Y-61635975D01*
X157665366Y-61492458D01*
X157665366Y-61492457D01*
X157570792Y-61369207D01*
X157447541Y-61274633D01*
X157304024Y-61215187D01*
X157304019Y-61215185D01*
X157188671Y-61200000D01*
X157043552Y-61200000D01*
X156512461Y-61731090D01*
X155805038Y-61731407D01*
X156336447Y-61200000D01*
X155143552Y-61200000D01*
X155675019Y-61731465D01*
X154968228Y-61731781D01*
X154436447Y-61200000D01*
X154291329Y-61200000D01*
X154175980Y-61215185D01*
X154175975Y-61215187D01*
X154032458Y-61274633D01*
X154032457Y-61274633D01*
X153909205Y-61369209D01*
X153817956Y-61488126D01*
X153761528Y-61529328D01*
X153691782Y-61533483D01*
X153630862Y-61499270D01*
X153598110Y-61437553D01*
X153597837Y-61436183D01*
X153592729Y-61409772D01*
X153509158Y-61188322D01*
X153509157Y-61188319D01*
X153389360Y-60984175D01*
X153389356Y-60984170D01*
X153389355Y-60984168D01*
X153236788Y-60803214D01*
X153236785Y-60803211D01*
X153055831Y-60650644D01*
X153055824Y-60650639D01*
X153003925Y-60620184D01*
X152981365Y-60606944D01*
X152933509Y-60556039D01*
X152920772Y-60487340D01*
X152947198Y-60422661D01*
X152981364Y-60393055D01*
X153055825Y-60349360D01*
X153210070Y-60219312D01*
X153274013Y-60191148D01*
X153343030Y-60202025D01*
G37*
%TD.AperFunction*%
%TD*%
%TA.AperFunction,Conductor*%
%TO.N,GND*%
G36*
X145923000Y-129292890D02*
G01*
X145516802Y-129699090D01*
X145516803Y-129699090D01*
X145454305Y-129770353D01*
X145454298Y-129770363D01*
X145332036Y-129962276D01*
X145244953Y-130172513D01*
X145244402Y-130175000D01*
X144755597Y-130175000D01*
X144755046Y-130172514D01*
X144667964Y-129962278D01*
X144545697Y-129770357D01*
X144545694Y-129770354D01*
X144545693Y-129770352D01*
X144483197Y-129699090D01*
X144483198Y-129699090D01*
X144145000Y-129360891D01*
X144145000Y-129032000D01*
X145923000Y-129032000D01*
X145923000Y-129292890D01*
G37*
%TD.AperFunction*%
%TD*%
%TA.AperFunction,Conductor*%
%TO.N,GND*%
G36*
X113269500Y-130356747D02*
G01*
X113284201Y-130571680D01*
X113342666Y-130853034D01*
X113342667Y-130853037D01*
X113438894Y-131123793D01*
X113438893Y-131123793D01*
X113571098Y-131378935D01*
X113665000Y-131511964D01*
X113665000Y-132080000D01*
X112014000Y-132080000D01*
X112014000Y-131485047D01*
X112088901Y-131378936D01*
X112221104Y-131123797D01*
X112317334Y-130853032D01*
X112375798Y-130571686D01*
X112390500Y-130356752D01*
X112390500Y-130302000D01*
X113269500Y-130302000D01*
X113269500Y-130356747D01*
G37*
%TD.AperFunction*%
%TD*%
%TA.AperFunction,Conductor*%
%TO.N,GND*%
G36*
X106750000Y-154999500D02*
G01*
X101414500Y-154999500D01*
X101347461Y-154979815D01*
X101301706Y-154927011D01*
X101290500Y-154875500D01*
X101290500Y-152250000D01*
X106750000Y-152250000D01*
X106750000Y-154999500D01*
G37*
%TD.AperFunction*%
%TD*%
M02*
